<svg width="108" height="106" viewBox="0 0 108 106" fill="none" xmlns="http://www.w3.org/2000/svg">
<g filter="url(#filter0_d_56_2637)">
<ellipse cx="50" cy="49" rx="50" ry="49" fill="#787D72"/>
</g>
<path d="M67.1033 41.1123L55.3167 28.6839C55.1141 28.4694 54.8668 28.2977 54.5907 28.18C54.3145 28.0622 54.0157 28.0011 53.7133 28.0004H38.5467C37.8268 27.9922 37.1123 28.1196 36.4439 28.3754C35.7756 28.6312 35.1665 29.0104 34.6514 29.4913C34.1363 29.9721 33.7254 30.5453 33.442 31.178C33.1587 31.8108 33.0085 32.4906 33 33.1789V64.2498C33.0085 64.938 33.1587 65.6179 33.442 66.2507C33.7254 66.8834 34.1363 67.4565 34.6514 67.9374C35.1665 68.4183 35.7756 68.7975 36.4439 69.0533C37.1123 69.3091 37.8268 69.4365 38.5467 69.4283H62.12C62.8399 69.4365 63.5544 69.3091 64.2228 69.0533C64.8911 68.7975 65.5002 68.4183 66.0153 67.9374C66.5303 67.4565 66.9413 66.8834 67.2246 66.2507C67.508 65.6179 67.6582 64.938 67.6667 64.2498V42.5002C67.6653 41.9868 67.4645 41.4922 67.1033 41.1123ZM54.6667 34.2146L60.6033 40.4288H56.27C56.0431 40.4157 55.8212 40.3595 55.6173 40.2635C55.4133 40.1676 55.2314 40.0337 55.0822 39.8698C54.9329 39.7059 54.8193 39.5152 54.748 39.3089C54.6766 39.1026 54.649 38.8847 54.6667 38.6681V34.2146ZM62.12 65.2855H38.5467C38.3958 65.2939 38.2447 65.2738 38.102 65.2262C37.9593 65.1787 37.8278 65.1047 37.7151 65.0085C37.6024 64.9122 37.5107 64.7957 37.4451 64.6655C37.3796 64.5353 37.3416 64.3941 37.3333 64.2498V33.1789C37.3416 33.0346 37.3796 32.8934 37.4451 32.7632C37.5107 32.633 37.6024 32.5164 37.7151 32.4202C37.8278 32.324 37.9593 32.25 38.102 32.2025C38.2447 32.1549 38.3958 32.1348 38.5467 32.1432H50.3333V38.6681C50.2984 40.1939 50.8961 41.671 51.9962 42.777C53.0962 43.883 54.6092 44.5282 56.205 44.5716H63.3333V64.2498C63.325 64.3941 63.287 64.5353 63.2215 64.6655C63.156 64.7957 63.0643 64.9122 62.9515 65.0085C62.8388 65.1047 62.7074 65.1787 62.5647 65.2262C62.422 65.2738 62.2709 65.2939 62.12 65.2855Z" fill="#FBF6F7" fill-opacity="0.47"/>
<path d="M54.6666 50.7859H52.4999V48.7145C52.4999 48.1651 52.2716 47.6382 51.8653 47.2498C51.459 46.8613 50.9079 46.6431 50.3333 46.6431C49.7586 46.6431 49.2075 46.8613 48.8012 47.2498C48.3949 47.6382 48.1666 48.1651 48.1666 48.7145V50.7859H45.9999C45.4253 50.7859 44.8742 51.0041 44.4679 51.3926C44.0615 51.781 43.8333 52.3079 43.8333 52.8573C43.8333 53.4066 44.0615 53.9335 44.4679 54.322C44.8742 54.7104 45.4253 54.9287 45.9999 54.9287H48.1666V57.0001C48.1666 57.5494 48.3949 58.0763 48.8012 58.4648C49.2075 58.8532 49.7586 59.0714 50.3333 59.0714C50.9079 59.0714 51.459 58.8532 51.8653 58.4648C52.2716 58.0763 52.4999 57.5494 52.4999 57.0001V54.9287H54.6666C55.2412 54.9287 55.7923 54.7104 56.1987 54.322C56.605 53.9335 56.8333 53.4066 56.8333 52.8573C56.8333 52.3079 56.605 51.781 56.1987 51.3926C55.7923 51.0041 55.2412 50.7859 54.6666 50.7859Z" fill="#FBF6F7" fill-opacity="0.47"/>
<defs>
<filter id="filter0_d_56_2637" x="0" y="0" width="108" height="106" filterUnits="userSpaceOnUse" color-interpolation-filters="sRGB">
<feFlood flood-opacity="0" result="BackgroundImageFix"/>
<feColorMatrix in="SourceAlpha" type="matrix" values="0 0 0 0 0 0 0 0 0 0 0 0 0 0 0 0 0 0 127 0" result="hardAlpha"/>
<feOffset dx="4" dy="4"/>
<feGaussianBlur stdDeviation="2"/>
<feComposite in2="hardAlpha" operator="out"/>
<feColorMatrix type="matrix" values="0 0 0 0 0 0 0 0 0 0 0 0 0 0 0 0 0 0 0.3 0"/>
<feBlend mode="normal" in2="BackgroundImageFix" result="effect1_dropShadow_56_2637"/>
<feBlend mode="normal" in="SourceGraphic" in2="effect1_dropShadow_56_2637" result="shape"/>
</filter>
</defs>
</svg>
