<svg width="249" height="228" viewBox="0 0 249 228" fill="none" xmlns="http://www.w3.org/2000/svg">
<path opacity="0.8" d="M130.112 32.8918C133.318 33.8238 136.561 34.8156 139.832 35.8245C143.103 36.6852 146.39 37.5003 149.668 38.2527C152.923 38.8056 156.132 39.2958 159.257 39.7318C162.304 39.9969 165.202 40.2562 167.898 40.5384C170.441 40.7379 172.706 41.0257 174.636 41.4304C177.02 42.1458 179.588 44.6538 179.915 46.5205C180.039 47.9626 180.071 49.627 180.142 51.4966C180.565 53.4859 181.309 55.6605 182.517 57.9975C184.397 60.4257 186.906 62.985 190.068 65.6497C193.865 68.3743 198.136 71.1759 202.68 74.0373C207.277 76.9272 211.61 79.8541 215.351 82.8039C218.298 85.765 220.147 88.7376 220.72 91.7073C220.15 94.6827 218.373 97.6552 215.6 100.616C212.381 103.578 208.933 106.524 205.708 109.454C203.337 112.384 201.973 115.291 201.858 118.167C203.175 121.042 205.578 123.813 208.712 126.469C212.344 129.119 215.805 131.65 218.65 134.047C220.723 136.427 221.56 138.667 221.075 140.756C219.419 142.822 216.59 144.729 212.851 146.473C208.559 148.197 203.971 149.762 199.409 151.175C195.166 152.586 191.425 153.871 188.312 155.046C185.116 156.855 182.651 160.498 182.62 162.535C182.869 164.134 182.996 165.873 182.884 167.785C182.648 169.96 182.016 172.334 180.967 174.899C179.657 177.7 177.926 180.647 175.813 183.691C173.469 186.823 170.817 189.927 167.932 192.902C164.903 195.735 161.722 198.266 158.448 200.389C155.111 202.136 151.741 203.333 148.373 203.923C144.993 204.017 141.641 203.484 138.341 202.347C135.048 200.825 131.811 198.847 128.64 196.516C125.468 194.128 122.433 191.702 119.52 189.371C116.594 187.342 113.777 185.592 111.054 184.178C108.299 183.241 105.613 182.665 102.98 182.426C100.285 182.611 97.6111 183.018 94.9406 183.571C92.1829 184.341 89.4004 185.085 86.5867 185.723C83.6702 186.339 80.7134 186.706 77.7223 186.775C74.6627 186.655 71.6031 186.168 68.5684 185.307C65.5524 184.201 62.636 182.728 59.8721 180.921C57.2389 178.894 54.836 176.583 52.7133 174.038C50.7991 171.348 49.1962 168.483 47.917 165.499C46.8182 162.441 45.9872 159.312 45.3865 156.149C44.8138 152.968 44.3438 149.785 43.9143 146.621C43.326 143.466 42.6662 140.343 41.9129 137.265C40.9138 134.204 39.8182 131.188 38.6666 128.219C37.3811 125.266 36.1673 122.353 35.1121 119.489C34.1659 116.633 33.5341 113.815 33.2882 111.045C33.3069 108.277 33.7395 105.612 34.5394 103.062C35.5074 100.505 36.712 98.0542 38.0597 95.7144C39.342 93.3717 40.6213 91.1344 41.8382 89.0083C42.8218 86.8708 43.7026 84.8388 44.4839 82.9093C45.0535 80.9571 45.6106 79.0989 46.202 77.3233C46.7529 75.5079 47.4688 73.7551 48.4025 72.0594C49.4701 70.2924 50.8334 68.5539 52.5017 66.8296C54.3816 65.0085 56.5635 63.1759 59.0068 61.3263C61.6213 59.3569 64.435 57.3591 67.395 55.3299C70.4266 53.1895 73.5328 51.0321 76.6765 48.8746C79.7921 46.6516 82.9015 44.4657 85.9828 42.351C88.9926 40.2534 91.9713 38.2869 94.9188 36.4971C97.7885 34.8184 100.649 33.3763 103.512 32.2107C106.317 31.2246 109.152 30.5491 112.034 30.1957C114.886 30.0333 117.805 30.1758 120.812 30.6118C123.806 31.1647 126.903 31.9371 130.109 32.889" stroke="#9BFF6D" stroke-width="2" stroke-linecap="round" stroke-dasharray="2 4"/>
<path opacity="0.8" d="M137.27 36.6699C140.298 37.7885 143.317 38.9724 146.314 40.1719C149.312 41.2314 152.281 42.2549 155.19 43.2144C158.082 43.9872 160.88 44.691 163.545 45.3347C166.142 45.8056 168.551 46.2499 170.723 46.6904C173.646 47.2223 177.704 48.619 178.793 49.6322C179.466 50.9043 180.084 54.5728 180.611 57.0097C181.418 58.8419 182.59 60.8805 184.234 63.1125C186.485 65.478 189.279 68.0187 192.597 70.7075C196.373 73.4888 200.44 76.3832 204.596 79.3491C208.636 82.3475 212.278 85.3715 215.244 88.3805C217.399 91.3569 218.493 94.2847 218.403 97.1389C217.311 99.9368 215.172 102.667 212.202 105.329C208.912 107.976 205.48 110.597 202.315 113.21C199.956 115.877 198.531 118.573 198.236 121.303C199.245 124.117 201.251 126.883 203.945 129.578C207.136 132.295 210.241 134.885 212.862 137.311C214.853 139.686 215.784 141.855 215.544 143.802C214.236 145.669 211.818 147.318 208.49 148.763C204.538 150.164 200.17 151.405 195.679 152.511C191.326 153.65 187.3 154.715 183.755 155.734C180.816 156.864 178.481 158.008 176.711 159.19C175.539 160.549 174.769 161.993 174.262 163.549C174.05 165.324 173.856 167.243 173.552 169.314C173.238 171.614 172.64 174.064 171.717 176.647C170.615 179.404 169.136 182.234 167.309 185.093C165.282 187.979 162.951 190.771 160.363 193.387C157.65 195.828 154.763 197.947 151.754 199.653C148.703 200.99 145.594 201.806 142.48 202.047C139.373 201.843 136.291 201.064 133.255 199.731C130.241 198.059 127.276 195.97 124.364 193.559C121.455 191.093 118.647 188.592 115.922 186.17C113.168 184.009 110.467 182.091 107.809 180.474C105.087 179.278 102.38 178.411 99.6769 177.854C96.8875 177.69 94.0843 177.746 91.2569 177.955C88.3436 178.386 85.4015 178.828 82.4363 179.204C79.4043 179.597 76.3653 179.797 73.3359 179.753C70.3014 179.571 67.3254 179.076 64.443 178.258C61.6449 177.237 59.0092 175.889 56.5842 174.238C54.3362 172.396 52.3583 170.288 50.6847 167.957C49.2243 165.491 48.0764 162.857 47.2349 160.094C46.5427 157.255 46.088 154.331 45.818 151.359C45.5415 148.35 45.3291 145.319 45.1234 142.283C44.7348 139.23 44.2612 136.188 43.6798 133.167C42.8555 130.14 41.9388 127.137 40.9719 124.181C39.8864 121.222 38.8782 118.314 38.0342 115.462C37.3046 112.624 36.8851 109.851 36.8373 107.154C37.0629 104.471 37.6834 101.928 38.6559 99.5141C39.8116 97.1118 41.1951 94.8298 42.7227 92.663C44.2075 90.4847 45.6903 88.4121 47.1127 86.4355C48.3191 84.4279 49.4125 82.51 50.3904 80.6733C51.15 78.7939 51.8603 76.9884 52.5653 75.2512C53.1933 73.4604 53.9385 71.7286 54.8518 70.042C55.8603 68.293 57.1286 66.575 58.6697 64.8804C60.4076 63.1014 62.4416 61.3273 64.7469 59.5535C67.2407 57.6834 69.9629 55.8052 72.8699 53.919C75.8894 51.9486 79.0273 49.9801 82.2355 48.0305C85.4717 46.0426 88.7316 44.1106 91.9847 42.2668C95.2012 40.452 98.3878 38.7838 101.539 37.2933C104.628 35.9188 107.68 34.7791 110.702 33.906C113.664 33.2061 116.613 32.8025 119.556 32.7072C122.461 32.7865 125.381 33.1582 128.33 33.806C131.261 34.5613 134.238 35.5252 137.267 36.6668" stroke="#9BFF6D" stroke-width="2" stroke-linecap="round" stroke-dasharray="9 5"/>
<path opacity="0.59" d="M142.844 40.8191C145.662 42.1066 148.416 43.4461 151.101 44.7998C153.797 46.0282 156.414 47.2119 158.931 48.3364C161.441 49.2787 163.818 50.149 166.034 50.9437C169.18 51.8593 174.201 53.3611 175.962 54.0823C178.088 55.867 180.111 60.2522 181.217 62.5261C182.447 64.2691 184.04 66.2379 186.065 68.4269C188.6 70.7714 191.563 73.3155 194.902 76.0294C198.529 78.8527 202.274 81.7892 205.942 84.7934C209.363 87.8115 212.288 90.8256 214.488 93.7859C215.893 96.6686 216.295 99.4497 215.626 102.1C214.096 104.653 211.676 107.096 208.575 109.437C205.267 111.758 201.896 114.055 198.809 116.362C196.487 118.772 195.014 121.258 194.561 123.833C195.279 126.56 196.905 129.293 199.178 131.989C201.941 134.749 204.683 137.382 207.062 139.842C208.94 142.228 209.928 144.368 209.892 146.246C208.91 147.995 206.893 149.484 203.993 150.736C200.434 151.908 196.378 152.907 192.074 153.781C187.747 154.686 183.58 155.546 179.74 156.406C176.347 157.407 173.45 158.473 171.047 159.631C169.186 160.995 167.734 162.491 166.6 164.125C165.805 165.991 165.128 168.004 164.451 170.159C163.859 172.52 163.104 174.995 162.125 177.559C161.054 180.25 159.691 182.957 158.032 185.631C156.24 188.286 154.172 190.797 151.867 193.091C149.47 195.189 146.9 196.942 144.203 198.284C141.484 199.272 138.705 199.76 135.902 199.709C133.13 199.257 130.369 198.273 127.638 196.784C124.948 194.998 122.285 192.827 119.65 190.357C117.025 187.84 114.455 185.278 111.931 182.779C109.363 180.505 106.801 178.439 104.231 176.625C101.58 175.19 98.9 174.044 96.1807 173.172C93.3639 172.665 90.5056 172.366 87.6043 172.222C84.6239 172.303 81.6163 172.419 78.6008 172.505C75.5452 172.646 72.5177 172.647 69.5481 172.457C66.6136 172.182 63.7938 171.654 61.1256 170.858C58.5845 169.912 56.257 168.682 54.1898 167.193C52.3162 165.55 50.7403 163.67 49.4816 161.589C48.4275 159.386 47.6717 157.022 47.1996 154.531C46.8468 151.961 46.6942 149.295 46.6902 146.563C46.6444 143.776 46.6347 140.94 46.6038 138.077C46.3756 135.169 46.0555 132.246 45.6226 129.32C44.9617 126.364 44.2146 123.417 43.4248 120.502C42.539 117.577 41.7338 114.701 41.0946 111.889C40.5748 109.098 40.36 106.387 40.5076 103.773C40.9167 101.195 41.7102 98.7733 42.8389 96.502C44.1533 94.2491 45.6923 92.1291 47.3763 90.1286C49.0369 88.1164 50.702 86.197 52.3157 84.3658C53.7321 82.4889 55.0346 80.6778 56.2144 78.9284C57.174 77.1187 58.0566 75.3595 58.9028 73.6531C59.6463 71.8787 60.4581 70.1506 61.3892 68.4639C62.3775 66.7126 63.5806 64.9951 65.0184 63.3051C66.6295 61.5514 68.5175 59.8163 70.6665 58.1008C73.0083 56.3183 75.5931 54.5501 78.3769 52.7962C81.3067 50.9922 84.3858 49.2191 87.5653 47.4879C90.8121 45.7481 94.1105 44.0813 97.4235 42.5229C100.735 41.0132 104.024 39.6531 107.277 38.4784C110.487 37.4219 113.646 36.5975 116.746 36.0275C119.795 35.6208 122.795 35.4955 125.744 35.6572C128.652 35.9805 131.528 36.5731 134.376 37.4241C137.204 38.3674 140.026 39.5086 142.841 40.8158" stroke="#9BFF6D" stroke-width="2" stroke-linecap="round"/>
<path opacity="0.3" d="M146.813 45.0846C149.388 46.5093 151.855 47.9767 154.216 49.4466C156.592 50.8 158.854 52.1105 160.989 53.3494C163.128 54.423 165.118 55.4119 166.933 56.3197C169.529 57.4014 173.601 59.1378 175.045 59.9173C176.261 60.6753 178.045 62.7052 178.923 64.1342C179.758 65.2574 180.753 66.5928 181.986 68.1499C183.61 69.8741 185.567 71.833 187.883 74.0229C190.588 76.3738 193.596 78.9299 196.824 81.6576C200.187 84.476 203.516 87.3984 206.631 90.3634C209.403 93.3132 211.612 96.2195 213.085 99.0307C213.803 101.725 213.6 104.277 212.446 106.656C210.57 108.916 207.949 111.036 204.788 113.044C201.513 115.038 198.234 117.019 195.252 119.036C192.983 121.193 191.481 123.472 190.886 125.885C191.341 128.505 192.611 131.18 194.483 133.856C196.822 136.625 199.201 139.285 201.313 141.776C203.049 144.187 204.047 146.339 204.167 148.202C203.465 149.906 201.825 151.321 199.346 152.469C196.207 153.504 192.513 154.349 188.479 155.057C184.291 155.784 180.117 156.476 176.116 157.182C172.404 158.035 169.06 158.981 166.121 160.053C163.629 161.343 161.519 162.791 159.733 164.405C158.295 166.25 157.036 168.25 155.87 170.388C154.853 172.715 153.779 175.136 152.584 177.612C151.386 180.181 149.989 182.728 148.382 185.198C146.706 187.62 144.814 189.863 142.73 191.855C140.603 193.647 138.325 195.082 135.935 196.107C133.557 196.803 131.118 197.02 128.651 196.733C126.235 196.083 123.818 194.943 121.418 193.34C119.07 191.476 116.731 189.259 114.393 186.753C112.064 184.21 109.755 181.611 107.451 179.053C105.099 176.69 102.71 174.495 100.276 172.509C97.7539 170.856 95.1616 169.448 92.5057 168.285C89.75 167.451 86.9304 166.81 84.062 166.321C81.1218 166.058 78.1593 165.849 75.2054 165.644C72.2409 165.524 69.3298 165.313 66.5111 164.966C63.7637 164.586 61.1702 164.012 58.7684 163.231C56.5239 162.349 54.5234 161.242 52.8088 159.919C51.2933 158.482 50.083 156.842 49.1874 155.027C48.4752 153.109 48.0432 151.042 47.8641 148.847C47.7704 146.572 47.8419 144.19 48.0283 141.726C48.1457 139.189 48.2739 136.579 48.3638 133.915C48.2565 131.183 48.0539 128.409 47.7431 125.608C47.2212 122.757 46.6311 119.898 46.0113 117.056C45.3132 114.196 44.7058 111.383 44.2648 108.635C43.9502 105.918 43.9298 103.29 44.2555 100.775C44.8393 98.3125 45.785 96.0178 47.0486 93.8877C48.5021 91.7891 50.1715 89.8291 51.988 87.9884C53.8004 86.1381 55.6279 84.3725 57.4159 82.6806C59.0289 80.934 60.5349 79.2363 61.9206 77.5762C63.0914 75.8417 64.1666 74.135 65.1832 72.4606C66.0747 70.7091 66.9914 68.9859 67.9863 67.2955C68.9963 65.5411 70.1743 63.8168 71.55 62.1314C73.0598 60.3907 74.8131 58.6833 76.8126 57.0127C78.9897 55.3041 81.4037 53.6304 84.0233 52.003C86.8001 50.357 89.7391 48.7662 92.8045 47.2468C95.9613 45.7455 99.1873 44.3422 102.451 43.063C105.734 41.8517 109.014 40.8003 112.254 39.9361C115.474 39.1963 118.635 38.6811 121.721 38.4074C124.763 38.2886 127.731 38.4321 130.616 38.839C133.459 39.3923 136.232 40.194 138.934 41.2268C141.614 42.3426 144.239 43.6398 146.81 45.084" stroke="#9BFF6D" stroke-width="2" stroke-linecap="round" stroke-dasharray="4 10"/>
<path opacity="0.9" d="M149.346 49.251C151.654 50.7833 153.828 52.3422 155.87 53.8959C157.934 55.3425 159.864 56.7389 161.656 58.06C164.297 59.7697 168.802 62.5227 170.625 63.6118C173.593 65.3519 177.281 68.3629 178.662 69.8451C179.867 71.0045 181.251 72.3775 182.867 73.9756C184.813 75.7322 187.033 77.7277 189.517 79.9446C192.269 82.3095 195.193 84.8658 198.196 87.5706C201.197 90.3369 204.04 93.1775 206.564 96.0279C208.687 98.8198 210.22 101.535 211.03 104.115C211.145 106.546 210.432 108.801 208.896 110.869C206.766 112.796 204.029 114.583 200.871 116.258C197.677 117.933 194.526 119.616 191.672 121.357C189.467 123.274 187.951 125.352 187.236 127.601C187.447 130.099 188.387 132.69 189.873 135.325C191.809 138.076 193.82 140.743 195.652 143.258C197.212 145.702 198.166 147.887 198.39 149.78C197.909 151.495 196.596 152.9 194.506 154.025C191.779 155.005 188.476 155.775 184.765 156.393C180.804 156.998 176.735 157.559 172.7 158.132C168.81 158.833 165.157 159.635 161.8 160.566C158.78 161.714 156.088 163.032 153.693 164.518C151.62 166.235 149.759 168.11 148.042 170.117C146.515 172.299 145.021 174.564 143.499 176.864C142.045 179.237 140.491 181.567 138.811 183.792C137.135 185.955 135.319 187.915 133.375 189.616C131.438 191.117 129.393 192.265 127.271 193.011C125.195 193.457 123.071 193.451 120.931 192.976C118.859 192.18 116.785 190.929 114.717 189.253C112.712 187.347 110.697 185.112 108.665 182.603C106.647 180.061 104.618 177.452 102.563 174.862C100.456 172.437 98.2859 170.14 96.0453 168.014C93.7116 166.173 91.2886 164.542 88.7831 163.12C86.1801 161.996 83.5059 161.046 80.7819 160.244C77.9967 159.665 75.1959 159.156 72.4201 158.681C69.649 158.313 66.9568 157.902 64.3842 157.409C61.8958 156.927 59.5896 156.309 57.5016 155.544C55.5699 154.726 53.9036 153.735 52.5257 152.58C50.8923 150.645 49.3153 145.88 49.2549 143.101C49.3335 141.122 49.5511 139.032 49.8559 136.84C50.0654 134.56 50.2717 132.188 50.4352 129.736C50.402 127.199 50.284 124.592 50.0691 121.933C49.6694 119.212 49.2154 116.469 48.7525 113.723C48.2298 110.961 47.8083 108.238 47.5571 105.581C47.4336 102.961 47.594 100.437 48.0878 98.0368C48.8276 95.6991 49.9052 93.543 51.2866 91.5535C52.8542 89.6105 54.6337 87.8068 56.5633 86.123C58.5052 84.4306 60.4734 82.8194 62.4156 81.2695C64.2123 79.6573 65.9109 78.0784 67.4962 76.5199C68.8826 74.873 70.1689 73.2351 71.377 71.6092C72.4404 69.8973 73.5034 68.1973 74.6017 66.5184C75.6824 64.7726 76.8836 63.0558 78.235 61.3759C79.6812 59.6529 81.3341 57.9728 83.1971 56.3456C85.2111 54.702 87.4464 53.1171 89.8797 51.6026C92.4562 50.0964 95.2047 48.6715 98.0836 47.3464C101.059 46.0647 104.122 44.9043 107.236 43.8819C110.384 42.9457 113.536 42.1798 116.66 41.6052C119.774 41.1583 122.832 40.9252 125.804 40.9245C128.745 41.07 131.591 41.4572 134.335 42.0843C137.043 42.8445 139.652 43.8274 142.157 45.0144C144.641 46.2788 147.04 47.6987 149.343 49.2502" stroke="#9BFF6D" stroke-width="2" stroke-linecap="round" stroke-dasharray="6 9"/>
<path opacity="0.75" d="M150.763 53.1872C152.797 54.7954 154.682 56.4176 156.428 58.0231C158.202 59.5348 159.841 60.9922 161.343 62.3726C163.588 64.1979 167.456 67.2077 169.092 68.436C170.686 69.4773 173.554 71.5095 174.986 72.6598C176.103 73.5037 177.287 74.4857 178.584 75.6395C180.12 76.901 181.827 78.372 183.734 80.0561C185.898 81.8844 188.256 83.9328 190.774 86.1841C193.448 88.549 196.169 91.072 198.846 93.711C201.42 96.3696 203.737 99.0634 205.669 101.725C207.173 104.287 208.085 106.739 208.31 109.025C207.922 111.139 206.805 113.061 204.984 114.786C202.694 116.374 199.92 117.823 196.824 119.18C193.752 120.553 190.755 121.954 188.044 123.443C185.924 125.137 184.406 127.015 183.587 129.102C183.58 131.465 184.214 133.957 185.338 136.525C186.882 139.234 188.529 141.888 190.063 144.418C191.411 146.889 192.281 149.116 192.547 151.061C192.227 152.824 191.179 154.275 189.43 155.435C187.087 156.428 184.174 157.19 180.816 157.78C177.143 158.322 173.264 158.798 169.309 159.264C165.372 159.826 161.551 160.47 157.915 161.234C154.503 162.189 151.345 163.306 148.436 164.585C145.797 166.077 143.372 167.72 141.119 169.49C139.069 171.423 137.114 173.425 135.209 175.458C133.42 177.549 131.617 179.584 129.78 181.507C128.005 183.366 126.172 185.023 124.282 186.417C122.446 187.627 120.563 188.499 118.647 188.992C116.806 189.216 114.954 189.021 113.1 188.387C111.335 187.479 109.573 186.154 107.821 184.437C106.136 182.524 104.442 180.302 102.72 177.82C101.013 175.308 99.2775 172.719 97.4996 170.128C95.6728 167.675 93.765 165.316 91.775 163.088C89.6909 161.111 87.5125 159.302 85.2454 157.672C82.8846 156.309 80.4575 155.103 77.9832 154.038C75.4525 153.189 72.9228 152.428 70.4287 151.718C67.9439 151.142 65.5531 150.555 63.2971 149.938C61.1301 149.372 59.153 148.721 57.3997 147.975C55.1217 146.786 52.1643 143.721 51.4892 141.836C51.2333 139.724 51.7057 134.76 52.2 131.92C52.4456 129.889 52.6792 127.748 52.868 125.504C52.871 123.161 52.8031 120.73 52.6608 118.228C52.3556 115.653 52.0231 113.039 51.6996 110.418C51.3385 107.776 51.0906 105.166 51.0147 102.623C51.0673 100.123 51.3924 97.7213 52.0341 95.4473C52.9106 93.2494 54.105 91.2345 55.585 89.3918C57.2443 87.6064 59.1136 85.9586 61.1305 84.4303C63.1751 82.8993 65.2625 81.4434 67.3393 80.0385C69.301 78.5737 71.1804 77.1236 72.96 75.6824C74.5558 74.1459 76.0553 72.6013 77.4645 71.0505C78.7291 69.4055 79.9642 67.7596 81.2029 66.121C82.391 64.4107 83.656 62.7233 85.0302 61.0696C86.4548 59.3813 88.0422 57.7418 89.8027 56.1666C91.6736 54.5892 93.7359 53.0884 95.9744 51.6773C98.337 50.2959 100.857 49.0189 103.503 47.8637C106.243 46.7734 109.069 45.8216 111.953 45.0256C114.876 44.3282 117.811 43.8105 120.725 43.4833C123.632 43.2876 126.489 43.2997 129.263 43.5295C132.005 43.9008 134.653 44.4922 137.189 45.304C139.687 46.2338 142.077 47.3607 144.346 48.6718C146.592 50.048 148.733 51.5619 150.76 53.1862" stroke="#9BFF6D" stroke-width="2" stroke-linecap="round" stroke-dasharray="9 3"/>
<path opacity="0.54" d="M151.477 56.8753C153.235 58.5282 154.852 60.1889 156.337 61.8264C157.854 63.3862 159.248 64.8894 160.526 66.3228C162.47 68.2558 165.946 71.5516 167.517 72.9589C169.157 74.2131 172.441 76.7174 174.225 78.1219C175.598 79.1347 177.063 80.2857 178.641 81.5957C180.427 83.004 182.353 84.6047 184.423 86.399C186.676 88.309 189.034 90.4065 191.458 92.6686C193.934 95.0053 196.358 97.4549 198.636 99.9725C200.739 102.471 202.52 104.95 203.881 107.361C204.818 109.641 205.185 111.777 204.92 113.731C204.133 115.498 202.715 117.07 200.71 118.447C198.347 119.698 195.603 120.829 192.618 121.887C189.705 122.98 186.884 124.129 184.332 125.39C182.308 126.875 180.803 128.567 179.895 130.497C179.693 132.714 180.043 135.09 180.826 137.572C181.999 140.213 183.287 142.835 184.515 145.357C185.625 147.84 186.364 150.107 186.613 152.114C186.386 153.942 185.537 155.468 184.069 156.703C182.068 157.754 179.52 158.563 176.518 159.176C173.168 159.707 169.548 160.14 165.764 160.533C161.902 160.979 158.047 161.475 154.274 162.06C150.629 162.795 147.149 163.667 143.857 164.682C140.777 165.878 137.883 167.211 135.167 168.66C132.645 170.249 130.252 171.9 127.964 173.576C125.821 175.303 123.736 176.975 121.692 178.535C119.757 180.041 117.836 181.35 115.932 182.418C113.226 183.618 108.058 183.985 105.617 183.035C104.103 182.039 102.613 180.662 101.146 178.932C99.7507 177.035 98.35 174.851 96.9328 172.422C95.5255 169.967 94.0909 167.428 92.6109 164.87C91.0803 162.43 89.4745 160.052 87.7841 157.776C86.004 155.711 84.1313 153.786 82.1788 152.009C80.1353 150.472 78.0325 149.077 75.8952 147.815C73.7031 146.761 71.5207 145.798 69.3861 144.912C67.2581 144.172 65.2273 143.457 63.3402 142.748C60.709 141.782 56.6653 139.655 55.3483 138.418C54.4659 137.054 53.9813 133.729 54.2399 131.738C54.4486 130.287 54.7436 128.708 55.0847 127.008C55.3139 125.202 55.5277 123.268 55.7057 121.219C55.7187 119.061 55.6769 116.8 55.5828 114.457C55.3557 112.038 55.1264 109.568 54.9284 107.083C54.7116 104.581 54.6185 102.105 54.6983 99.6932C54.9111 97.3305 55.3835 95.0717 56.1581 92.9344C57.1498 90.8897 58.4393 89.024 59.9968 87.3282C61.7288 85.7012 63.6619 84.2134 65.7436 82.84C67.8701 81.4726 70.0512 80.1745 72.2401 78.9234C74.3385 77.6132 76.3746 76.3116 78.3311 75.0054C80.126 73.6044 81.828 72.1838 83.4455 70.7409C84.9166 69.2002 86.3381 67.6421 87.7388 66.0848C89.0691 64.4485 90.435 62.83 91.869 61.2396C93.3111 59.6118 94.8727 58.0396 96.5613 56.5354C98.321 55.0324 100.234 53.6206 102.293 52.3131C104.438 51.047 106.721 49.9034 109.117 48.8971C111.586 47.9647 114.139 47.1887 116.739 46.5792C119.375 46.0781 122.027 45.7588 124.662 45.6354C127.289 45.6372 129.871 45.8422 132.378 46.2567C134.854 46.8025 137.237 47.5507 139.508 48.4995C141.745 49.5529 143.868 50.7878 145.872 52.1828C147.852 53.6336 149.721 55.2045 151.474 56.8742" stroke="#9BFF6D" stroke-width="2" stroke-linecap="round" stroke-dasharray="6 3"/>
<path opacity="0.25" d="M151.908 60.4105C153.404 62.0862 154.777 63.7624 156.034 65.4239C157.33 67.0138 158.529 68.559 159.639 70.0444C161.364 72.0949 164.618 75.7302 166.208 77.3614C167.938 78.8803 171.647 81.9823 173.723 83.7007C175.291 84.9169 176.946 86.2629 178.702 87.7557C180.621 89.3258 182.635 91.059 184.733 92.9566C186.939 94.9297 189.169 97.0476 191.381 99.2862C193.568 101.548 195.619 103.876 197.457 106.221C199.073 108.5 200.337 110.721 201.169 112.836C201.606 114.793 201.517 116.587 200.863 118.187C199.778 119.601 198.159 120.823 196.059 121.87C193.698 122.803 191.042 123.641 188.215 124.429C185.485 125.279 182.861 126.203 180.471 127.262C178.549 128.554 177.069 130.075 176.089 131.844C175.713 133.911 175.805 136.161 176.274 138.538C177.095 141.087 178.033 143.647 178.947 146.139C179.805 148.613 180.375 150.904 180.554 152.963C180.36 154.858 179.643 156.469 178.392 157.798C176.678 158.934 174.46 159.822 171.798 160.497C168.785 161.059 165.464 161.491 161.922 161.846C158.234 162.204 154.47 162.57 150.702 162.986C146.972 163.501 143.331 164.115 139.813 164.838C136.44 165.701 133.216 166.676 130.155 167.747C127.262 168.931 124.514 170.172 121.9 171.428C119.441 172.725 117.091 173.975 114.838 175.128C112.721 176.227 110.687 177.157 108.727 177.871C106.018 178.595 101.133 178.266 98.9521 177.111C97.6324 176.03 96.3668 174.617 95.1437 172.885C93.9972 171.023 92.8622 168.894 91.7276 166.542C90.6062 164.168 89.4667 161.71 88.2919 159.222C87.0709 156.831 85.7815 154.484 84.4243 152.21C82.979 150.116 81.4562 148.136 79.8706 146.287C78.1962 144.643 76.4702 143.13 74.726 141.743C72.9255 140.548 71.1425 139.456 69.4095 138.454C66.8534 137.198 62.4334 135.024 60.7051 134.007C58.5148 131.912 57.5033 128.009 57.7858 126.313C58.0987 124.367 58.7775 119.663 59.0041 116.907C59.0022 114.919 58.9679 112.818 58.9072 110.63C58.7458 108.366 58.6016 106.049 58.511 103.706C58.4222 101.355 58.4662 99.0303 58.6894 96.7616C59.0359 94.5537 59.6367 92.4483 60.5205 90.4629C61.6098 88.5788 62.972 86.868 64.5891 85.3248C66.3679 83.8612 68.3443 82.5306 70.4688 81.315C72.6469 80.1162 74.8941 78.9804 77.1649 77.8887C79.3718 76.7493 81.5382 75.6126 83.6437 74.4654C85.613 73.2251 87.5023 71.9584 89.3105 70.6614C90.98 69.2638 92.5931 67.8416 94.1677 66.4069C95.6488 64.8905 97.1395 63.3821 98.6613 61.8988C100.154 60.3751 101.727 58.9009 103.38 57.4951C105.062 56.0939 106.858 54.7877 108.756 53.5901C110.71 52.4361 112.77 51.4151 114.916 50.5406C117.111 49.7477 119.371 49.1134 121.671 48.6575C123.995 48.3042 126.326 48.1386 128.643 48.1664C130.951 48.3164 133.211 48.6627 135.407 49.2075C137.569 49.8712 139.647 50.7264 141.624 51.765C143.563 52.8981 145.399 54.1943 147.119 55.6339C148.821 57.1227 150.419 58.7222 151.905 60.4091" stroke="#9BFF6D" stroke-width="2" stroke-linecap="round" stroke-dasharray="2 5"/>
<path opacity="0.22" d="M152.411 63.9772C153.663 65.6505 154.82 67.3354 155.885 69.0081C156.991 70.6269 158.032 72.2115 159.016 73.7563C160.577 75.932 163.7 79.953 165.326 81.8427C166.524 83.046 167.748 84.2645 169.015 85.5176C170.411 86.7584 171.865 88.066 173.39 89.4621C175.051 90.8861 176.785 92.4271 178.59 94.0899C180.509 95.8016 182.477 97.6435 184.467 99.609C186.504 101.608 188.498 103.701 190.403 105.864C192.227 108.006 193.861 110.16 195.242 112.282C196.388 114.302 197.173 116.231 197.539 118.021C197.33 120.358 194.008 123.85 191.022 125.037C188.73 125.689 186.208 126.269 183.564 126.828C181.043 127.465 178.618 128.198 176.398 129.081C174.587 130.204 173.137 131.562 172.1 133.181C171.57 135.093 171.434 137.199 171.613 139.455C172.104 141.891 172.71 144.36 173.314 146.797C173.903 149.233 174.278 151.521 174.345 153.61C174.131 155.557 173.485 157.243 172.388 158.665C170.904 159.896 168.966 160.878 166.616 161.635C163.939 162.252 160.937 162.712 157.682 163.062C154.249 163.367 150.674 163.636 147.034 163.905C143.364 164.221 139.717 164.59 136.134 165.027C132.632 165.558 129.241 166.164 125.983 166.839C122.857 167.595 119.875 168.393 117.035 169.203C114.344 170.038 111.792 170.837 109.379 171.547C107.109 172.215 104.967 172.741 102.952 173.081C100.204 173.307 95.4953 172.259 93.5127 170.901C92.3382 169.738 91.2478 168.294 90.2314 166.572C89.2899 164.742 88.3874 162.684 87.5124 160.427C86.6481 158.149 85.7853 155.794 84.9088 153.412C83.9885 151.108 83.0207 148.831 82.0069 146.614C80.9081 144.548 79.7556 142.575 78.5499 140.717C77.2617 139.036 75.9438 137.473 74.611 136.034C72.5343 134.183 68.567 131.193 66.8125 129.975C62.9339 126.547 61.705 122.675 61.9443 121.189C62.1701 119.454 62.6378 115.179 62.7864 112.635C62.7598 110.791 62.7234 108.835 62.6924 106.79C62.5794 104.677 62.5116 102.51 62.5191 100.319C62.5379 98.1274 62.7023 95.9597 63.0478 93.8497C63.5108 91.8044 64.2173 89.8597 65.1946 88.0348C66.3534 86.315 67.7705 84.7651 69.4242 83.3792C71.2251 82.0786 73.2186 80.9098 75.3593 79.8532C77.5602 78.8214 79.8405 77.8559 82.1591 76.9362C84.4388 75.977 86.7029 75.0189 88.9218 74.0516C91.0315 72.9972 93.0756 71.9151 95.048 70.7982C96.8943 69.5812 98.6821 68.3371 100.419 67.0703C102.056 65.7251 103.678 64.3747 105.3 63.0449C106.866 61.6688 108.472 60.3361 110.118 59.0674C111.76 57.7996 113.467 56.6197 115.243 55.5513C117.032 54.5238 118.895 53.6299 120.813 52.8794C122.752 52.2052 124.734 51.6977 126.743 51.3604C128.751 51.1242 130.763 51.0754 132.754 51.2105C134.726 51.4591 136.659 51.8975 138.528 52.5286C140.361 53.2602 142.122 54.172 143.79 55.2598C145.423 56.4251 146.965 57.7434 148.41 59.1974C149.83 60.6915 151.164 62.2903 152.408 63.9757" stroke="#9BFF6D" stroke-width="2" stroke-linecap="round" stroke-dasharray="10 1"/>
<path opacity="0.38" d="M153.211 67.8005C154.243 69.4589 155.203 71.1395 156.105 72.8199C157.047 74.4602 157.954 76.0871 158.835 77.6931C159.783 79.2347 160.725 80.7546 161.674 82.2575C162.712 83.6969 163.773 85.1309 164.867 86.5688C166.071 87.9646 167.318 89.3852 168.618 90.8493C170.034 92.2993 171.508 93.8166 173.041 95.4093C174.684 97.0154 176.37 98.7151 178.097 100.505C179.891 102.316 181.687 104.217 183.455 106.195C185.22 108.163 186.895 110.18 188.432 112.211C189.856 114.179 191.059 116.116 191.991 117.979C192.88 120.518 192.351 124.613 190.845 126.082C189.437 126.843 187.676 127.447 185.604 127.918C183.424 128.332 181.072 128.696 178.636 129.067C176.326 129.527 174.106 130.101 172.055 130.835C170.355 131.809 168.942 133.019 167.857 134.489C167.2 136.244 166.859 138.201 166.777 140.312C166.967 142.609 167.262 144.963 167.567 147.31C167.891 149.676 168.051 151.929 167.976 154.016C167.697 155.984 167.071 157.724 166.073 159.22C164.76 160.536 163.059 161.609 160.987 162.456C158.621 163.143 155.941 163.655 153.005 164.023C149.872 164.31 146.571 164.516 143.157 164.677C139.674 164.832 136.156 164.991 132.656 165.172C129.187 165.396 125.787 165.659 122.49 165.957C119.284 166.305 116.211 166.672 113.275 167.039C110.469 167.419 107.815 167.764 105.316 168.037C102.959 168.271 100.761 168.389 98.7211 168.355C95.9569 168.077 91.3897 166.311 89.5611 164.749C88.4994 163.503 87.5525 162.022 86.7086 160.317C85.9391 158.525 85.2338 156.542 84.5829 154.39C83.9449 152.222 83.3368 149.993 82.7379 147.739C82.0959 145.547 81.4355 143.378 80.7507 141.264C79.9855 139.269 79.1875 137.358 78.3619 135.548C76.9892 133.112 74.1133 129.021 72.7007 127.351C70.1077 124.831 67.3072 121.854 66.8584 120.96C66.5056 118.928 66.7461 114.85 66.9354 113C66.965 111.622 67.0107 110.113 67.0615 108.487C67.0112 106.762 66.9747 104.932 66.9642 103.018C66.9021 101.047 66.9011 99.0292 66.9946 96.99C67.1112 94.9558 67.3799 92.9534 67.8273 91.0077C68.3861 89.13 69.1775 87.3525 70.2222 85.6926C71.4322 84.1443 72.8786 82.7588 74.5425 81.5305C76.3461 80.3928 78.3296 79.3871 80.4581 78.4897C82.6485 77.6304 84.9304 76.84 87.2638 76.0914C89.5759 75.3213 91.8886 74.5551 94.1826 73.7834C96.3862 72.9367 98.5453 72.0635 100.643 71.156C102.628 70.1582 104.558 69.1273 106.434 68.0734C108.209 66.9377 109.951 65.7943 111.669 64.6625C113.318 63.4811 114.967 62.3345 116.629 61.243C118.252 60.1427 119.902 59.1243 121.582 58.2117C123.245 57.326 124.945 56.5677 126.67 55.9506C129.252 55.1999 134.44 54.6515 136.983 54.8867C139.444 55.4452 144.051 57.5988 146.152 59.1635C147.492 60.3286 148.753 61.639 149.934 63.079C151.091 64.5527 152.184 66.1313 153.208 67.7989" stroke="#9BFF6D" stroke-width="2" stroke-linecap="round" stroke-dasharray="8 3"/>
<path opacity="0.36" d="M154.36 72.0805C155.197 73.7131 155.986 75.3795 156.739 77.0668C157.534 78.7187 158.315 80.3796 159.095 82.0426C160.853 85.2127 162.705 88.4 164.707 91.6289C167.096 94.718 169.69 97.9821 172.462 101.46C175.541 104.914 178.645 108.628 181.575 112.502C184.369 116.207 186.538 119.831 187.757 123.124C188.19 125.842 187.291 127.956 184.986 129.363C181.936 130.235 177.92 130.713 173.408 131.096C171.316 131.42 169.293 131.864 167.406 132.478C165.813 133.321 164.444 134.394 163.326 135.72C162.557 137.317 162.041 139.112 161.731 141.068C161.652 143.207 161.661 145.418 161.688 147.64C161.792 152.155 161.178 156.157 159.501 159.378C156.865 161.953 152.924 163.631 147.903 164.565C142.146 165.06 135.796 165.186 129.242 165.149C122.672 165.107 116.332 165.073 110.448 165.009C104.988 164.938 100.141 164.649 95.9882 163.954C92.3846 162.972 89.4558 161.352 87.1997 158.995C86.2395 157.666 85.4134 156.154 84.7155 154.469C84.0842 152.712 83.5479 150.805 83.0927 148.766C82.6517 146.712 82.2601 144.618 81.907 142.509C81.5119 140.45 81.1233 138.414 80.7348 136.431C79.7279 132.761 78.6692 129.432 77.6102 126.526C76.2546 124.115 75.0341 122.086 74.0783 120.406C72.6204 118.412 71.5354 114.659 71.7248 112.191C71.6341 110.103 71.6733 107.559 71.7989 104.565C71.6055 101.233 71.6097 97.5879 71.9473 93.8167C72.1515 91.9436 72.5063 90.1019 73.041 88.3218C73.6752 86.6193 74.532 85.0115 75.6241 83.5198C76.8609 82.1409 78.3146 80.9198 79.9691 79.8477C81.7473 78.8756 83.693 78.0267 85.7833 77.2904C90.1247 75.9394 94.7464 74.7882 99.422 73.6977C103.841 72.3775 108.102 70.9374 112.148 69.3939C115.806 67.5475 119.328 65.6928 122.745 63.9693C125.926 62.1781 129.114 60.7221 132.291 59.736C135.322 58.9466 138.326 58.7657 141.211 59.2547C143.919 60.0479 146.446 61.5155 148.709 63.6313C150.283 65.4118 153.095 69.6687 154.358 72.0786" stroke="#9BFF6D" stroke-width="2" stroke-linecap="round" stroke-dasharray="7 8"/>
<path opacity="0.94" d="M155.761 76.9461C157.098 80.1224 158.364 83.4666 159.64 86.9035C161.156 90.181 162.799 93.5521 164.599 97.0044C166.729 100.331 169.025 103.817 171.419 107.451C174.021 110.985 176.538 114.647 178.767 118.305C180.802 121.684 182.18 124.834 182.647 127.549C182.465 129.681 181.147 131.204 178.676 132.083C175.708 132.538 171.99 132.697 167.895 132.844C164.29 133.439 161.061 134.679 158.495 136.79C157.056 139.912 156.236 143.67 155.691 147.716C155.347 151.973 154.464 155.839 152.766 159.044C150.358 161.692 146.875 163.49 142.46 164.523C137.395 165.056 131.73 165.091 125.799 164.803C119.768 164.37 113.866 163.796 108.334 163.1C103.132 162.332 98.5035 161.35 94.5674 160.043C91.1196 158.499 88.3754 156.478 86.3517 153.907C84.7122 151.046 83.6285 147.665 83.0154 143.842C82.4524 139.971 82.1204 136.085 81.9001 132.354C81.4121 128.906 80.9385 125.779 80.4955 123.038C79.7352 120.682 79.0845 118.689 78.6221 117.02C77.7282 114.937 77.0213 110.981 77.1 108.453C76.9148 106.358 76.8639 103.862 76.9454 100.981C76.7818 97.8165 76.873 94.4057 77.3508 90.9189C77.9639 87.5256 79.2573 84.3641 81.3761 81.6123C83.986 79.3015 87.3526 77.5704 91.31 76.3379C95.5119 75.3249 100.018 74.5368 104.619 73.8467C109.036 72.9869 113.358 72.0454 117.485 71.0209C121.265 69.7174 124.876 68.3973 128.31 67.1735C131.465 65.8473 134.52 64.8023 137.458 64.1633C140.184 63.6492 142.799 63.6782 145.242 64.3072C147.479 65.17 149.526 66.6531 151.331 68.7369C152.984 70.9874 154.453 73.7433 155.759 76.9441" stroke="#9BFF6D" stroke-width="2" stroke-linecap="round" stroke-dasharray="9 10"/>
<path opacity="0.24" d="M157.177 82.4014C158.198 85.4867 159.184 88.7942 160.203 92.2388C161.434 95.5619 162.785 99.0149 164.265 102.566C166.013 105.991 167.863 109.538 169.736 113.151C171.737 116.606 173.57 120.062 175.056 123.375C176.345 126.342 176.993 128.976 176.822 131.109C176.161 132.699 174.561 133.715 172.042 134.166C169.223 134.308 165.828 134.24 162.144 134.231C158.906 134.678 155.923 135.742 153.398 137.602C151.771 140.39 150.596 143.771 149.63 147.455C148.884 151.39 147.742 155.038 145.993 158.134C143.753 160.784 140.659 162.653 136.808 163.769C132.424 164.373 127.499 164.395 122.299 163.974C116.966 163.304 111.687 162.372 106.71 161.227C101.979 159.95 97.7549 158.444 94.1795 156.669C91.0164 154.696 88.5364 152.363 86.7746 149.642C85.3469 146.704 84.499 143.402 84.1648 139.802C83.8752 136.161 83.8778 132.57 84.0472 129.155C83.9759 125.947 83.9667 123.031 84.0024 120.467C83.7197 118.184 83.5151 116.218 83.435 114.536C82.9854 112.308 82.5882 107.963 82.6098 105.281C82.3935 103.127 82.3161 100.64 82.4028 97.84C82.3122 94.8226 82.5153 91.6319 83.1232 88.4212C83.8748 85.3377 85.269 82.506 87.4162 80.0877C89.9784 78.0943 93.2174 76.6675 96.9907 75.7288C100.988 75.0308 105.293 74.5901 109.719 74.2833C114.03 73.8713 118.285 73.4217 122.379 72.9229C126.177 72.1814 129.79 71.4256 133.188 70.7386C136.293 69.9262 139.223 69.3363 141.956 69.0807C144.443 68.888 146.747 69.1516 148.836 69.9443C150.7 70.892 152.357 72.3956 153.784 74.4516C155.062 76.6245 156.184 79.2854 157.177 82.4014Z" stroke="#9BFF6D" stroke-width="2" stroke-linecap="round" stroke-dasharray="6 5"/>
<path opacity="0.8" d="M158.302 88.296C159.037 91.2775 159.739 94.4948 160.467 97.8697C161.373 101.148 162.361 104.567 163.43 108.068C164.713 111.441 166.027 114.879 167.293 118.303C168.643 121.525 169.77 124.637 170.537 127.507C171.148 131.061 168.587 135.121 165.227 135.545C162.602 135.473 159.537 135.269 156.24 135.164C153.335 135.516 150.581 136.429 148.119 138.05C146.353 140.504 144.901 143.491 143.598 146.769C142.512 150.329 141.146 153.681 139.343 156.591C137.226 159.159 134.464 161.037 131.124 162.204C127.384 162.89 123.196 162.957 118.767 162.512C114.215 161.754 109.68 160.639 105.389 159.238C101.277 157.657 97.5999 155.828 94.4974 153.758C91.7353 151.514 89.6012 148.993 88.1338 146.206C86.954 143.256 86.3354 140.063 86.2339 136.686C86.1763 133.283 86.4335 129.974 86.8903 126.852C87.1333 123.873 87.4665 121.161 87.8524 118.746C87.9306 116.526 88.0641 114.568 88.2575 112.841C88.1637 111.197 88.165 109.649 88.271 108.113C88.1081 106.471 88.0574 104.682 88.1226 102.69C87.9454 100.454 87.9082 97.9558 88.0521 95.2331C88.0809 92.3541 88.4148 89.3759 89.1526 86.4444C90.0316 83.6581 91.4947 81.1477 93.6329 79.0502C96.114 77.3621 99.1848 76.2188 102.722 75.5528C106.46 75.1407 110.49 75.0119 114.652 75.0597C118.75 75.059 122.822 75.0735 126.764 75.0744C130.466 74.8815 133.985 74.6808 137.269 74.533C140.278 74.2523 143.066 74.1442 145.606 74.2967C147.889 74.4568 149.939 74.9932 151.739 75.9669C153.314 77.0335 154.663 78.5788 155.784 80.6149C156.767 82.7258 157.596 85.2937 158.302 88.296Z" stroke="#9BFF6D" stroke-width="2" stroke-linecap="round" stroke-dasharray="8 10"/>
<path opacity="0.2" d="M158.832 94.36C159.305 97.2131 159.727 100.281 160.136 103.497C160.695 106.635 161.284 109.893 161.899 113.196C162.677 116.37 163.427 119.546 164.077 122.634C164.785 125.498 165.256 128.174 165.383 130.543C165.154 133.359 161.695 136.141 158.409 136.181C155.995 135.984 153.245 135.714 150.306 135.565C147.698 135.858 145.155 136.641 142.773 138.033C140.919 140.159 139.267 142.745 137.721 145.593C136.373 148.734 134.831 151.733 132.993 154.381C130.977 156.789 128.506 158.607 125.619 159.786C122.466 160.545 118.972 160.691 115.304 160.296C111.539 159.574 107.79 158.436 104.24 156.959C100.829 155.275 97.7812 153.32 95.2286 151.13C92.9444 148.785 91.2085 146.218 90.0683 143.458C89.1592 140.579 88.7715 137.538 88.8676 134.392C89.0027 131.223 89.4514 128.178 90.1013 125.319C90.572 122.548 91.1435 120.01 91.7613 117.717C92.1049 115.535 92.4778 113.565 92.8774 111.765C92.9972 109.992 93.159 108.282 93.3761 106.566C93.3373 104.739 93.3734 102.787 93.5017 100.674C93.4307 98.3671 93.4979 95.8742 93.7547 93.2359C93.9387 90.5017 94.4206 87.741 95.2845 85.0806C96.2744 82.5899 97.7861 80.3882 99.882 78.5983C102.252 77.1889 105.118 76.3063 108.377 75.8862C111.81 75.7228 115.505 75.8657 119.327 76.2153C123.116 76.5711 126.904 76.9926 130.58 77.4404C134.075 77.7453 137.394 78.0605 140.484 78.4191C143.331 78.6541 145.935 79.0163 148.266 79.5742C150.357 80.1058 152.186 80.9297 153.74 82.101C155.087 83.3182 156.193 84.928 157.059 86.9519C157.805 89.0211 158.385 91.4952 158.832 94.36Z" stroke="#9BFF6D" stroke-width="2" stroke-linecap="round"/>
<path opacity="0.29" d="M158.528 100.222C158.761 102.911 158.908 105.773 159.003 108.744C159.217 111.652 159.409 114.635 159.572 117.616C159.862 120.473 160.078 123.27 160.164 125.911C160.3 128.344 160.208 130.534 159.813 132.389C158.925 134.516 154.897 136.261 151.764 136.058C149.564 135.809 147.106 135.53 144.493 135.377C142.145 135.637 139.799 136.307 137.517 137.481C135.626 139.285 133.854 141.468 132.157 143.878C130.629 146.573 128.975 149.174 127.139 151.502C125.218 153.687 123.001 155.38 120.517 156.521C117.878 157.323 115.015 157.554 112.047 157.26C109.027 156.659 106.035 155.618 103.225 154.209C100.519 152.593 98.1203 150.686 96.1353 148.541C94.359 146.258 93.0473 143.778 92.2442 141.143C91.6231 138.421 91.4584 135.582 91.7223 132.678C92.0199 129.754 92.6046 126.959 93.3778 124.326C94.0048 121.745 94.7309 119.349 95.5021 117.142C96.0339 114.993 96.5849 112.992 97.1354 111.111C97.4385 109.218 97.7558 107.353 98.0947 105.477C98.2144 103.489 98.386 101.405 98.6339 99.2124C98.7246 96.8692 98.9512 94.41 99.3554 91.8854C99.7182 89.3167 100.359 86.7877 101.34 84.4041C102.428 82.1968 103.959 80.2949 105.979 78.7945C108.218 77.6427 110.853 76.9898 113.803 76.7795C116.896 76.8192 120.209 77.1807 123.629 77.7747C127.038 78.4139 130.455 79.1662 133.776 79.9817C136.963 80.7024 139.994 81.4583 142.803 82.2624C145.416 82.9556 147.789 83.7463 149.879 84.6801C151.765 85.5683 153.38 86.6717 154.703 88.0371C155.855 89.4154 156.753 91.1013 157.402 93.1149C157.951 95.1509 158.321 97.5218 158.528 100.222Z" stroke="#9BFF6D" stroke-width="2" stroke-linecap="round" stroke-dasharray="8 6"/>
<path opacity="0.43" d="M157.266 105.475C157.282 107.967 157.176 110.57 156.987 113.226C156.886 115.834 156.718 118.455 156.48 121.025C156.343 123.481 156.1 125.826 155.723 127.98C155.127 130.799 152.729 134.552 150.755 135.343C149.299 135.558 147.53 135.487 145.48 135.194C143.484 134.95 141.291 134.7 138.966 134.568C136.845 134.807 134.685 135.379 132.53 136.346C130.648 137.841 128.838 139.635 127.074 141.609C125.453 143.855 123.756 146.033 121.963 148.006C120.151 149.915 118.167 151.426 116.044 152.48C113.842 153.284 111.527 153.583 109.177 153.401C106.813 152.96 104.511 152.092 102.371 150.854C100.328 149.429 98.5384 147.701 97.0953 145.732C95.8109 143.643 94.9096 141.363 94.425 138.943C94.084 136.454 94.124 133.863 94.5343 131.216C94.9658 128.556 95.6483 125.995 96.4963 123.568C97.2295 121.165 98.0516 118.893 98.9124 116.757C99.5834 114.639 100.269 112.617 100.942 110.669C101.412 108.683 101.882 106.71 102.363 104.719C102.665 102.632 103.008 100.481 103.415 98.2601C103.708 95.9442 104.123 93.5721 104.697 91.2005C105.253 88.8272 106.044 86.544 107.124 84.4447C108.293 82.518 109.824 80.8978 111.743 79.6676C113.825 78.7452 116.214 78.2889 118.836 78.2515C121.567 78.4507 124.468 78.9706 127.448 79.7368C130.432 80.577 133.413 81.5663 136.311 82.6522C139.119 83.6918 141.784 84.7872 144.247 85.9323C146.558 86.9979 148.641 88.1408 150.456 89.3843C152.105 90.58 153.491 91.9274 154.591 93.4593C155.555 94.9835 156.262 96.7334 156.716 98.722C157.093 100.722 157.271 102.975 157.266 105.475Z" stroke="#9BFF6D" stroke-width="2" stroke-linecap="round" stroke-dasharray="6 2"/>
<path opacity="0.8" d="M155.065 109.752C154.893 112.014 154.574 114.315 154.143 116.611C153.785 118.868 153.323 121.083 152.771 123.198C152.294 125.223 151.705 127.101 150.987 128.764C149.897 130.919 146.813 133.551 144.727 133.981C142.437 134.001 136.947 133.341 133.906 133.143C131.987 133.367 130.011 133.844 128.002 134.617C126.177 135.823 124.396 137.249 122.651 138.805C121.014 140.611 119.344 142.367 117.644 143.969C115.959 145.565 114.199 146.852 112.391 147.777C109.64 148.699 104.215 148.175 101.795 146.825C100.316 145.652 99.061 144.189 98.0889 142.48C97.2425 140.675 96.7048 138.676 96.506 136.532C96.4111 134.342 96.6322 132.039 97.154 129.665C97.696 127.284 98.4456 124.966 99.3307 122.732C100.134 120.508 101.021 118.365 101.939 116.302C102.715 114.241 103.5 112.226 104.282 110.251C104.904 108.239 105.529 106.217 106.161 104.186C106.654 102.083 107.187 99.9401 107.775 97.7752C108.281 95.5536 108.89 93.3291 109.634 91.1543C110.371 89.0123 111.3 86.9977 112.458 85.1828C113.681 83.5372 115.179 82.1849 116.979 81.2022C118.891 80.4823 121.015 80.1911 123.301 80.286C125.666 80.591 128.144 81.2076 130.669 82.0765C133.203 83.0343 135.723 84.1651 138.161 85.4107C140.541 86.65 142.789 87.9666 144.856 89.3421C146.817 90.6666 148.569 92.0567 150.077 93.5184C151.461 94.939 152.598 96.463 153.468 98.104C154.235 99.7299 154.755 101.508 155.028 103.442C155.245 105.377 155.255 107.485 155.065 109.752Z" stroke="#9BFF6D" stroke-width="2" stroke-linecap="round" stroke-dasharray="8 10"/>
<path opacity="0.42" d="M152.075 112.786C151.454 116.784 150.262 120.642 148.673 124.044C147.335 127.186 145.504 129.588 143.165 130.973C140.955 131.961 138.099 132.046 134.678 131.486C131.492 131.346 127.911 131.495 124.115 132.334C120.782 134.537 117.496 137.127 114.324 139.514C111.271 142.04 108.185 143.462 105.352 143.559C102.655 143.124 100.481 141.397 99.2048 138.657C98.3019 135.625 98.4028 131.892 99.5732 127.738C100.812 123.565 102.61 119.474 104.611 115.576C106.202 111.646 107.857 107.709 109.505 103.798C110.774 99.7149 112.239 95.5846 114.041 91.7047C115.825 88.0327 118.273 85.0789 121.509 83.3393C125.043 82.4878 129.066 83.0759 133.199 84.7432C137.37 86.8025 141.342 89.4647 144.713 92.4233C147.807 95.3027 150.132 98.4313 151.481 101.781C152.547 105.089 152.749 108.774 152.075 112.786Z" stroke="#9BFF6D" stroke-width="2" stroke-linecap="round" stroke-dasharray="10 10"/>
<path opacity="0.17" d="M148.544 114.468C147.688 117.908 146.27 121.024 144.468 123.605C142.86 126.019 140.828 127.73 138.436 128.6C136.187 129.283 133.494 129.29 130.444 128.834C127.57 128.809 124.392 128.973 121.027 129.578C117.932 131.222 114.92 133.086 112.104 134.785C109.41 136.706 106.878 137.814 104.722 137.912C102.727 137.701 101.274 136.427 100.597 134.251C100.191 131.877 100.613 128.814 101.894 125.262C103.23 121.701 105.037 118.056 107.037 114.468C108.768 110.849 110.598 107.16 112.449 103.512C114.047 99.786 115.817 96.1108 117.816 92.7787C119.808 89.6911 122.252 87.2965 125.191 85.99C128.313 85.3993 131.658 86.0578 134.952 87.6669C138.281 89.658 141.362 92.2529 143.905 95.1569C146.275 98.0718 147.977 101.201 148.848 104.427C149.531 107.632 149.442 111.019 148.544 114.468Z" stroke="#9BFF6D" stroke-width="2" stroke-linecap="round" stroke-dasharray="10 6"/>
<path opacity="0.07" d="M144.762 114.861C143.765 117.726 142.264 120.166 140.431 122.069C138.734 123.879 136.698 125.079 134.413 125.623C132.254 126.125 129.794 126.138 127.118 125.822C124.557 125.892 121.77 126.054 118.861 126.451C116.086 127.611 113.438 128.858 111.04 129.956C105.442 131.606 102.669 126.375 104.29 122.223C105.645 119.276 107.411 116.145 109.365 112.979C111.158 109.8 113.083 106.532 115.05 103.322C116.863 100.111 118.815 97.0093 120.9 94.2893C122.977 91.8072 125.326 89.9518 127.927 89.0233C130.629 88.6485 133.34 89.306 135.887 90.7617C138.449 92.5529 140.725 94.9033 142.523 97.5468C144.22 100.263 145.352 103.164 145.79 106.09C146.123 109.021 145.794 111.994 144.762 114.861Z" stroke="#9BFF6D" stroke-width="2" stroke-linecap="round"/>
<path opacity="0.11" d="M141.001 114.195C139.955 116.482 138.498 118.343 136.777 119.721C135.141 121.067 133.247 121.922 131.187 122.292C129.212 122.702 127.036 122.764 124.741 122.591C122.507 122.721 120.128 122.869 117.687 123.097C115.302 123.846 113.084 124.585 111.134 125.192C106.807 126.085 105.336 122.043 106.948 118.771C108.245 116.431 109.902 113.868 111.748 111.234C113.502 108.605 115.413 105.895 117.375 103.263C119.245 100.673 121.225 98.2229 123.264 96.14C125.288 94.2614 127.442 92.91 129.673 92.302C131.943 92.0942 134.081 92.6958 135.978 93.9297C137.879 95.4294 139.477 97.4034 140.653 99.6383C141.774 101.967 142.425 104.454 142.526 106.935C142.566 109.433 142.069 111.906 141.001 114.195Z" stroke="#9BFF6D" stroke-width="2" stroke-linecap="round" stroke-dasharray="10 11"/>
<path opacity="0.6" d="M137.456 112.822C135.495 116.292 132.325 118.304 128.769 118.855C125.393 119.662 121.445 119.796 117.529 119.655C112.097 121.135 107.628 119.732 110.01 115.211C112.325 111.678 115.798 107.391 119.467 103.401C122.939 99.627 126.788 96.622 130.435 95.6731C134.104 95.7784 136.921 98.111 138.363 101.489C139.681 105.199 139.474 109.348 137.456 112.822Z" stroke="#9BFF6D" stroke-width="2" stroke-linecap="round" stroke-dasharray="4 8"/>
<path opacity="0.51" d="M134.214 111.146C132.507 113.595 129.927 115.038 127.111 115.529C124.363 116.234 121.26 116.446 118.346 116.278C114.302 116.86 111.465 115.149 113.523 111.938C115.431 109.459 118.302 106.496 121.352 103.825C124.302 101.332 127.479 99.4568 130.275 99.0024C133.04 99.1572 134.925 100.803 135.694 103.165C136.397 105.763 135.953 108.699 134.214 111.146Z" stroke="#9BFF6D" stroke-width="2" stroke-linecap="round" stroke-dasharray="3 11"/>
<path opacity="0.29" d="M131.241 109.56C128.714 112.613 123.863 113.719 120.049 113.092C116.078 113.696 114.746 112.445 117.42 109.367C120.162 106.294 125.492 102.681 129.311 102.166C132.985 102.758 133.833 106.51 131.241 109.56Z" stroke="#9BFF6D" stroke-width="2" stroke-linecap="round" stroke-dasharray="7 8"/>
</svg>
