<svg width="273" height="266" viewBox="0 0 273 266" fill="none" xmlns="http://www.w3.org/2000/svg">
<path opacity="0.8" d="M142.653 38.3738C146.168 39.4611 149.724 40.6182 153.31 41.7953C156.897 42.7994 160.5 43.7504 164.094 44.6282C167.663 45.2732 171.181 45.8451 174.608 46.3538C177.948 46.6631 181.125 46.9656 184.081 47.2948C186.869 47.5276 189.353 47.8634 191.469 48.3355C194.083 49.1701 196.898 52.0961 197.256 54.274C197.393 55.9564 197.427 57.8982 197.505 60.0794C197.97 62.4003 198.785 64.9372 200.109 67.6637C202.17 70.4966 204.921 73.4825 208.388 76.5914C212.551 79.7701 217.233 83.0385 222.215 86.3768C227.256 89.7484 232.006 93.1632 236.108 96.6045C239.339 100.059 241.366 103.527 241.994 106.992C241.37 110.463 239.421 113.931 236.381 117.386C232.852 120.84 229.071 124.279 225.536 127.697C222.935 131.115 221.441 134.506 221.314 137.861C222.758 141.216 225.392 144.448 228.829 147.547C232.811 150.639 236.606 153.592 239.725 156.388C241.998 159.164 242.916 161.778 242.383 164.215C240.568 166.626 237.466 168.85 233.367 170.885C228.662 172.897 223.631 174.722 218.629 176.371C213.978 178.017 209.876 179.517 206.463 180.887C202.959 182.998 200.256 187.247 200.222 189.625C200.495 191.49 200.635 193.518 200.512 195.749C200.252 198.286 199.56 201.056 198.41 204.049C196.973 207.317 195.076 210.755 192.759 214.306C190.189 217.96 187.282 221.581 184.118 225.053C180.798 228.358 177.31 231.31 173.72 233.787C170.062 235.826 166.366 237.222 162.674 237.91C158.968 238.02 155.293 237.398 151.676 236.072C148.065 234.296 144.516 231.989 141.039 229.269C137.561 226.482 134.234 223.653 131.04 220.933C127.832 218.566 124.744 216.524 121.758 214.875C118.738 213.781 115.793 213.109 112.906 212.83C109.951 213.046 107.02 213.521 104.092 214.167C101.068 215.064 98.0174 215.932 94.9325 216.677C91.735 217.395 88.4931 217.824 85.2137 217.904C81.8592 217.764 78.5047 217.196 75.1775 216.191C71.8708 214.901 68.6733 213.182 65.643 211.074C62.756 208.71 60.1216 206.014 57.7942 203.044C55.6956 199.906 53.9381 196.564 52.5356 193.083C51.331 189.515 50.4198 185.864 49.7612 182.173C49.1333 178.463 48.618 174.749 48.1471 171.058C47.5021 167.377 46.7787 163.733 45.9529 160.142C44.8575 156.571 43.6563 153.053 42.3936 149.588C40.9843 146.144 39.6534 142.746 38.4966 139.404C37.4592 136.072 36.7664 132.784 36.4968 129.552C36.5173 126.323 36.9916 123.215 37.8687 120.239C38.9299 117.256 40.2506 114.397 41.7282 111.667C43.1341 108.934 44.5367 106.324 45.871 103.843C46.9493 101.349 47.9151 98.9786 48.7716 96.7276C49.3961 94.4499 50.0069 92.282 50.6553 90.2106C51.2593 88.0925 52.0442 86.0477 53.0679 84.0693C54.2384 82.0078 55.7331 79.9795 57.5622 77.9679C59.6233 75.8432 62.0155 73.7053 64.6943 71.5473C67.5608 69.2498 70.6457 66.9189 73.891 64.5515C77.2148 62.0545 80.6205 59.5375 84.0671 57.0204C87.483 54.4269 90.8921 51.8767 94.2705 49.4095C97.5703 46.9623 100.836 44.6681 104.068 42.58C107.214 40.6215 110.35 38.9391 113.49 37.5792C116.564 36.4287 119.673 35.6407 122.833 35.2284C125.959 35.0389 129.16 35.2051 132.456 35.7138C135.739 36.3589 139.135 37.26 142.649 38.3705" stroke="#6BBB4E" stroke-opacity="0.58" stroke-width="2" stroke-linecap="round" stroke-dasharray="2 4"/>
<path opacity="0.8" d="M150.501 42.7816C153.821 44.0867 157.131 45.4678 160.417 46.8672C163.703 48.1034 166.959 49.2974 170.149 50.4169C173.319 51.3184 176.387 52.1395 179.309 52.8906C182.156 53.4399 184.797 53.9583 187.179 54.4721C190.384 55.0927 194.832 56.7222 196.026 57.9043C196.764 59.3884 197.442 63.6683 198.019 66.5113C198.904 68.6489 200.189 71.0273 201.992 73.6313C204.46 76.3911 207.522 79.3551 211.161 82.4921C215.301 85.737 219.76 89.1138 224.316 92.574C228.746 96.0721 232.739 99.6002 235.991 103.111C238.353 106.583 239.552 109.999 239.455 113.329C238.257 116.593 235.912 119.778 232.655 122.884C229.048 125.972 225.286 129.03 221.815 132.078C219.229 135.19 217.667 138.336 217.343 141.52C218.45 144.803 220.648 148.031 223.602 151.174C227.101 154.345 230.505 157.366 233.379 160.197C235.562 162.967 236.583 165.497 236.319 167.769C234.885 169.947 232.235 171.871 228.585 173.557C224.252 175.192 219.464 176.639 214.54 177.93C209.767 179.258 205.353 180.501 201.466 181.69C198.244 183.008 195.684 184.342 193.743 185.722C192.458 187.307 191.614 188.992 191.059 190.807C190.827 192.878 190.613 195.116 190.28 197.533C189.935 200.216 189.28 203.075 188.268 206.088C187.06 209.305 185.438 212.607 183.435 215.942C181.213 219.309 178.658 222.567 175.82 225.618C172.845 228.466 169.68 230.939 166.381 232.928C163.035 234.488 159.628 235.44 156.213 235.722C152.806 235.484 149.427 234.575 146.098 233.019C142.795 231.068 139.544 228.631 136.351 225.818C133.162 222.942 130.083 220.024 127.096 217.198C124.076 214.677 121.115 212.44 118.2 210.553C115.216 209.157 112.248 208.147 109.284 207.496C106.226 207.305 103.153 207.371 100.053 207.614C96.8588 208.117 93.6331 208.632 90.3821 209.072C87.0579 209.53 83.726 209.764 80.4045 209.712C77.0776 209.499 73.8148 208.922 70.6545 207.967C67.5867 206.776 64.697 205.204 62.0383 203.278C59.5736 201.128 57.405 198.669 55.5701 195.95C53.9689 193.073 52.7104 190 51.7878 186.776C51.0289 183.464 50.5304 180.053 50.2343 176.586C49.9312 173.075 49.6983 169.539 49.4727 165.997C49.0468 162.434 48.5274 158.885 47.89 155.362C46.9863 151.83 45.9813 148.327 44.9211 144.877C43.731 141.426 42.6257 138.033 41.7003 134.706C40.9003 131.394 40.4404 128.159 40.388 125.013C40.6353 121.883 41.3156 118.916 42.3819 116.1C43.649 113.297 45.1659 110.635 46.8407 108.107C48.4686 105.566 50.0943 103.147 51.6538 100.842C52.9765 98.4992 54.1753 96.2618 55.2474 94.1189C56.0803 91.9263 56.859 89.8199 57.632 87.7931C58.3205 85.7039 59.1375 83.6834 60.1388 81.7157C61.2446 79.6752 62.6351 77.6709 64.3247 75.6939C66.2301 73.6184 68.4601 71.5485 70.9877 69.4792C73.7219 67.2974 76.7065 65.1061 79.8936 62.9055C83.2041 60.6067 86.6445 58.3102 90.1619 56.0356C93.71 53.7165 97.2841 51.4625 100.851 49.3113C104.377 47.194 107.871 45.2478 111.326 43.5089C114.712 41.9053 118.059 40.5756 121.372 39.557C124.62 38.7405 127.853 38.2697 131.08 38.1584C134.265 38.251 137.466 38.6846 140.699 39.4404C143.913 40.3215 147.177 41.4462 150.498 42.778" stroke="#6BBB4E" stroke-opacity="0.58" stroke-width="2" stroke-linecap="round" stroke-dasharray="9 5"/>
<path opacity="0.59" d="M156.612 47.6222C159.702 49.1243 162.721 50.6871 165.665 52.2665C168.621 53.6995 171.491 55.0805 174.25 56.3924C177.002 57.4918 179.608 58.5072 182.037 59.4343C185.487 60.5025 190.991 62.2546 192.923 63.0961C195.253 65.1781 197.471 70.2942 198.684 72.9471C200.032 74.9806 201.779 77.2776 203.999 79.8314C206.778 82.5667 210.027 85.5348 213.688 88.701C217.665 91.9948 221.77 95.4207 225.792 98.9256C229.543 102.447 232.749 105.963 235.162 109.417C236.702 112.78 237.143 116.025 236.409 119.117C234.731 122.095 232.079 124.946 228.679 127.676C225.051 130.385 221.356 133.064 217.972 135.756C215.425 138.567 213.81 141.467 213.314 144.472C214.101 147.653 215.884 150.842 218.376 153.987C221.405 157.207 224.411 160.28 227.019 163.149C229.078 165.932 230.162 168.43 230.122 170.621C229.046 172.661 226.835 174.397 223.655 175.858C219.754 177.226 215.306 178.391 210.588 179.411C205.843 180.467 201.274 181.471 197.064 182.474C193.344 183.641 190.168 184.885 187.534 186.236C185.493 187.828 183.901 189.572 182.658 191.479C181.786 193.656 181.044 196.005 180.302 198.518C179.653 201.273 178.825 204.161 177.752 207.152C176.577 210.291 175.083 213.45 173.264 216.57C171.299 219.666 169.032 222.597 166.505 225.273C163.877 227.721 161.059 229.766 158.102 231.331C155.121 232.484 152.074 233.053 149.001 232.994C145.962 232.466 142.934 231.319 139.941 229.582C136.991 227.498 134.072 224.965 131.183 222.083C128.305 219.146 125.487 216.157 122.72 213.242C119.904 210.589 117.095 208.179 114.277 206.063C111.371 204.388 108.433 203.051 105.451 202.034C102.363 201.443 99.229 201.093 96.0481 200.925C92.7805 201.021 89.483 201.156 86.1768 201.256C82.8267 201.42 79.5074 201.421 76.2516 201.199C73.0343 200.879 69.9426 200.263 67.0173 199.334C64.2312 198.23 61.6793 196.796 59.4129 195.058C57.3587 193.142 55.631 190.949 54.251 188.521C53.0952 185.95 52.2666 183.192 51.749 180.286C51.3622 177.287 51.1948 174.178 51.1905 170.99C51.1403 167.739 51.1296 164.43 51.0957 161.09C50.8456 157.697 50.4946 154.287 50.02 150.873C49.2954 147.425 48.4763 143.987 47.6103 140.586C46.6392 137.174 45.7564 133.817 45.0556 130.537C44.4856 127.281 44.2502 124.118 44.412 121.068C44.8605 118.06 45.7305 115.236 46.9679 112.586C48.409 109.957 50.0964 107.484 51.9427 105.15C53.7633 102.802 55.5889 100.563 57.3582 98.4268C58.9112 96.237 60.3392 94.124 61.6327 92.0831C62.6848 89.9718 63.6525 87.9194 64.5802 85.9286C65.3954 83.8585 66.2854 81.8423 67.3063 79.8745C68.3898 77.8314 69.7089 75.8276 71.2852 73.856C73.0516 71.8099 75.1216 69.7857 77.4778 67.7843C80.0453 65.7046 82.8792 63.6417 85.9313 61.5955C89.1435 59.4909 92.5194 57.4223 96.0053 55.4025C99.5651 53.3728 103.181 51.4281 106.814 49.61C110.445 47.8487 114.05 46.2619 117.617 44.8915C121.137 43.6588 124.6 42.6971 127.998 42.0321C131.342 41.5576 134.631 41.4114 137.864 41.6C141.052 41.9773 144.205 42.6686 147.328 43.6614C150.428 44.7619 153.522 46.0933 156.609 47.6185" stroke="#6BBB4E" stroke-opacity="0.58" stroke-width="2" stroke-linecap="round"/>
<path opacity="0.3" d="M160.964 52.5987C163.787 54.2608 166.492 55.9728 169.081 57.6878C171.686 59.2666 174.165 60.7955 176.506 62.241C178.852 63.4935 181.033 64.6472 183.023 65.7063C185.869 66.9683 190.333 68.9941 191.917 69.9035C193.25 70.7879 195.207 73.1561 196.169 74.8232C197.084 76.1336 198.175 77.6916 199.527 79.5082C201.307 81.5198 203.453 83.8052 205.992 86.3601C208.958 89.1028 212.256 92.0849 215.795 95.2672C219.482 98.5553 223.132 101.965 226.547 105.424C229.586 108.865 232.008 112.256 233.624 115.536C234.411 118.68 234.188 121.656 232.923 124.432C230.866 127.069 227.993 129.542 224.527 131.885C220.936 134.211 217.341 136.523 214.072 138.876C211.584 141.392 209.937 144.05 209.285 146.866C209.784 149.922 211.176 153.043 213.228 156.166C215.793 159.396 218.401 162.499 220.717 165.405C222.62 168.218 223.714 170.729 223.846 172.902C223.076 174.89 221.278 176.541 218.561 177.88C215.118 179.088 211.069 180.074 206.646 180.9C202.054 181.748 197.478 182.556 193.091 183.379C189.022 184.374 185.355 185.477 182.133 186.728C179.4 188.234 177.087 189.923 175.13 191.806C173.552 193.958 172.172 196.292 170.893 198.785C169.778 201.501 168.601 204.325 167.29 207.214C165.977 210.211 164.446 213.182 162.684 216.065C160.846 218.89 158.772 221.507 156.487 223.831C154.155 225.921 151.657 227.595 149.038 228.792C146.43 229.603 143.756 229.856 141.052 229.522C138.402 228.763 135.753 227.434 133.121 225.563C130.547 223.389 127.983 220.802 125.419 217.878C122.866 214.912 120.333 211.879 117.808 208.895C115.229 206.139 112.61 203.577 109.941 201.261C107.176 199.332 104.334 197.69 101.422 196.332C98.4007 195.36 95.3093 194.611 92.1645 194.042C88.9408 193.734 85.6928 193.49 82.4542 193.251C79.204 193.112 76.0123 192.866 72.9219 192.46C69.9097 192.017 67.0662 191.347 64.4329 190.436C61.9721 189.408 59.7787 188.115 57.8989 186.573C56.2373 184.895 54.9103 182.982 53.9284 180.865C53.1476 178.627 52.674 176.216 52.4775 173.654C52.3748 171.001 52.4533 168.222 52.6577 165.347C52.7863 162.388 52.9268 159.343 53.0255 156.235C52.9078 153.047 52.6857 149.811 52.3449 146.543C51.7727 143.216 51.1257 139.88 50.4463 136.565C49.6808 133.229 49.0149 129.947 48.5313 126.741C48.1865 123.571 48.164 120.505 48.5212 117.57C49.1612 114.698 50.198 112.021 51.5834 109.536C53.1771 107.087 55.0074 104.801 56.999 102.653C58.9861 100.494 60.9898 98.4345 62.95 96.4608C64.7185 94.423 66.3696 92.4424 67.889 90.5055C69.1726 88.482 70.3514 86.4909 71.4661 84.5374C72.4435 82.494 73.4485 80.4836 74.5393 78.5115C75.6466 76.4646 76.9381 74.4529 78.4465 72.4866C80.1017 70.4558 82.0241 68.4639 84.2163 66.5148C86.6032 64.5214 89.2499 62.5688 92.122 60.6702C95.1665 58.7498 98.3887 56.8938 101.75 55.1213C105.211 53.3697 108.748 51.7326 112.326 50.2402C115.925 48.827 119.522 47.6003 123.074 46.5921C126.604 45.7291 130.07 45.1279 133.453 44.8087C136.789 44.6701 140.043 44.8375 143.205 45.3121C146.323 45.9577 149.363 46.893 152.326 48.0979C155.264 49.3996 158.141 50.9132 160.96 52.598" stroke="#6BBB4E" stroke-opacity="0.58" stroke-width="2" stroke-linecap="round" stroke-dasharray="4 10"/>
<path opacity="0.9" d="M163.741 57.4595C166.272 59.2472 168.655 61.0659 170.894 62.8786C173.156 64.5662 175.272 66.1953 177.237 67.7367C180.133 69.7313 185.072 72.9432 187.071 74.2138C190.326 76.2439 194.369 79.7568 195.883 81.486C197.204 82.8386 198.721 84.4404 200.493 86.3048C202.627 88.3542 205.061 90.6823 207.784 93.2687C210.801 96.0278 214.007 99.0101 217.3 102.166C220.589 105.393 223.707 108.707 226.474 112.033C228.802 115.29 230.482 118.457 231.37 121.467C231.497 124.303 230.714 126.935 229.031 129.347C226.696 131.595 223.695 133.68 220.232 135.635C216.731 137.589 213.276 139.552 210.146 141.583C207.73 143.819 206.067 146.244 205.283 148.868C205.514 151.783 206.545 154.805 208.174 157.879C210.297 161.088 212.501 164.2 214.51 167.135C216.22 169.985 217.267 172.534 217.512 174.743C216.985 176.744 215.545 178.383 213.254 179.696C210.264 180.839 206.643 181.738 202.573 182.458C198.231 183.164 193.77 183.818 189.346 184.487C185.082 185.305 181.076 186.241 177.396 187.327C174.084 188.666 171.132 190.204 168.506 191.938C166.234 193.941 164.194 196.128 162.311 198.47C160.637 201.016 158.999 203.658 157.331 206.341C155.736 209.11 154.032 211.828 152.191 214.424C150.353 216.948 148.362 219.235 146.23 221.219C144.107 222.97 141.865 224.31 139.538 225.179C137.262 225.7 134.934 225.693 132.587 225.138C130.315 224.21 128.042 222.751 125.774 220.795C123.576 218.571 121.366 215.964 119.139 213.036C116.926 210.072 114.702 207.027 112.449 204.006C110.139 201.176 107.759 198.497 105.303 196.017C102.744 193.868 100.088 191.965 97.3406 190.307C94.4868 188.996 91.5548 187.888 88.5683 186.951C85.5146 186.276 82.4438 185.682 79.4005 185.127C76.3623 184.699 73.4106 184.219 70.59 183.644C67.8618 183.081 65.3333 182.36 63.0441 181.468C60.9262 180.514 59.0993 179.358 57.5885 178.01C55.7977 175.753 54.0688 170.193 54.0025 166.952C54.0887 164.643 54.3273 162.204 54.6615 159.646C54.8911 156.987 55.1173 154.219 55.2966 151.358C55.2602 148.398 55.1308 145.357 54.8952 142.255C54.4569 139.081 53.9592 135.88 53.4517 132.677C52.8786 129.455 52.4165 126.278 52.1411 123.178C52.0056 120.121 52.1815 117.176 52.7229 114.376C53.534 111.649 54.7155 109.133 56.23 106.812C57.9487 104.546 59.8998 102.441 62.0153 100.477C64.1444 98.5024 66.3022 96.6226 68.4317 94.8144C70.4016 92.9335 72.2639 91.0915 74.002 89.2732C75.522 87.3518 76.9323 85.441 78.2568 83.544C79.4228 81.5469 80.5882 79.5635 81.7924 77.6049C82.9773 75.5681 84.2942 73.5651 85.7759 71.6052C87.3614 69.595 89.1737 67.6349 91.2162 65.7365C93.4244 63.819 95.8751 61.97 98.5429 60.203C101.368 58.4458 104.381 56.7834 107.538 55.2374C110.8 53.7421 114.158 52.3883 117.572 51.1955C121.023 50.1033 124.48 49.2097 127.905 48.5394C131.318 48.018 134.671 47.7461 137.929 47.7452C141.155 47.915 144.275 48.3667 147.283 49.0984C150.253 49.9852 153.113 51.132 155.859 52.5168C158.583 53.9919 161.213 55.6485 163.737 57.4585" stroke="#6BBB4E" stroke-opacity="0.58" stroke-width="2" stroke-linecap="round" stroke-dasharray="6 9"/>
<path opacity="0.75" d="M165.294 62.0517C167.524 63.928 169.591 65.8205 171.505 67.6936C173.45 69.4572 175.248 71.1575 176.894 72.7681C179.355 74.8975 183.596 78.409 185.39 79.8419C187.138 81.0568 190.283 83.4277 191.852 84.7698C193.076 85.7543 194.375 86.9 195.797 88.2461C197.481 89.7178 199.353 91.434 201.444 93.3987C203.816 95.5318 206.401 97.9216 209.162 100.548C212.094 103.307 215.077 106.251 218.012 109.329C220.834 112.431 223.374 115.574 225.492 118.679C227.141 121.668 228.141 124.528 228.388 127.196C227.963 129.662 226.738 131.904 224.741 133.917C222.231 135.77 219.189 137.46 215.795 139.043C212.427 140.645 209.141 142.28 206.168 144.017C203.844 145.993 202.18 148.185 201.283 150.619C201.274 153.376 201.969 156.283 203.202 159.279C204.895 162.44 206.7 165.536 208.382 168.487C209.861 171.37 210.814 173.969 211.106 176.238C210.755 178.295 209.606 179.987 207.688 181.34C205.12 182.499 201.926 183.388 198.244 184.077C194.217 184.709 189.964 185.264 185.628 185.807C181.312 186.464 177.122 187.215 173.135 188.106C169.395 189.221 165.932 190.523 162.743 192.016C159.85 193.756 157.192 195.673 154.721 197.738C152.473 199.994 150.329 202.329 148.241 204.701C146.28 207.141 144.303 209.515 142.289 211.758C140.343 213.927 138.333 215.86 136.261 217.487C134.248 218.898 132.184 219.916 130.083 220.491C128.064 220.752 126.034 220.524 124.001 219.785C122.066 218.726 120.134 217.179 118.214 215.177C116.366 212.945 114.509 210.352 112.621 207.457C110.749 204.526 108.846 201.505 106.897 198.482C104.894 195.621 102.803 192.869 100.621 190.269C98.3359 187.962 95.9475 185.852 93.4619 183.951C90.8735 182.361 88.2125 180.953 85.4997 179.711C82.7251 178.72 79.9515 177.832 77.2171 177.004C74.4928 176.332 71.8715 175.648 69.3981 174.928C67.0222 174.267 64.8546 173.508 62.9323 172.638C60.4347 171.25 57.1922 167.675 56.4521 165.475C56.1715 163.011 56.6894 157.22 57.2314 153.907C57.5007 151.538 57.7568 149.04 57.9637 146.421C57.9671 143.687 57.8927 140.851 57.7366 137.932C57.402 134.929 57.0374 131.879 56.6828 128.821C56.2869 125.739 56.0151 122.694 55.9318 119.727C55.9895 116.81 56.3459 114.008 57.0495 111.355C58.0105 108.791 59.32 106.44 60.9426 104.29C62.7618 102.207 64.8113 100.285 67.0227 98.502C69.2644 96.7158 71.553 95.0172 73.8299 93.3783C75.9806 91.6693 78.0412 89.9775 79.9924 88.2962C81.7419 86.5036 83.386 84.7015 84.931 82.8922C86.3175 80.973 87.6716 79.0528 89.0298 77.1412C90.3323 75.1458 91.7193 73.1771 93.226 71.2479C94.7879 69.2782 96.5283 67.3654 98.4585 65.5277C100.51 63.6873 102.771 61.9364 105.225 60.2901C107.815 58.6785 110.578 57.1887 113.479 55.841C116.483 54.5689 119.582 53.4585 122.744 52.5299C125.949 51.7162 129.166 51.1122 132.361 50.7305C135.549 50.5022 138.681 50.5163 141.722 50.7844C144.729 51.2176 147.632 51.9075 150.412 52.8547C153.151 53.9394 155.771 55.2541 158.259 56.7837C160.721 58.3893 163.069 60.1555 165.291 62.0505" stroke="#6BBB4E" stroke-opacity="0.58" stroke-width="2" stroke-linecap="round" stroke-dasharray="9 3"/>
<path opacity="0.54" d="M166.077 66.3546C168.004 68.283 169.777 70.2204 171.406 72.1309C173.068 73.9506 174.597 75.7043 175.999 77.3767C178.13 79.6318 181.941 83.4769 183.663 85.1187C185.461 86.5819 189.062 89.5037 191.018 91.1422C192.523 92.3238 194.129 93.6667 195.859 95.1951C197.817 96.838 199.929 98.7055 202.199 100.799C204.669 103.027 207.254 105.474 209.912 108.113C212.627 110.84 215.284 113.697 217.782 116.635C220.087 119.55 222.041 122.441 223.532 125.254C224.56 127.915 224.961 130.407 224.671 132.686C223.809 134.747 222.254 136.581 220.056 138.188C217.465 139.647 214.456 140.967 211.184 142.201C207.99 143.476 204.897 144.818 202.099 146.289C199.88 148.021 198.23 149.995 197.235 152.246C197.013 154.833 197.397 157.605 198.255 160.501C199.541 163.581 200.953 166.64 202.299 169.583C203.517 172.48 204.327 175.125 204.6 177.466C204.351 179.599 203.42 181.379 201.811 182.821C199.617 184.046 196.823 184.99 193.532 185.705C189.859 186.325 185.89 186.83 181.741 187.289C177.508 187.809 173.281 188.387 169.144 189.07C165.148 189.928 161.332 190.945 157.723 192.129C154.346 193.525 151.173 195.079 148.195 196.77C145.43 198.624 142.807 200.55 140.298 202.505C137.948 204.52 135.662 206.47 133.421 208.291C131.299 210.048 129.194 211.575 127.106 212.821C124.139 214.221 118.473 214.649 115.797 213.541C114.137 212.379 112.503 210.772 110.895 208.754C109.365 206.54 107.83 203.992 106.276 201.159C104.733 198.294 103.16 195.333 101.537 192.349C99.8592 189.501 98.0986 186.727 96.2452 184.073C94.2936 181.663 92.2404 179.417 90.0997 177.343C87.8592 175.551 85.5538 173.923 83.2105 172.45C80.8071 171.221 78.4143 170.098 76.074 169.064C73.7409 168.201 71.5143 167.367 69.4454 166.539C66.5606 165.412 62.1271 162.931 60.6831 161.488C59.7157 159.897 59.1844 156.017 59.4679 153.695C59.6967 152.001 60.0201 150.159 60.3942 148.175C60.6455 146.069 60.8798 143.812 61.075 141.422C61.0892 138.905 61.0434 136.266 60.9403 133.534C60.6913 130.711 60.4399 127.83 60.2228 124.93C59.9851 122.011 59.883 119.122 59.9705 116.309C60.2038 113.552 60.7218 110.917 61.571 108.423C62.6583 106.038 64.0721 103.861 65.7797 101.883C67.6786 99.9848 69.798 98.249 72.0804 96.6467C74.4119 95.0514 76.8032 93.537 79.203 92.0774C81.5037 90.5487 83.7361 89.0303 85.8811 87.5063C87.849 85.8718 89.7151 84.2145 91.4885 82.5311C93.1014 80.7335 94.6599 78.9158 96.1956 77.099C97.6541 75.1899 99.1517 73.3017 100.724 71.4462C102.305 69.5472 104.017 67.7129 105.869 65.958C107.798 64.2045 109.895 62.5574 112.153 61.0319C114.505 59.5549 117.008 58.2206 119.635 57.0467C122.342 55.9589 125.14 55.0535 127.991 54.3424C130.881 53.7578 133.789 53.3853 136.677 53.2413C139.558 53.2434 142.389 53.4826 145.137 53.9662C147.852 54.6029 150.465 55.4758 152.955 56.5827C155.407 57.8117 157.735 59.2525 159.932 60.88C162.103 62.5725 164.153 64.4053 166.074 66.3532" stroke="#6BBB4E" stroke-opacity="0.58" stroke-width="2" stroke-linecap="round" stroke-dasharray="6 3"/>
<path opacity="0.25" d="M166.549 70.4788C168.19 72.4339 169.695 74.3894 171.074 76.3279C172.495 78.1828 173.809 79.9854 175.026 81.7184C176.917 84.1106 180.485 88.3519 182.228 90.2549C184.125 92.0269 188.191 95.646 190.467 97.6508C192.187 99.0696 194.001 100.64 195.926 102.382C198.031 104.213 200.239 106.235 202.539 108.449C204.957 110.751 207.402 113.222 209.827 115.834C212.225 118.473 214.473 121.188 216.488 123.925C218.26 126.583 219.646 129.174 220.558 131.642C221.038 133.925 220.94 136.018 220.223 137.885C219.033 139.534 217.258 140.96 214.956 142.181C212.367 143.27 209.456 144.248 206.356 145.167C203.363 146.159 200.486 147.236 197.866 148.472C195.758 149.98 194.136 151.754 193.062 153.818C192.649 156.23 192.75 158.854 193.265 161.627C194.164 164.602 195.193 167.588 196.195 170.496C197.136 173.382 197.76 176.055 197.957 178.457C197.744 180.667 196.958 182.547 195.586 184.097C193.707 185.423 191.276 186.459 188.356 187.247C185.054 187.902 181.412 188.406 177.529 188.82C173.485 189.238 169.359 189.665 165.228 190.15C161.137 190.751 157.146 191.467 153.289 192.311C149.591 193.318 146.056 194.455 142.7 195.705C139.528 197.086 136.515 198.534 133.649 199.999C130.953 201.513 128.377 202.971 125.907 204.315C123.586 205.598 121.356 206.683 119.206 207.516C116.237 208.361 110.88 207.977 108.489 206.629C107.043 205.369 105.655 203.72 104.314 201.699C103.057 199.527 101.813 197.043 100.569 194.299C99.3392 191.529 98.0898 188.662 96.8018 185.759C95.4631 182.969 94.0494 180.231 92.5614 177.578C90.9768 175.135 89.3072 172.825 87.5688 170.668C85.733 168.75 83.8406 166.984 81.9284 165.367C79.9543 163.973 77.9995 162.699 76.0994 161.529C73.297 160.064 68.451 157.528 66.556 156.342C64.1546 153.897 63.0456 149.344 63.3553 147.366C63.6984 145.095 64.4426 139.607 64.691 136.392C64.689 134.072 64.6514 131.621 64.5848 129.068C64.4079 126.426 64.2497 123.723 64.1505 120.99C64.0531 118.247 64.1013 115.535 64.346 112.888C64.726 110.313 65.3847 107.856 66.3536 105.54C67.5479 103.342 69.0414 101.346 70.8144 99.5455C72.7647 97.8381 74.9316 96.2857 77.2607 94.8675C79.6489 93.4688 82.1126 92.1438 84.6023 90.8701C87.0219 89.5408 89.3971 88.2147 91.7056 86.8762C93.8646 85.4292 95.9361 83.9514 97.9186 82.4383C99.7489 80.8077 101.518 79.1485 103.244 77.4746C104.868 75.7056 106.502 73.9458 108.171 72.2152C109.807 70.4376 111.532 68.7176 113.344 67.0775C115.188 65.4428 117.157 63.9189 119.239 62.5217C121.381 61.1754 123.639 59.9842 125.993 58.9639C128.398 58.0389 130.876 57.2989 133.398 56.767C135.947 56.3549 138.502 56.1617 141.042 56.1941C143.572 56.3691 146.05 56.7731 148.458 57.4087C150.829 58.183 153.106 59.1807 155.274 60.3924C157.4 61.7144 159.413 63.2266 161.299 64.9061C163.165 66.6431 164.917 68.5091 166.546 70.4772" stroke="#6BBB4E" stroke-opacity="0.58" stroke-width="2" stroke-linecap="round" stroke-dasharray="2 5"/>
<path opacity="0.22" d="M167.101 74.64C168.474 76.5922 169.742 78.5579 170.91 80.5094C172.123 82.398 173.264 84.2467 174.343 86.0489C176.055 88.5873 179.478 93.2785 181.261 95.4831C182.574 96.8869 183.917 98.3085 185.305 99.7705C186.837 101.218 188.431 102.744 190.103 104.372C191.923 106.034 193.825 107.832 195.804 109.772C197.907 111.769 200.066 113.917 202.247 116.21C204.48 118.543 206.666 120.984 208.755 123.508C210.755 126.007 212.547 128.52 214.061 130.996C215.317 133.352 216.178 135.602 216.579 137.691C216.35 140.418 212.708 144.492 209.434 145.877C206.921 146.637 204.156 147.313 201.257 147.966C198.493 148.709 195.834 149.565 193.401 150.594C191.415 151.904 189.825 153.489 188.688 155.377C188.107 157.608 187.957 160.066 188.155 162.697C188.692 165.539 189.357 168.42 190.019 171.263C190.665 174.105 191.076 176.774 191.149 179.212C190.914 181.483 190.206 183.45 189.004 185.109C187.377 186.545 185.252 187.691 182.676 188.574C179.741 189.294 176.449 189.83 172.88 190.239C169.116 190.594 165.197 190.909 161.206 191.222C157.182 191.591 153.184 192.022 149.255 192.531C145.416 193.151 141.698 193.858 138.126 194.646C134.699 195.527 131.429 196.458 128.315 197.404C125.365 198.378 122.567 199.31 119.922 200.138C117.433 200.917 115.084 201.531 112.876 201.928C109.862 202.191 104.7 200.968 102.526 199.385C101.238 198.028 100.043 196.343 98.9285 194.334C97.8962 192.199 96.9067 189.798 95.9474 187.165C94.9998 184.507 94.0538 181.76 93.0928 178.98C92.0839 176.293 91.0227 173.636 89.9112 171.05C88.7065 168.639 87.4429 166.338 86.1211 164.169C84.7087 162.209 83.2638 160.386 81.8024 158.706C79.5256 156.547 75.1759 153.059 73.2523 151.637C68.9999 147.639 67.6526 143.121 67.9149 141.387C68.1625 139.363 68.6753 134.376 68.8382 131.407C68.809 129.257 68.7691 126.974 68.7352 124.588C68.6112 122.123 68.5369 119.595 68.5451 117.039C68.5657 114.482 68.746 111.953 69.1248 109.491C69.6324 107.105 70.407 104.836 71.4785 102.707C72.749 100.701 74.3027 98.8925 76.1157 97.2756C78.0903 95.7583 80.2759 94.3947 82.6229 93.1621C85.0359 91.9583 87.536 90.8318 90.0782 89.7588C92.5775 88.6398 95.0599 87.522 97.4927 86.3934C99.8057 85.1634 102.047 83.9009 104.209 82.5978C106.234 81.1781 108.194 79.7266 110.098 78.2487C111.893 76.6793 113.671 75.1038 115.449 73.5523C117.166 71.9469 118.927 70.3921 120.732 68.912C122.532 67.4328 124.403 66.0563 126.351 64.8098C128.313 63.6111 130.355 62.5682 132.458 61.6926C134.584 60.906 136.757 60.3139 138.959 59.9204C141.161 59.6449 143.366 59.588 145.55 59.7456C147.711 60.0356 149.831 60.5471 151.88 61.2834C153.89 62.1368 155.82 63.2007 157.649 64.4698C159.44 65.8292 161.131 67.3672 162.714 69.0636C164.272 70.8067 165.734 72.672 167.098 74.6382" stroke="#6BBB4E" stroke-opacity="0.58" stroke-width="2" stroke-linecap="round" stroke-dasharray="10 1"/>
<path opacity="0.38" d="M167.978 79.1007C169.11 81.0354 170.162 82.9961 171.151 84.9566C172.184 86.8703 173.178 88.7683 174.144 90.6419C175.184 92.4404 176.217 94.2138 177.257 95.9671C178.395 97.6464 179.559 99.3194 180.758 100.997C182.078 102.625 183.445 104.283 184.87 105.991C186.423 107.682 188.039 109.453 189.72 111.311C191.52 113.185 193.37 115.168 195.262 117.256C197.23 119.369 199.199 121.586 201.137 123.894C203.072 126.19 204.909 128.544 206.594 130.913C208.155 133.209 209.474 135.468 210.496 137.643C211.471 140.604 210.891 145.382 209.239 147.096C207.696 147.983 205.766 148.688 203.494 149.238C201.104 149.721 198.524 150.145 195.853 150.579C193.321 151.115 190.887 151.785 188.638 152.641C186.775 153.778 185.226 155.189 184.036 156.904C183.315 158.951 182.942 161.235 182.852 163.697C183.06 166.378 183.384 169.124 183.718 171.862C184.073 174.622 184.248 177.25 184.167 179.686C183.861 181.981 183.174 184.011 182.08 185.757C180.64 187.292 178.775 188.544 176.503 189.531C173.91 190.334 170.971 190.931 167.753 191.36C164.317 191.695 160.699 191.936 156.955 192.124C153.136 192.304 149.28 192.49 145.442 192.701C141.638 192.962 137.911 193.269 134.296 193.616C130.782 194.023 127.412 194.45 124.193 194.879C121.117 195.323 118.207 195.725 115.466 196.043C112.883 196.316 110.473 196.454 108.236 196.414C105.206 196.09 100.198 194.03 98.1935 192.208C97.0294 190.753 95.9912 189.026 95.066 187.037C94.2224 184.945 93.4491 182.632 92.7355 180.122C92.036 177.593 91.3693 174.992 90.7126 172.362C90.0087 169.805 89.2847 167.275 88.5339 164.808C87.6949 162.48 86.8201 160.251 85.9149 158.14C84.4099 155.297 81.2567 150.525 79.708 148.576C76.865 145.637 73.7947 142.162 73.3026 141.12C72.9158 138.749 73.1795 133.992 73.387 131.833C73.4194 130.225 73.4696 128.465 73.5253 126.569C73.47 124.555 73.4301 122.421 73.4185 120.187C73.3504 117.888 73.3494 115.534 73.4519 113.155C73.5797 110.782 73.8744 108.446 74.3648 106.176C74.9775 103.985 75.8452 101.911 76.9905 99.9748C78.3173 98.1684 79.903 96.5519 81.7273 95.1189C83.7047 93.7917 85.8795 92.6183 88.213 91.5713C90.6146 90.5689 93.1165 89.6467 95.6748 88.7733C98.2097 87.8748 100.745 86.981 103.26 86.0807C105.676 85.0928 108.044 84.074 110.344 83.0153C112.52 81.8513 114.636 80.6485 116.692 79.419C118.638 78.094 120.549 76.7601 122.432 75.4396C124.241 74.0613 126.048 72.7235 127.87 71.4502C129.65 70.1665 131.458 68.9784 133.301 67.9137C135.124 66.8804 136.988 65.9957 138.879 65.2757C141.71 64.3999 147.398 63.7601 150.186 64.0345C152.885 64.6861 157.936 67.1986 160.239 69.0241C161.708 70.3833 163.091 71.9122 164.385 73.5921C165.654 75.3115 166.852 77.1532 167.975 79.0987" stroke="#6BBB4E" stroke-opacity="0.58" stroke-width="2" stroke-linecap="round" stroke-dasharray="8 3"/>
<path opacity="0.36" d="M169.238 84.0939C170.156 85.9986 171.021 87.9427 171.847 89.9112C172.718 91.8384 173.575 93.7762 174.43 95.7164C176.357 99.4148 178.388 103.133 180.582 106.9C183.201 110.504 186.046 114.312 189.085 118.369C192.46 122.4 195.864 126.733 199.076 131.253C202.14 135.574 204.518 139.803 205.854 143.645C206.329 146.815 205.344 149.282 202.816 150.924C199.473 151.941 195.069 152.498 190.122 152.945C187.829 153.323 185.611 153.841 183.542 154.558C181.795 155.541 180.294 156.794 179.068 158.34C178.225 160.204 177.659 162.298 177.32 164.579C177.233 167.075 177.243 169.654 177.273 172.247C177.386 177.514 176.714 182.183 174.874 185.941C171.985 188.946 167.663 190.903 162.159 191.992C155.847 192.57 148.885 192.717 141.699 192.674C134.495 192.625 127.544 192.585 121.094 192.511C115.108 192.428 109.793 192.09 105.24 191.279C101.289 190.134 98.0782 188.244 95.6046 185.494C94.5519 183.944 93.6461 182.18 92.881 180.214C92.1888 178.164 91.6008 175.939 91.1018 173.56C90.6182 171.164 90.189 168.721 89.8018 166.261C89.3686 163.858 88.9425 161.483 88.5166 159.17C87.4126 154.888 86.2519 151.004 85.0908 147.614C83.6045 144.801 82.2665 142.434 81.2186 140.473C79.62 138.148 78.4305 133.769 78.6382 130.889C78.5387 128.453 78.5817 125.485 78.7193 121.993C78.5073 118.106 78.512 113.853 78.8822 109.453C79.106 107.268 79.495 105.119 80.0812 103.042C80.7766 101.056 81.7159 99.1801 82.9133 97.4398C84.2693 95.831 85.8631 94.4064 87.6771 93.1556C89.6266 92.0215 91.7599 91.0311 94.0517 90.1721C98.8115 88.596 103.879 87.2529 109.005 85.9807C113.85 84.4403 118.522 82.7603 122.958 80.9596C126.968 78.8054 130.83 76.6416 134.576 74.6308C138.063 72.5412 141.559 70.8424 145.042 69.6919C148.365 68.771 151.659 68.5599 154.822 69.1305C157.791 70.0558 160.561 71.7681 163.043 74.2365C164.769 76.3137 167.851 81.2801 169.236 84.0917" stroke="#6BBB4E" stroke-opacity="0.58" stroke-width="2" stroke-linecap="round" stroke-dasharray="7 8"/>
<path opacity="0.94" d="M170.774 89.7704C172.24 93.4761 173.628 97.3777 175.027 101.387C176.689 105.211 178.49 109.144 180.464 113.172C182.8 117.053 185.316 121.12 187.941 125.36C190.794 129.483 193.554 133.754 195.997 138.022C198.228 141.965 199.739 145.64 200.251 148.807C200.052 151.294 198.607 153.071 195.898 154.096C192.643 154.628 188.567 154.813 184.078 154.985C180.125 155.678 176.585 157.125 173.772 159.588C172.194 163.231 171.294 167.615 170.697 172.335C170.32 177.302 169.352 181.812 167.49 185.551C164.85 188.64 161.032 190.739 156.191 191.944C150.637 192.566 144.427 192.606 137.925 192.271C131.312 191.765 124.841 191.095 118.776 190.283C113.072 189.387 107.998 188.241 103.682 186.716C99.9022 184.916 96.8935 182.558 94.6747 179.558C92.8772 176.22 91.689 172.276 91.0169 167.815C90.3997 163.3 90.0356 158.765 89.7941 154.413C89.2591 150.391 88.7398 146.742 88.2541 143.544C87.4206 140.796 86.7071 138.471 86.2001 136.524C85.2201 134.093 84.4451 129.477 84.5313 126.528C84.3282 124.085 84.2725 121.172 84.3618 117.811C84.1824 114.119 84.2825 110.14 84.8063 106.072C85.4785 102.113 86.8966 98.4248 89.2196 95.2143C92.081 92.5184 95.7722 90.4988 100.111 89.0609C104.718 87.879 109.658 86.9596 114.703 86.1545C119.546 85.1514 124.284 84.0529 128.808 82.8577C132.953 81.337 136.912 79.7968 140.677 78.369C144.136 76.8219 147.485 75.6026 150.707 74.8572C153.695 74.2574 156.563 74.2912 159.241 75.0251C161.693 76.0316 163.938 77.7619 165.917 80.1931C167.729 82.8186 169.34 86.0339 170.772 89.7681" stroke="#6BBB4E" stroke-opacity="0.58" stroke-width="2" stroke-linecap="round" stroke-dasharray="9 10"/>
<path opacity="0.24" d="M172.326 96.135C173.446 99.7345 174.527 103.593 175.645 107.612C176.993 111.489 178.475 115.517 180.097 119.66C182.014 123.656 184.043 127.794 186.096 132.01C188.29 136.04 190.299 140.072 191.929 143.937C193.342 147.399 194.052 150.472 193.866 152.96C193.141 154.816 191.386 156 188.624 156.527C185.534 156.692 181.811 156.613 177.772 156.602C174.222 157.125 170.952 158.365 168.183 160.536C166.399 163.789 165.111 167.733 164.053 172.03C163.234 176.622 161.982 180.877 160.065 184.49C157.609 187.581 154.217 189.761 149.994 191.063C145.188 191.768 139.788 191.794 134.087 191.303C128.239 190.521 122.452 189.434 116.995 188.098C111.808 186.608 107.177 184.852 103.257 182.78C99.789 180.478 97.07 177.757 95.1384 174.582C93.5731 171.154 92.6434 167.302 92.2771 163.102C91.9595 158.855 91.9624 154.665 92.1482 150.681C92.0699 146.938 92.0598 143.536 92.099 140.545C91.789 137.881 91.5647 135.588 91.4769 133.625C90.984 131.026 90.5485 125.957 90.5722 122.828C90.335 120.315 90.2502 117.413 90.3453 114.147C90.2459 110.626 90.4685 106.904 91.135 103.158C91.9591 99.5607 93.4876 96.257 95.8419 93.4356C98.651 91.11 102.202 89.4455 106.339 88.3503C110.722 87.5359 115.442 87.0218 120.294 86.6639C125.021 86.1832 129.686 85.6587 134.175 85.0768C138.339 84.2117 142.3 83.3299 146.025 82.5283C149.43 81.5806 152.642 80.8924 155.639 80.5941C158.365 80.3694 160.892 80.6769 163.181 81.6016C165.225 82.7073 167.043 84.4615 168.607 86.8602C170.008 89.3953 171.238 92.4996 172.326 96.135Z" stroke="#6BBB4E" stroke-opacity="0.58" stroke-width="2" stroke-linecap="round" stroke-dasharray="6 5"/>
<path opacity="0.8" d="M173.56 103.012C174.366 106.49 175.136 110.244 175.934 114.181C176.927 118.006 178.01 121.995 179.182 126.08C180.589 130.015 182.029 134.025 183.418 138.02C184.897 141.779 186.133 145.41 186.975 148.758C187.645 152.904 184.836 157.642 181.153 158.135C178.275 158.052 174.914 157.814 171.3 157.691C168.114 158.102 165.095 159.167 162.395 161.059C160.459 163.921 158.867 167.406 157.439 171.231C156.248 175.384 154.75 179.294 152.774 182.69C150.452 185.685 147.425 187.876 143.762 189.238C139.662 190.039 135.071 190.117 130.215 189.597C125.223 188.713 120.252 187.412 115.547 185.777C111.038 183.933 107.007 181.8 103.606 179.385C100.577 176.766 98.2374 173.825 96.6286 170.573C95.3351 167.132 94.6569 163.407 94.5456 159.468C94.4824 155.497 94.7645 151.636 95.2652 147.994C95.5317 144.519 95.897 141.355 96.3201 138.537C96.4058 135.946 96.5522 133.663 96.7643 131.648C96.6614 129.73 96.6628 127.923 96.7791 126.131C96.6005 124.216 96.5449 122.129 96.6164 119.805C96.422 117.197 96.3813 114.282 96.5391 111.105C96.5706 107.747 96.9367 104.272 97.7457 100.852C98.7094 97.6011 100.313 94.6723 102.658 92.2252C105.378 90.2557 108.745 88.922 112.623 88.1449C116.721 87.6641 121.139 87.5139 125.703 87.5696C130.196 87.5689 134.66 87.5857 138.982 87.5868C143.041 87.3618 146.899 87.1275 150.5 86.9552C153.799 86.6277 156.856 86.5015 159.64 86.6795C162.144 86.8663 164.391 87.4921 166.364 88.6281C168.092 89.8724 169.571 91.6753 170.799 94.0507C171.877 96.5134 172.786 99.5093 173.56 103.012Z" stroke="#6BBB4E" stroke-opacity="0.58" stroke-width="2" stroke-linecap="round" stroke-dasharray="8 10"/>
<path opacity="0.2" d="M174.141 110.087C174.659 113.415 175.122 116.994 175.571 120.746C176.184 124.408 176.829 128.208 177.503 132.062C178.356 135.765 179.179 139.471 179.891 143.073C180.667 146.415 181.184 149.537 181.323 152.3C181.072 155.586 177.28 158.831 173.677 158.878C171.03 158.648 168.015 158.333 164.793 158.159C161.934 158.501 159.146 159.414 156.534 161.039C154.501 163.518 152.69 166.536 150.996 169.858C149.517 173.523 147.827 177.021 145.811 180.111C143.601 182.92 140.892 185.042 137.727 186.417C134.27 187.302 130.439 187.472 126.418 187.012C122.289 186.17 118.179 184.842 114.287 183.118C110.547 181.154 107.206 178.873 104.407 176.318C101.903 173.583 99.9995 170.588 98.7495 167.367C97.7528 164.008 97.3276 160.461 97.433 156.791C97.5811 153.093 98.0731 149.541 98.7856 146.206C99.3017 142.973 99.9283 140.012 100.606 137.337C100.982 134.791 101.391 132.492 101.829 130.393C101.961 128.324 102.138 126.329 102.376 124.327C102.334 122.195 102.373 119.918 102.514 117.453C102.436 114.762 102.51 111.853 102.791 108.775C102.993 105.585 103.521 102.364 104.468 99.2607C105.554 96.3549 107.211 93.7862 109.509 91.698C112.108 90.0537 115.25 89.024 118.823 88.5339C122.587 88.3433 126.638 88.5099 130.828 88.9178C134.982 89.333 139.135 89.8246 143.166 90.3472C146.997 90.7028 150.637 91.0706 154.024 91.4889C157.146 91.7632 160.001 92.1857 162.556 92.8366C164.85 93.4568 166.855 94.418 168.558 95.7845C170.035 97.2045 171.247 99.0827 172.197 101.444C173.015 103.858 173.651 106.744 174.141 110.087Z" stroke="#6BBB4E" stroke-opacity="0.58" stroke-width="2" stroke-linecap="round"/>
<path opacity="0.29" d="M173.808 116.925C174.064 120.063 174.224 123.402 174.328 126.868C174.563 130.261 174.774 133.741 174.952 137.219C175.27 140.552 175.507 143.814 175.601 146.896C175.75 149.734 175.649 152.289 175.217 154.454C174.243 156.935 169.827 158.971 166.392 158.734C163.98 158.444 161.285 158.119 158.42 157.94C155.845 158.243 153.274 159.025 150.772 160.395C148.698 162.499 146.756 165.046 144.895 167.857C143.22 171.002 141.406 174.036 139.393 176.752C137.287 179.301 134.857 181.276 132.133 182.608C129.239 183.544 126.101 183.813 122.847 183.47C119.535 182.769 116.256 181.555 113.174 179.911C110.207 178.025 107.578 175.801 105.401 173.297C103.454 170.634 102.016 167.741 101.135 164.667C100.454 161.492 100.274 158.179 100.563 154.791C100.889 151.379 101.53 148.119 102.378 145.047C103.065 142.036 103.862 139.241 104.707 136.666C105.29 134.159 105.894 131.824 106.498 129.63C106.83 127.421 107.178 125.245 107.55 123.057C107.681 120.737 107.869 118.305 108.141 115.748C108.24 113.014 108.489 110.145 108.932 107.2C109.33 104.203 110.032 101.252 111.107 98.4715C112.301 95.8963 113.979 93.6774 116.194 91.9269C118.649 90.5832 121.538 89.8215 124.772 89.5761C128.164 89.6224 131.796 90.0441 135.545 90.7371C139.283 91.4828 143.029 92.3606 146.67 93.312C150.165 94.1528 153.487 95.0346 156.568 95.9728C159.432 96.7815 162.034 97.704 164.325 98.7935C166.393 99.8297 168.164 101.117 169.614 102.71C170.877 104.318 171.861 106.285 172.573 108.634C173.176 111.009 173.58 113.775 173.808 116.925Z" stroke="#6BBB4E" stroke-opacity="0.58" stroke-width="2" stroke-linecap="round" stroke-dasharray="8 6"/>
<path opacity="0.43" d="M172.425 123.054C172.441 125.961 172.325 128.999 172.118 132.097C172.008 135.139 171.823 138.198 171.563 141.195C171.412 144.061 171.146 146.797 170.733 149.309C170.079 152.599 167.45 156.978 165.286 157.9C163.69 158.151 161.75 158.069 159.503 157.727C157.314 157.442 154.91 157.151 152.361 156.996C150.035 157.275 147.666 157.942 145.304 159.07C143.24 160.814 141.256 162.908 139.322 165.211C137.545 167.83 135.684 170.371 133.719 172.674C131.732 174.901 129.557 176.664 127.228 177.893C124.815 178.832 122.276 179.18 119.7 178.968C117.108 178.453 114.584 177.441 112.238 175.996C109.998 174.334 108.036 172.318 106.454 170.021C105.046 167.584 104.058 164.924 103.526 162.1C103.152 159.197 103.196 156.174 103.646 153.085C104.119 149.982 104.867 146.994 105.797 144.162C106.601 141.359 107.502 138.709 108.446 136.216C109.182 133.746 109.933 131.386 110.671 129.114C111.186 126.797 111.702 124.494 112.23 122.172C112.56 119.738 112.936 117.227 113.383 114.637C113.704 111.935 114.159 109.167 114.788 106.401C115.397 103.632 116.265 100.968 117.449 98.5188C118.731 96.271 120.41 94.3808 122.514 92.9455C124.796 91.8694 127.415 91.337 130.29 91.2933C133.285 91.5258 136.465 92.1323 139.732 93.0262C143.003 94.0065 146.273 95.1607 149.449 96.4276C152.528 97.6404 155.449 98.9184 158.15 100.254C160.684 101.498 162.968 102.831 164.958 104.282C166.766 105.677 168.286 107.249 169.491 109.036C170.549 110.814 171.323 112.856 171.821 115.176C172.234 117.509 172.43 120.138 172.425 123.054Z" stroke="#6BBB4E" stroke-opacity="0.58" stroke-width="2" stroke-linecap="round" stroke-dasharray="6 2"/>
<path opacity="0.8" d="M170.011 128.044C169.823 130.683 169.473 133.367 169 136.046C168.608 138.679 168.101 141.263 167.496 143.731C166.973 146.093 166.327 148.284 165.54 150.225C164.345 152.739 160.963 155.81 158.677 156.312C156.166 156.335 150.147 155.565 146.812 155.334C144.708 155.595 142.542 156.151 140.339 157.053C138.339 158.46 136.386 160.123 134.472 161.94C132.678 164.046 130.847 166.095 128.984 167.964C127.136 169.826 125.206 171.328 123.224 172.406C120.208 173.482 114.26 172.871 111.607 171.295C109.985 169.927 108.609 168.22 107.543 166.227C106.615 164.12 106.026 161.789 105.808 159.288C105.704 156.732 105.946 154.045 106.518 151.276C107.112 148.498 107.934 145.794 108.905 143.187C109.785 140.593 110.758 138.092 111.765 135.685C112.615 133.281 113.476 130.93 114.333 128.627C115.016 126.279 115.701 123.92 116.393 121.551C116.934 119.096 117.519 116.597 118.163 114.071C118.718 111.479 119.385 108.884 120.201 106.347C121.009 103.848 122.028 101.497 123.297 99.3799C124.638 97.4601 126.281 95.8824 128.254 94.7359C130.35 93.896 132.679 93.5563 135.185 93.667C137.778 94.0229 140.495 94.7422 143.264 95.7559C146.041 96.8734 148.804 98.1927 151.478 99.6459C154.087 101.092 156.552 102.628 158.818 104.233C160.968 105.778 162.888 107.399 164.542 109.105C166.06 110.762 167.307 112.54 168.26 114.455C169.101 116.352 169.672 118.426 169.971 120.682C170.209 122.94 170.219 125.399 170.011 128.044Z" stroke="#6BBB4E" stroke-opacity="0.58" stroke-width="2" stroke-linecap="round" stroke-dasharray="8 10"/>
<path opacity="0.42" d="M166.733 131.584C166.052 136.248 164.745 140.749 163.003 144.718C161.535 148.383 159.528 151.186 156.964 152.802C154.54 153.954 151.409 154.054 147.659 153.401C144.165 153.237 140.24 153.411 136.078 154.39C132.424 156.96 128.821 159.981 125.343 162.766C121.996 165.713 118.612 167.373 115.507 167.485C112.55 166.978 110.166 164.964 108.767 161.766C107.777 158.229 107.887 153.874 109.171 149.028C110.529 144.159 112.5 139.386 114.694 134.839C116.439 130.253 118.253 125.661 120.059 121.098C121.451 116.334 123.058 111.515 125.033 106.989C126.988 102.705 129.673 99.2587 133.221 97.2292C137.095 96.2358 141.507 96.9219 146.037 98.8671C150.61 101.27 154.965 104.375 158.662 107.827C162.054 111.187 164.602 114.836 166.082 118.744C167.25 122.604 167.472 126.903 166.733 131.584Z" stroke="#6BBB4E" stroke-opacity="0.58" stroke-width="2" stroke-linecap="round" stroke-dasharray="10 10"/>
<path opacity="0.17" d="M162.861 133.546C161.923 137.559 160.368 141.195 158.393 144.206C156.629 147.022 154.401 149.019 151.779 150.033C149.314 150.83 146.361 150.838 143.017 150.306C139.866 150.277 136.382 150.468 132.692 151.174C129.299 153.093 125.996 155.267 122.91 157.249C119.956 159.491 117.179 160.783 114.816 160.898C112.629 160.651 111.036 159.165 110.293 156.627C109.848 153.856 110.311 150.283 111.715 146.139C113.18 141.984 115.161 137.732 117.354 133.546C119.251 129.323 121.259 125.02 123.288 120.764C125.039 116.417 126.98 112.129 129.172 108.242C131.355 104.64 134.036 101.846 137.258 100.322C140.681 99.6324 144.348 100.401 147.96 102.278C151.609 104.601 154.987 107.628 157.775 111.016C160.374 114.417 162.24 118.068 163.195 121.832C163.944 125.571 163.846 129.522 162.861 133.546Z" stroke="#6BBB4E" stroke-opacity="0.58" stroke-width="2" stroke-linecap="round" stroke-dasharray="10 6"/>
<path opacity="0.07" d="M158.716 134.004C157.622 137.346 155.976 140.193 153.967 142.413C152.106 144.526 149.873 145.926 147.369 146.56C145.001 147.146 142.304 147.161 139.37 146.792C136.563 146.874 133.507 147.064 130.317 147.527C127.275 148.879 124.371 150.334 121.743 151.615C115.605 153.54 112.565 147.438 114.342 142.594C115.827 139.156 117.764 135.502 119.906 131.809C121.872 128.1 123.983 124.288 126.139 120.542C128.127 116.796 130.267 113.178 132.553 110.004C134.83 107.108 137.406 104.944 140.257 103.86C143.22 103.423 146.192 104.19 148.984 105.889C151.793 107.978 154.289 110.72 156.26 113.805C158.121 116.974 159.361 120.358 159.842 123.772C160.207 127.191 159.847 130.66 158.716 134.004Z" stroke="#6BBB4E" stroke-opacity="0.58" stroke-width="2" stroke-linecap="round"/>
<path opacity="0.11" d="M154.592 133.228C153.445 135.896 151.847 138.066 149.961 139.675C148.167 141.245 146.091 142.242 143.832 142.674C141.666 143.152 139.281 143.225 136.764 143.022C134.315 143.175 131.706 143.347 129.031 143.613C126.415 144.487 123.984 145.349 121.846 146.058C117.101 147.1 115.489 142.384 117.256 138.566C118.679 135.837 120.495 132.846 122.52 129.773C124.442 126.706 126.537 123.544 128.689 120.473C130.738 117.452 132.91 114.593 135.145 112.163C137.364 109.972 139.726 108.395 142.172 107.686C144.661 107.443 147.004 108.145 149.084 109.585C151.168 111.334 152.92 113.637 154.21 116.245C155.439 118.961 156.153 121.863 156.264 124.758C156.308 127.672 155.763 130.557 154.592 133.228Z" stroke="#6BBB4E" stroke-opacity="0.58" stroke-width="2" stroke-linecap="round" stroke-dasharray="10 11"/>
<path opacity="0.6" d="M150.705 131.625C148.554 135.674 145.079 138.021 141.18 138.664C137.479 139.606 133.151 139.762 128.857 139.597C122.902 141.324 118.002 139.688 120.613 134.413C123.151 130.291 126.959 125.29 130.982 120.634C134.788 116.231 139.008 112.726 143.007 111.619C147.03 111.741 150.119 114.463 151.699 118.404C153.145 122.733 152.918 127.572 150.705 131.625Z" stroke="#6BBB4E" stroke-opacity="0.58" stroke-width="2" stroke-linecap="round" stroke-dasharray="4 8"/>
<path opacity="0.51" d="M147.151 129.671C145.279 132.527 142.451 134.211 139.362 134.784C136.35 135.606 132.947 135.853 129.753 135.658C125.32 136.336 122.209 134.341 124.465 130.594C126.557 127.702 129.704 124.246 133.049 121.129C136.283 118.22 139.767 116.033 142.832 115.503C145.864 115.683 147.929 117.604 148.773 120.359C149.543 123.391 149.056 126.816 147.151 129.671Z" stroke="#6BBB4E" stroke-opacity="0.58" stroke-width="2" stroke-linecap="round" stroke-dasharray="3 11"/>
<path opacity="0.29" d="M143.891 127.819C141.12 131.382 135.802 132.672 131.62 131.941C127.266 132.645 125.805 131.185 128.737 127.595C131.744 124.01 137.587 119.794 141.774 119.194C145.803 119.884 146.733 124.262 143.891 127.819Z" stroke="#6BBB4E" stroke-opacity="0.58" stroke-width="2" stroke-linecap="round" stroke-dasharray="7 8"/>
</svg>
