<svg width="347" height="329" viewBox="0 0 347 329" fill="none" xmlns="http://www.w3.org/2000/svg">
<path opacity="0.8" d="M181.321 47.4624C185.788 48.8071 190.308 50.2383 194.867 51.6941C199.425 52.9361 204.006 54.1123 208.573 55.198C213.11 55.9958 217.582 56.7031 221.937 57.3324C226.183 57.7148 230.222 58.0891 233.978 58.4962C237.522 58.7841 240.679 59.1994 243.369 59.7834C246.691 60.8156 250.269 64.4346 250.725 67.1283C250.898 69.2093 250.942 71.611 251.042 74.3088C251.631 77.1793 252.668 80.3171 254.351 83.6894C256.971 87.1932 260.467 90.8862 264.874 94.7314C270.166 98.663 276.117 102.706 282.449 106.835C288.856 111.005 294.894 115.228 300.107 119.485C304.215 123.757 306.791 128.047 307.59 132.332C306.796 136.625 304.319 140.915 300.454 145.188C295.969 149.461 291.163 153.713 286.67 157.941C283.365 162.168 281.465 166.363 281.304 170.512C283.139 174.662 286.488 178.659 290.855 182.492C295.917 186.317 300.741 189.969 304.705 193.427C307.594 196.861 308.761 200.094 308.084 203.108C305.776 206.09 301.834 208.841 296.624 211.358C290.643 213.846 284.249 216.104 277.891 218.143C271.979 220.179 266.765 222.034 262.428 223.728C257.973 226.34 254.538 231.595 254.494 234.536C254.841 236.843 255.019 239.352 254.863 242.111C254.533 245.249 253.653 248.675 252.191 252.376C250.365 256.418 247.953 260.671 245.008 265.063C241.742 269.583 238.046 274.061 234.026 278.355C229.805 282.442 225.372 286.094 220.809 289.158C216.159 291.679 211.462 293.406 206.769 294.258C202.058 294.393 197.387 293.624 192.789 291.983C188.2 289.787 183.689 286.933 179.269 283.569C174.849 280.123 170.62 276.623 166.56 273.259C162.483 270.331 158.557 267.806 154.762 265.766C150.923 264.413 147.18 263.582 143.511 263.237C139.754 263.504 136.028 264.092 132.307 264.89C128.464 266.001 124.586 267.074 120.665 267.995C116.601 268.883 112.48 269.414 108.312 269.513C104.048 269.34 99.7843 268.637 95.5552 267.395C91.3522 265.799 87.2879 263.673 83.4362 261.066C79.7667 258.142 76.4182 254.806 73.46 251.134C70.7924 247.252 68.5586 243.119 66.7759 238.813C65.2448 234.4 64.0867 229.885 63.2495 225.32C62.4514 220.73 61.7964 216.137 61.1979 211.572C60.3781 207.019 59.4585 202.512 58.4089 198.07C57.0165 193.653 55.4897 189.302 53.8849 185.017C52.0935 180.757 50.4018 176.554 48.9314 172.421C47.6128 168.3 46.7323 164.233 46.3896 160.235C46.4157 156.242 47.0186 152.397 48.1333 148.716C49.4823 145.027 51.1609 141.491 53.039 138.114C54.8261 134.734 56.6088 131.505 58.3048 128.437C59.6754 125.353 60.9029 122.421 61.9916 119.637C62.7854 116.82 63.5618 114.138 64.3859 111.576C65.1537 108.957 66.1513 106.427 67.4525 103.98C68.9403 101.431 70.8401 98.9221 73.165 96.434C75.7849 93.8061 78.8255 91.1618 82.2304 88.4928C85.8739 85.651 89.795 82.7682 93.92 79.8401C98.1447 76.7516 102.474 73.6384 106.854 70.5253C111.196 67.3175 115.529 64.1632 119.824 61.1117C124.018 58.0849 128.169 55.2473 132.276 52.6647C136.276 50.2424 140.262 48.1615 144.252 46.4795C148.16 45.0565 152.112 44.0819 156.128 43.5719C160.102 43.3375 164.17 43.5431 168.36 44.1724C172.533 44.9702 176.849 46.0847 181.316 47.4582" stroke="#AFFF89" stroke-width="2" stroke-linecap="round" stroke-dasharray="2 4"/>
<path opacity="0.8" d="M191.296 52.914C195.515 54.5282 199.723 56.2365 203.899 57.9673C208.077 59.4963 212.215 60.9731 216.269 62.3577C220.3 63.4728 224.198 64.4883 227.912 65.4173C231.532 66.0966 234.889 66.7378 237.915 67.3734C241.989 68.1409 247.644 70.1564 249.161 71.6185C250.099 73.454 250.961 78.7476 251.695 82.264C252.82 84.9078 254.453 87.8495 256.744 91.0702C259.881 94.4837 263.774 98.1497 268.398 102.03C273.661 106.043 279.329 110.22 285.119 114.499C290.75 118.826 295.825 123.19 299.959 127.532C302.961 131.826 304.486 136.051 304.361 140.17C302.839 144.207 299.858 148.147 295.719 151.988C291.134 155.808 286.352 159.59 281.94 163.36C278.653 167.209 276.668 171.099 276.257 175.038C277.663 179.098 280.458 183.091 284.212 186.978C288.659 190.9 292.986 194.636 296.639 198.138C299.414 201.564 300.712 204.694 300.376 207.504C298.554 210.197 295.185 212.577 290.546 214.662C285.038 216.684 278.952 218.474 272.694 220.071C266.627 221.714 261.016 223.251 256.076 224.722C251.98 226.352 248.726 228.002 246.26 229.709C244.627 231.669 243.554 233.753 242.847 235.998C242.552 238.559 242.281 241.328 241.858 244.318C241.42 247.636 240.587 251.171 239.3 254.898C237.764 258.877 235.704 262.961 233.157 267.086C230.333 271.251 227.085 275.28 223.477 279.054C219.697 282.577 215.673 285.635 211.481 288.095C207.228 290.025 202.896 291.202 198.557 291.551C194.226 291.256 189.931 290.132 185.7 288.208C181.501 285.795 177.369 282.781 173.31 279.302C169.257 275.744 165.343 272.135 161.546 268.64C157.709 265.522 153.945 262.755 150.24 260.421C146.446 258.695 142.674 257.444 138.907 256.64C135.02 256.404 131.113 256.485 127.173 256.786C123.113 257.408 119.013 258.045 114.881 258.589C110.656 259.155 106.421 259.445 102.199 259.38C97.9703 259.118 93.823 258.403 89.8061 257.223C85.9068 255.75 82.2338 253.805 78.8544 251.423C75.7216 248.764 72.9653 245.722 70.6329 242.359C68.5977 238.8 66.9981 234.999 65.8253 231.013C64.8608 226.916 64.2271 222.697 63.8508 218.409C63.4655 214.067 63.1695 209.693 62.8828 205.312C62.3413 200.906 61.6813 196.516 60.871 192.158C59.7224 187.789 58.4449 183.457 57.0973 179.191C55.5847 174.921 54.1797 170.725 53.0035 166.61C51.9867 162.514 51.4021 158.513 51.3355 154.621C51.6499 150.75 52.5146 147.081 53.8699 143.597C55.4804 140.131 57.4085 136.838 59.5373 133.711C61.6064 130.568 63.6729 127.577 65.6551 124.725C67.3363 121.828 68.86 119.061 70.2228 116.41C71.2814 113.698 72.2712 111.093 73.2537 108.586C74.1289 106.002 75.1673 103.503 76.44 101.069C77.8455 98.5456 79.613 96.0666 81.7606 93.6214C84.1825 91.0543 87.017 88.4942 90.2297 85.9348C93.705 83.2362 97.4986 80.526 101.55 77.8041C105.757 74.9609 110.13 72.1204 114.601 69.3072C119.111 66.4388 123.654 63.6509 128.188 60.9902C132.67 58.3715 137.111 55.9644 141.502 53.8136C145.807 51.8303 150.06 50.1856 154.272 48.9258C158.399 47.9159 162.508 47.3335 166.611 47.1959C170.659 47.3104 174.728 47.8467 178.837 48.7815C182.922 49.8713 187.071 51.2623 191.292 52.9096" stroke="#AFFF89" stroke-width="2" stroke-linecap="round" stroke-dasharray="9 5"/>
<path opacity="0.59" d="M199.064 58.9012C202.991 60.759 206.829 62.692 210.571 64.6453C214.327 66.4178 217.975 68.1259 221.482 69.7485C224.981 71.1083 228.293 72.3641 231.381 73.5108C235.765 74.832 242.762 76.9991 245.217 78.0398C248.178 80.615 250.998 86.9428 252.54 90.224C254.253 92.7392 256.474 95.5802 259.295 98.7388C262.828 102.122 266.957 105.793 271.611 109.709C276.665 113.783 281.884 118.02 286.996 122.355C291.763 126.71 295.839 131.06 298.905 135.331C300.863 139.491 301.423 143.504 300.491 147.329C298.358 151.013 294.987 154.538 290.665 157.915C286.054 161.265 281.357 164.579 277.056 167.909C273.819 171.386 271.766 174.973 271.135 178.688C272.136 182.624 274.402 186.568 277.57 190.458C281.42 194.441 285.241 198.24 288.556 201.79C291.173 205.232 292.55 208.321 292.499 211.031C291.131 213.555 288.321 215.702 284.279 217.509C279.32 219.201 273.668 220.642 267.67 221.903C261.639 223.209 255.832 224.451 250.481 225.691C245.752 227.135 241.715 228.673 238.367 230.345C235.773 232.314 233.75 234.471 232.17 236.83C231.062 239.522 230.118 242.427 229.175 245.536C228.35 248.943 227.298 252.515 225.933 256.215C224.441 260.097 222.542 264.003 220.229 267.863C217.732 271.693 214.85 275.317 211.638 278.627C208.298 281.655 204.717 284.184 200.957 286.12C197.169 287.546 193.296 288.25 189.39 288.177C185.527 287.524 181.679 286.105 177.873 283.956C174.124 281.379 170.413 278.246 166.741 274.682C163.084 271.049 159.502 267.352 155.985 263.747C152.406 260.466 148.835 257.484 145.253 254.867C141.559 252.796 137.825 251.143 134.035 249.885C130.11 249.153 126.126 248.721 122.083 248.513C117.93 248.631 113.738 248.798 109.536 248.922C105.278 249.125 101.059 249.126 96.9205 248.852C92.8311 248.455 88.9015 247.694 85.1831 246.545C81.6418 245.179 78.3983 243.405 75.5175 241.256C72.9065 238.886 70.7104 236.173 68.9564 233.171C67.4874 229.991 66.434 226.58 65.7762 222.986C65.2845 219.277 65.0718 215.431 65.0663 211.488C65.0025 207.467 64.9889 203.374 64.9458 199.243C64.6279 195.047 64.1817 190.829 63.5785 186.606C62.6575 182.341 61.6163 178.089 60.5157 173.882C59.2813 169.662 58.1592 165.511 57.2684 161.453C56.544 157.426 56.2447 153.515 56.4504 149.742C57.0205 146.022 58.1263 142.528 59.6992 139.251C61.5309 136 63.6756 132.941 66.0224 130.054C68.3366 127.15 70.657 124.381 72.9058 121.738C74.8797 119.03 76.6949 116.417 78.339 113.892C79.6762 111.281 80.9063 108.742 82.0854 106.28C83.1216 103.72 84.2529 101.226 85.5504 98.7921C86.9277 96.2651 88.6043 93.7867 90.6079 91.3482C92.8532 88.8175 95.4842 86.3139 98.4791 83.8385C101.743 81.2663 105.345 78.7147 109.224 76.1839C113.307 73.5808 117.598 71.0223 122.029 68.5241C126.553 66.0137 131.15 63.6085 135.767 61.3597C140.382 59.1813 144.965 57.2187 149.499 55.5236C153.972 53.9991 158.374 52.8095 162.694 51.9871C166.944 51.4002 171.124 51.2193 175.233 51.4527C179.286 51.9192 183.294 52.7743 187.263 54.0023C191.204 55.3634 195.137 57.0102 199.06 58.8965" stroke="#AFFF89" stroke-width="2" stroke-linecap="round"/>
<path opacity="0.3" d="M204.595 65.0563C208.184 67.1121 211.622 69.2296 214.912 71.3507C218.223 73.3035 221.375 75.1945 224.351 76.9823C227.331 78.5314 230.105 79.9584 232.634 81.2684C236.251 82.8292 241.926 85.3348 243.938 86.4596C245.633 87.5535 248.12 90.4825 249.343 92.5445C250.506 94.1653 251.893 96.0923 253.611 98.3391C255.874 100.827 258.601 103.654 261.829 106.814C265.599 110.206 269.79 113.894 274.289 117.831C278.975 121.897 283.614 126.114 287.956 130.393C291.818 134.649 294.897 138.843 296.95 142.9C297.951 146.788 297.667 150.47 296.06 153.903C293.445 157.164 289.793 160.223 285.388 163.12C280.823 165.998 276.254 168.857 272.099 171.767C268.936 174.88 266.843 178.167 266.014 181.65C266.648 185.43 268.418 189.29 271.026 193.152C274.287 197.148 277.601 200.985 280.545 204.58C282.964 208.059 284.355 211.164 284.522 213.852C283.544 216.312 281.258 218.353 277.804 220.01C273.428 221.504 268.281 222.723 262.66 223.744C256.823 224.794 251.007 225.793 245.431 226.811C240.259 228.042 235.597 229.406 231.503 230.953C228.029 232.816 225.089 234.905 222.6 237.234C220.596 239.896 218.842 242.782 217.216 245.866C215.799 249.225 214.302 252.718 212.637 256.291C210.967 259.997 209.021 263.673 206.781 267.238C204.445 270.733 201.809 273.969 198.905 276.844C195.941 279.429 192.766 281.5 189.436 282.979C186.121 283.983 182.723 284.296 179.285 283.882C175.918 282.944 172.55 281.299 169.206 278.986C165.933 276.297 162.674 273.097 159.416 269.481C156.17 265.812 152.951 262.061 149.741 258.371C146.463 254.961 143.134 251.793 139.742 248.928C136.227 246.542 132.615 244.511 128.914 242.832C125.073 241.63 121.144 240.703 117.147 239.999C113.049 239.619 108.921 239.317 104.804 239.021C100.673 238.849 96.6163 238.544 92.6882 238.043C88.8596 237.495 85.2452 236.667 81.8982 235.539C78.7703 234.267 75.9824 232.669 73.5931 230.761C71.481 228.686 69.7944 226.32 68.5463 223.702C67.5539 220.934 66.9518 217.951 66.7022 214.783C66.5716 211.501 66.6714 208.064 66.9311 204.508C67.0946 200.848 67.2733 197.082 67.3987 193.238C67.249 189.295 66.9667 185.292 66.5336 181.25C65.8063 177.136 64.9839 173.01 64.1203 168.91C63.1473 164.783 62.301 160.724 61.6863 156.759C61.248 152.838 61.2194 149.046 61.6734 145.416C62.487 141.863 63.8048 138.552 65.5657 135.478C67.5914 132.45 69.9178 129.622 72.4492 126.966C74.9749 124.296 77.5217 121.748 80.0134 119.307C82.2612 116.786 84.3599 114.337 86.2911 111.941C87.9227 109.438 89.421 106.976 90.8378 104.559C92.0801 102.032 93.3576 99.5455 94.7441 97.1063C96.1515 94.5747 97.7931 92.0865 99.7103 89.6545C101.814 87.1427 104.258 84.679 107.044 82.2683C110.078 79.8029 113.442 77.3878 117.093 75.0395C120.963 72.6643 125.058 70.3687 129.33 68.1764C133.729 66.0099 138.225 63.9851 142.773 62.1393C147.348 60.3914 151.92 58.8741 156.435 57.6271C160.922 56.5596 165.327 55.8161 169.627 55.4213C173.867 55.2498 178.003 55.4569 182.023 56.044C185.986 56.8424 189.849 57.9993 193.616 59.4896C197.35 61.0996 201.008 62.9716 204.59 65.0555" stroke="#AFFF89" stroke-width="2" stroke-linecap="round" stroke-dasharray="4 10"/>
<path opacity="0.9" d="M208.124 71.0683C211.341 73.2794 214.37 75.5289 217.217 77.7709C220.092 79.8582 222.782 81.8732 225.279 83.7795C228.96 86.2465 235.238 90.2192 237.779 91.7907C241.915 94.3017 247.054 98.6465 248.979 100.785C250.658 102.458 252.586 104.439 254.839 106.745C257.551 109.28 260.645 112.16 264.106 115.359C267.941 118.771 272.016 122.46 276.201 126.363C280.382 130.355 284.346 134.453 287.862 138.567C290.821 142.595 292.957 146.513 294.086 150.236C294.247 153.744 293.252 156.999 291.112 159.982C288.144 162.763 284.33 165.342 279.929 167.759C275.478 170.176 271.087 172.604 267.109 175.116C264.037 177.882 261.924 180.881 260.927 184.127C261.221 187.731 262.531 191.469 264.602 195.271C267.3 199.241 270.102 203.089 272.655 206.719C274.829 210.245 276.16 213.398 276.472 216.13C275.801 218.604 273.971 220.632 271.059 222.255C267.258 223.669 262.655 224.781 257.483 225.672C251.964 226.545 246.293 227.354 240.671 228.182C235.25 229.193 230.159 230.35 225.481 231.694C221.271 233.351 217.52 235.253 214.182 237.397C211.293 239.875 208.701 242.579 206.307 245.476C204.18 248.625 202.097 251.893 199.977 255.211C197.95 258.636 195.785 261.998 193.444 265.208C191.108 268.33 188.577 271.158 185.867 273.612C183.169 275.778 180.318 277.436 177.361 278.511C174.469 279.155 171.509 279.147 168.526 278.46C165.639 277.312 162.749 275.507 159.867 273.088C157.072 270.338 154.264 267.113 151.433 263.492C148.62 259.825 145.793 256.06 142.929 252.323C139.993 248.823 136.969 245.509 133.846 242.442C130.594 239.784 127.217 237.431 123.726 235.38C120.098 233.758 116.372 232.387 112.576 231.229C108.694 230.394 104.791 229.659 100.923 228.973C97.0611 228.443 93.3093 227.849 89.7242 227.138C86.2563 226.443 83.0425 225.551 80.1328 224.448C77.4408 223.267 75.1187 221.837 73.1984 220.17C70.9222 217.379 68.7246 210.502 68.6403 206.493C68.7499 203.637 69.0532 200.62 69.478 197.457C69.7698 194.168 70.0574 190.744 70.2853 187.206C70.239 183.545 70.0745 179.784 69.7751 175.946C69.218 172.021 68.5854 168.062 67.9403 164.1C67.2119 160.115 66.6244 156.186 66.2744 152.352C66.1022 148.571 66.3257 144.929 67.0139 141.465C68.0448 138.092 69.5466 134.981 71.4717 132.11C73.6563 129.306 76.1362 126.704 78.8251 124.274C81.5314 121.832 84.2741 119.507 86.9808 117.27C89.4846 114.944 91.8518 112.666 94.061 110.417C95.993 108.04 97.7856 105.677 99.4691 103.331C100.951 100.861 102.432 98.4074 103.963 95.9849C105.469 93.4658 107.143 90.9884 109.026 88.5643C111.042 86.078 113.345 83.6537 115.941 81.3056C118.748 78.934 121.863 76.647 125.254 74.4616C128.845 72.2882 132.675 70.232 136.687 68.32C140.833 66.4705 145.102 64.7961 149.441 63.3207C153.828 61.9698 158.221 60.8647 162.575 60.0356C166.913 59.3906 171.175 59.0544 175.317 59.0533C179.416 59.2633 183.382 59.822 187.206 60.7269C190.98 61.8238 194.616 63.2422 198.107 64.9549C201.568 66.7794 204.912 68.8283 208.12 71.0671" stroke="#AFFF89" stroke-width="2" stroke-linecap="round" stroke-dasharray="6 9"/>
<path opacity="0.75" d="M210.099 76.7481C212.933 79.0688 215.561 81.4095 217.994 83.7263C220.466 85.9076 222.751 88.0106 224.843 90.0026C227.972 92.6363 233.362 96.9795 235.642 98.7518C237.864 100.254 241.861 103.187 243.856 104.847C245.412 106.065 247.062 107.482 248.87 109.146C251.011 110.967 253.39 113.089 256.047 115.519C259.063 118.158 262.348 121.114 265.857 124.362C269.585 127.775 273.376 131.415 277.107 135.223C280.693 139.06 283.922 142.947 286.614 146.787C288.71 150.485 289.981 154.022 290.296 157.321C289.755 160.371 288.197 163.145 285.66 165.634C282.469 167.926 278.603 170.017 274.289 171.974C270.008 173.955 265.831 175.977 262.053 178.126C259.098 180.57 256.983 183.281 255.843 186.292C255.832 189.702 256.716 193.297 258.282 197.003C260.434 200.913 262.729 204.741 264.866 208.392C266.746 211.958 267.957 215.172 268.328 217.979C267.882 220.522 266.423 222.616 263.985 224.289C260.72 225.723 256.661 226.822 251.981 227.674C246.862 228.456 241.456 229.143 235.945 229.814C230.458 230.626 225.134 231.556 220.066 232.658C215.311 234.036 210.91 235.647 206.857 237.493C203.179 239.646 199.8 242.017 196.66 244.571C193.802 247.361 191.078 250.249 188.423 253.183C185.93 256.201 183.418 259.137 180.858 261.911C178.384 264.593 175.83 266.984 173.195 268.997C170.637 270.743 168.013 272.001 165.343 272.713C162.777 273.036 160.197 272.753 157.613 271.839C155.154 270.53 152.698 268.617 150.257 266.14C147.908 263.379 145.548 260.172 143.148 256.591C140.769 252.966 138.351 249.23 135.873 245.491C133.327 241.952 130.668 238.549 127.895 235.333C124.991 232.48 121.955 229.869 118.796 227.518C115.506 225.551 112.123 223.81 108.675 222.275C105.149 221.049 101.623 219.95 98.1475 218.926C94.6848 218.095 91.353 217.248 88.2092 216.358C85.1893 215.541 82.434 214.602 79.9907 213.526C76.8161 211.809 72.6947 207.387 71.7539 204.667C71.3974 201.619 72.0556 194.457 72.7446 190.359C73.0868 187.428 73.4123 184.338 73.6754 181.1C73.6796 177.718 73.585 174.211 73.3867 170.601C72.9613 166.885 72.4979 163.113 72.0472 159.332C71.544 155.519 71.1985 151.753 71.0927 148.083C71.166 144.476 71.619 141.01 72.5133 137.729C73.7348 134.557 75.3992 131.65 77.4617 128.991C79.7741 126.414 82.3791 124.037 85.1899 121.831C88.0392 119.622 90.9481 117.521 93.8423 115.494C96.576 113.38 99.1951 111.288 101.675 109.208C103.899 106.991 105.989 104.762 107.952 102.525C109.715 100.151 111.436 97.7758 113.162 95.4114C114.818 92.9435 116.581 90.5086 118.496 88.1223C120.481 85.6861 122.693 83.3203 125.147 81.0474C127.754 78.7712 130.628 76.6055 133.747 74.5694C137.04 72.576 140.551 70.7334 144.239 69.0665C148.057 67.4931 151.996 66.1197 156.015 64.9712C160.089 63.9647 164.178 63.2177 168.239 62.7456C172.291 62.4633 176.272 62.4807 180.137 62.8122C183.959 63.3481 187.649 64.2014 191.183 65.3729C194.665 66.7145 197.995 68.3406 201.157 70.2324C204.287 72.2183 207.271 74.4028 210.095 76.7467" stroke="#AFFF89" stroke-width="2" stroke-linecap="round" stroke-dasharray="9 3"/>
<path opacity="0.54" d="M211.095 82.0701C213.544 84.4553 215.798 86.8516 217.867 89.2145C219.981 91.4653 221.924 93.6343 223.705 95.7027C226.415 98.492 231.258 103.248 233.448 105.278C235.733 107.088 240.31 110.702 242.796 112.729C244.709 114.19 246.75 115.851 248.949 117.741C251.438 119.773 254.123 122.083 257.008 124.672C260.147 127.428 263.433 130.455 266.811 133.719C270.262 137.091 273.64 140.626 276.814 144.259C279.745 147.864 282.227 151.441 284.124 154.92C285.429 158.211 285.94 161.292 285.572 164.112C284.475 166.661 282.499 168.929 279.705 170.916C276.412 172.722 272.587 174.354 268.428 175.88C264.368 177.458 260.436 179.117 256.88 180.936C254.06 183.078 251.963 185.521 250.698 188.305C250.415 191.504 250.904 194.932 251.995 198.515C253.63 202.324 255.424 206.108 257.135 209.747C258.683 213.331 259.712 216.602 260.059 219.497C259.743 222.136 258.56 224.337 256.514 226.12C253.725 227.636 250.174 228.803 245.991 229.688C241.322 230.454 236.278 231.079 231.004 231.647C225.623 232.29 220.251 233.005 214.993 233.85C209.913 234.911 205.063 236.169 200.476 237.634C196.184 239.36 192.15 241.282 188.365 243.373C184.85 245.666 181.516 248.049 178.327 250.467C175.341 252.959 172.435 255.371 169.587 257.623C166.89 259.796 164.214 261.685 161.56 263.226C157.788 264.958 150.587 265.488 147.185 264.116C145.076 262.679 142.999 260.692 140.954 258.196C139.01 255.458 137.058 252.306 135.083 248.802C133.122 245.259 131.123 241.596 129.06 237.905C126.927 234.383 124.689 230.952 122.334 227.669C119.853 224.688 117.243 221.91 114.522 219.346C111.675 217.129 108.744 215.116 105.766 213.294C102.711 211.773 99.6695 210.385 96.6949 209.106C93.7293 208.038 90.8992 207.006 88.2695 205.983C84.6027 204.589 78.9674 201.52 77.1321 199.735C75.9024 197.767 75.2271 192.968 75.5875 190.096C75.8783 188.001 76.2894 185.723 76.7648 183.27C77.0842 180.664 77.3821 177.873 77.6302 174.916C77.6483 171.803 77.5901 168.54 77.4589 165.16C77.1425 161.669 76.8229 158.105 76.547 154.519C76.2448 150.908 76.1151 147.335 76.2263 143.856C76.5229 140.446 77.1812 137.187 78.2606 134.103C79.6427 131.152 81.4397 128.46 83.6102 126.013C86.0237 123.665 88.7177 121.519 91.6187 119.537C94.5822 117.564 97.6218 115.691 100.672 113.885C103.596 111.995 106.434 110.116 109.16 108.231C111.662 106.21 114.034 104.16 116.288 102.078C118.338 99.8547 120.319 97.6064 122.271 95.3592C124.125 92.9981 126.028 90.6626 128.026 88.3676C130.036 86.0189 132.212 83.7502 134.566 81.5797C137.018 79.4108 139.683 77.3736 142.554 75.4869C145.543 73.66 148.724 72.0098 152.063 70.5578C155.504 69.2123 159.061 68.0924 162.685 67.213C166.358 66.4899 170.054 66.0292 173.725 65.8511C177.387 65.8537 180.985 66.1496 184.478 66.7477C187.929 67.5352 191.25 68.6148 194.415 69.9839C197.532 71.504 200.491 73.286 203.284 75.2989C206.043 77.3923 208.648 79.6592 211.091 82.0685" stroke="#AFFF89" stroke-width="2" stroke-linecap="round" stroke-dasharray="6 3"/>
<path opacity="0.25" d="M211.695 87.1712C213.78 89.5893 215.693 92.0079 217.446 94.4055C219.252 96.6997 220.922 98.9294 222.469 101.073C224.873 104.032 229.408 109.277 231.623 111.631C234.034 113.823 239.203 118.299 242.096 120.779C244.282 122.533 246.588 124.476 249.035 126.63C251.709 128.895 254.516 131.397 257.44 134.135C260.513 136.982 263.621 140.038 266.703 143.268C269.752 146.532 272.609 149.891 275.171 153.275C277.423 156.563 279.185 159.768 280.344 162.821C280.953 165.644 280.829 168.233 279.918 170.542C278.405 172.582 276.149 174.345 273.223 175.856C269.932 177.203 266.232 178.411 262.291 179.549C258.488 180.775 254.83 182.108 251.5 183.637C248.821 185.502 246.759 187.695 245.394 190.249C244.869 193.232 244.997 196.477 245.652 199.907C246.795 203.586 248.103 207.28 249.377 210.876C250.572 214.447 251.366 217.752 251.616 220.723C251.345 223.457 250.346 225.782 248.603 227.699C246.215 229.339 243.123 230.62 239.413 231.595C235.215 232.405 230.586 233.028 225.651 233.541C220.511 234.058 215.266 234.586 210.015 235.186C204.816 235.929 199.742 236.815 194.84 237.859C190.139 239.104 185.647 240.511 181.381 242.057C177.349 243.764 173.52 245.556 169.876 247.368C166.45 249.239 163.175 251.043 160.035 252.706C157.086 254.293 154.251 255.635 151.519 256.665C147.744 257.709 140.936 257.235 137.897 255.568C136.058 254.009 134.294 251.97 132.59 249.47C130.992 246.783 129.411 243.711 127.829 240.317C126.267 236.891 124.679 233.345 123.041 229.754C121.34 226.304 119.543 222.917 117.652 219.636C115.638 216.615 113.515 213.758 111.306 211.089C108.972 208.718 106.567 206.533 104.136 204.532C101.627 202.809 99.1425 201.233 96.7274 199.786C93.1653 197.974 87.0057 194.837 84.5971 193.37C81.5449 190.347 80.1352 184.715 80.5288 182.268C80.9649 179.46 81.9109 172.671 82.2267 168.695C82.2241 165.826 82.1762 162.794 82.0916 159.636C81.8668 156.37 81.6657 153.026 81.5396 149.646C81.4158 146.253 81.4771 142.899 81.7881 139.625C82.271 136.439 83.1083 133.401 84.3399 130.536C85.8579 127.818 87.7562 125.349 90.0098 123.122C92.4887 121.01 95.243 119.09 98.2035 117.336C101.239 115.606 104.371 113.967 107.535 112.392C110.611 110.748 113.63 109.108 116.564 107.452C119.308 105.662 121.941 103.835 124.461 101.963C126.787 99.9463 129.035 97.8941 131.23 95.8239C133.294 93.6359 135.371 91.4592 137.492 89.3188C139.572 87.1202 141.764 84.9928 144.068 82.9643C146.412 80.9425 148.915 79.0576 151.56 77.3295C154.283 75.6643 157.153 74.191 160.145 72.9291C163.202 71.7849 166.352 70.8697 169.557 70.2118C172.797 69.7021 176.045 69.4631 179.273 69.5032C182.49 69.7197 185.639 70.2194 188.7 71.0055C191.713 71.9631 194.608 73.1972 197.363 74.6959C200.065 76.331 202.624 78.2013 205.021 80.2787C207.393 82.427 209.62 84.735 211.691 87.1692" stroke="#AFFF89" stroke-width="2" stroke-linecap="round" stroke-dasharray="2 5"/>
<path opacity="0.22" d="M212.396 92.318C214.141 94.7325 215.753 97.1638 217.237 99.5774C218.779 101.913 220.23 104.2 221.601 106.429C223.777 109.569 228.128 115.371 230.394 118.098C232.063 119.834 233.769 121.592 235.535 123.4C237.481 125.191 239.507 127.078 241.632 129.092C243.946 131.147 246.364 133.371 248.879 135.77C251.552 138.24 254.296 140.898 257.069 143.734C259.907 146.619 262.686 149.639 265.341 152.759C267.882 155.851 270.16 158.96 272.085 162.021C273.682 164.936 274.776 167.719 275.285 170.302C274.995 173.675 270.365 178.713 266.204 180.427C263.01 181.367 259.495 182.204 255.811 183.01C252.297 183.93 248.917 184.988 245.824 186.262C243.301 187.882 241.279 189.842 239.834 192.177C239.096 194.937 238.906 197.976 239.156 201.231C239.839 204.746 240.685 208.309 241.526 211.826C242.347 215.341 242.87 218.642 242.963 221.656C242.664 224.465 241.764 226.899 240.236 228.951C238.167 230.727 235.467 232.144 232.192 233.236C228.461 234.127 224.277 234.79 219.741 235.296C214.957 235.735 209.975 236.124 204.902 236.512C199.789 236.968 194.706 237.501 189.712 238.131C184.833 238.897 180.108 239.771 175.567 240.746C171.21 241.836 167.054 242.988 163.097 244.157C159.346 245.363 155.791 246.514 152.428 247.539C149.265 248.503 146.279 249.262 143.472 249.753C139.641 250.079 133.08 248.566 130.317 246.607C128.68 244.93 127.161 242.845 125.744 240.361C124.432 237.719 123.174 234.751 121.955 231.494C120.751 228.206 119.548 224.809 118.327 221.37C117.044 218.046 115.696 214.76 114.283 211.562C112.751 208.58 111.145 205.734 109.465 203.052C107.67 200.627 105.833 198.372 103.976 196.294C101.082 193.624 95.5532 189.31 93.1082 187.551C87.7031 182.606 85.9906 177.019 86.324 174.873C86.6387 172.371 87.2906 166.202 87.4976 162.53C87.4606 159.87 87.4098 157.046 87.3666 154.096C87.2091 151.047 87.1146 147.92 87.1251 144.758C87.1512 141.596 87.3804 138.468 87.8619 135.424C88.5071 132.472 89.4916 129.666 90.8536 127.033C92.4684 124.551 94.4433 122.314 96.7478 120.315C99.2576 118.438 102.036 116.751 105.019 115.227C108.086 113.738 111.264 112.345 114.495 111.018C117.672 109.633 120.827 108.251 123.919 106.855C126.859 105.334 129.708 103.772 132.457 102.161C135.03 100.404 137.521 98.6092 139.942 96.7813C142.222 94.8402 144.482 92.8916 146.743 90.9726C148.925 88.987 151.163 87.064 153.458 85.2333C155.746 83.4038 158.124 81.7012 160.6 80.1596C163.093 78.6769 165.689 77.387 168.362 76.3041C171.064 75.3312 173.827 74.5988 176.626 74.1121C179.424 73.7714 182.228 73.701 185.003 73.8959C187.75 74.2546 190.444 74.8872 193.049 75.7979C195.604 76.8535 198.057 78.1693 200.382 79.739C202.658 81.4204 204.807 83.3227 206.82 85.4208C208.8 87.5768 210.658 89.8838 212.392 92.3158" stroke="#AFFF89" stroke-width="2" stroke-linecap="round" stroke-dasharray="10 1"/>
<path opacity="0.38" d="M213.511 97.835C214.949 100.228 216.287 102.653 217.544 105.078C218.857 107.445 220.121 109.792 221.348 112.11C222.67 114.334 223.983 116.528 225.304 118.696C226.751 120.773 228.23 122.842 229.754 124.917C231.433 126.931 233.17 128.981 234.982 131.094C236.955 133.186 239.009 135.376 241.146 137.674C243.435 139.991 245.785 142.444 248.191 145.027C250.691 147.641 253.194 150.383 255.658 153.237C258.118 156.077 260.452 158.988 262.593 161.918C264.578 164.759 266.254 167.553 267.554 170.242C268.792 173.905 268.055 179.815 265.956 181.935C263.995 183.032 261.541 183.903 258.653 184.584C255.615 185.181 252.337 185.706 248.942 186.242C245.723 186.906 242.629 187.734 239.771 188.793C237.403 190.199 235.433 191.944 233.921 194.065C233.005 196.597 232.53 199.422 232.417 202.468C232.681 205.783 233.092 209.18 233.517 212.566C233.968 215.98 234.191 219.231 234.088 222.243C233.699 225.082 232.826 227.593 231.435 229.752C229.605 231.651 227.235 233.199 224.347 234.421C221.05 235.413 217.315 236.151 213.225 236.682C208.858 237.096 204.258 237.394 199.499 237.627C194.646 237.849 189.744 238.079 184.866 238.341C180.031 238.664 175.293 239.043 170.699 239.473C166.232 239.975 161.948 240.504 157.858 241.035C153.947 241.583 150.248 242.081 146.765 242.474C143.481 242.812 140.419 242.982 137.575 242.933C133.723 242.532 127.358 239.984 124.81 237.73C123.33 235.932 122.011 233.795 120.835 231.335C119.763 228.748 118.78 225.887 117.873 222.782C116.984 219.654 116.136 216.438 115.301 213.184C114.407 210.022 113.486 206.892 112.532 203.841C111.466 200.962 110.354 198.205 109.203 195.594C107.29 192.078 103.282 186.176 101.314 183.765C97.7003 180.129 93.7977 175.833 93.1722 174.543C92.6805 171.611 93.0157 165.727 93.2795 163.056C93.3207 161.068 93.3845 158.891 93.4553 156.545C93.385 154.055 93.3342 151.415 93.3196 148.653C93.233 145.809 93.2317 142.897 93.362 139.955C93.5244 137.02 93.899 134.13 94.5224 131.322C95.3012 128.613 96.404 126.048 97.8598 123.653C99.5462 121.419 101.562 119.419 103.881 117.647C106.394 116.005 109.158 114.554 112.124 113.259C115.177 112.019 118.357 110.879 121.609 109.799C124.831 108.687 128.054 107.582 131.25 106.468C134.321 105.246 137.33 103.986 140.254 102.677C143.02 101.237 145.71 99.7495 148.323 98.2288C150.797 96.59 153.225 94.94 155.619 93.3069C157.918 91.6021 160.215 89.9475 162.531 88.3726C164.793 86.7849 167.092 85.3154 169.434 83.9985C171.751 82.7205 174.12 81.6262 176.524 80.7357C180.123 79.6525 187.351 78.8611 190.896 79.2005C194.326 80.0064 200.746 83.1141 203.674 85.3719C205.541 87.053 207.299 88.944 208.944 91.0218C210.557 93.1485 212.079 95.4264 213.507 97.8326" stroke="#AFFF89" stroke-width="2" stroke-linecap="round" stroke-dasharray="8 3"/>
<path opacity="0.36" d="M215.113 104.011C216.279 106.367 217.378 108.771 218.428 111.206C219.535 113.59 220.624 115.986 221.711 118.386C224.161 122.96 226.742 127.56 229.531 132.219C232.86 136.677 236.476 141.387 240.338 146.404C244.629 151.39 248.955 156.749 253.038 162.339C256.932 167.684 259.955 172.915 261.653 177.666C262.257 181.588 261.005 184.638 257.792 186.669C253.542 187.927 247.945 188.616 241.657 189.169C238.742 189.636 235.923 190.277 233.293 191.163C231.073 192.38 229.165 193.929 227.607 195.842C226.535 198.147 225.816 200.737 225.385 203.559C225.275 206.645 225.287 209.836 225.325 213.042C225.469 219.557 224.614 225.332 222.276 229.979C218.604 233.696 213.111 236.116 206.114 237.464C198.091 238.178 189.242 238.36 180.108 238.307C170.952 238.247 162.117 238.198 153.918 238.105C146.309 238.003 139.554 237.585 133.767 236.582C128.745 235.165 124.664 232.828 121.519 229.427C120.181 227.51 119.03 225.328 118.058 222.896C117.178 220.361 116.43 217.609 115.796 214.667C115.182 211.703 114.636 208.681 114.144 205.638C113.593 202.666 113.052 199.729 112.51 196.868C111.107 191.572 109.632 186.768 108.156 182.575C106.267 179.096 104.566 176.168 103.234 173.743C101.202 170.867 99.6902 165.451 99.9541 161.889C99.8277 158.877 99.8823 155.205 100.057 150.886C99.7878 146.078 99.7937 140.818 100.264 135.376C100.549 132.673 101.043 130.016 101.788 127.447C102.672 124.99 103.866 122.67 105.388 120.518C107.112 118.528 109.137 116.766 111.443 115.219C113.921 113.816 116.633 112.591 119.546 111.529C125.596 109.579 132.036 107.918 138.552 106.345C144.711 104.439 150.648 102.362 156.287 100.134C161.384 97.4699 166.293 94.7936 171.054 92.3066C175.487 89.722 179.93 87.621 184.357 86.198C188.581 85.0589 192.768 84.7979 196.788 85.5035C200.562 86.6481 204.083 88.7659 207.238 91.8189C209.431 94.3881 213.35 100.531 215.109 104.008" stroke="#AFFF89" stroke-width="2" stroke-linecap="round" stroke-dasharray="7 8"/>
<path opacity="0.94" d="M217.065 111.032C218.928 115.615 220.692 120.441 222.47 125.4C224.583 130.13 226.872 134.994 229.38 139.976C232.35 144.776 235.549 149.806 238.885 155.05C242.511 160.15 246.019 165.433 249.125 170.712C251.96 175.589 253.881 180.134 254.532 184.051C254.279 187.127 252.442 189.325 248.999 190.593C244.862 191.251 239.68 191.479 233.975 191.692C228.95 192.55 224.451 194.339 220.875 197.385C218.869 201.891 217.726 207.313 216.967 213.151C216.488 219.295 215.257 224.872 212.891 229.498C209.535 233.318 204.681 235.914 198.529 237.404C191.47 238.173 183.575 238.223 175.311 237.808C166.906 237.183 158.681 236.354 150.972 235.35C143.722 234.242 137.272 232.825 131.787 230.939C126.982 228.712 123.158 225.796 120.337 222.085C118.053 217.956 116.542 213.079 115.688 207.561C114.904 201.976 114.441 196.368 114.134 190.985C113.454 186.009 112.794 181.496 112.176 177.541C111.117 174.143 110.21 171.266 109.566 168.858C108.32 165.851 107.335 160.143 107.445 156.495C107.186 153.473 107.116 149.871 107.229 145.714C107.001 141.148 107.128 136.226 107.794 131.194C108.649 126.298 110.451 121.736 113.404 117.765C117.041 114.431 121.732 111.933 127.247 110.154C133.103 108.692 139.382 107.555 145.795 106.56C151.95 105.319 157.972 103.96 163.723 102.482C168.992 100.601 174.024 98.6961 178.809 96.9302C183.206 95.0166 187.463 93.5085 191.558 92.5865C195.356 91.8446 199.001 91.8865 202.406 92.7942C205.522 94.0391 208.375 96.1792 210.891 99.1862C213.194 102.434 215.241 106.41 217.062 111.029" stroke="#AFFF89" stroke-width="2" stroke-linecap="round" stroke-dasharray="9 10"/>
<path opacity="0.24" d="M219.037 118.904C220.46 123.356 221.835 128.129 223.255 133.099C224.97 137.894 226.853 142.877 228.915 148.001C231.351 152.942 233.93 158.061 236.539 163.275C239.329 168.261 241.882 173.247 243.954 178.028C245.75 182.309 246.653 186.11 246.415 189.188C245.494 191.483 243.264 192.948 239.753 193.599C235.825 193.804 231.094 193.706 225.96 193.692C221.448 194.338 217.29 195.873 213.772 198.557C211.504 202.581 209.867 207.459 208.521 212.774C207.481 218.454 205.89 223.717 203.452 228.185C200.331 232.008 196.019 234.705 190.652 236.315C184.543 237.187 177.679 237.219 170.433 236.612C163 235.645 155.644 234.3 148.708 232.647C142.115 230.804 136.229 228.633 131.246 226.07C126.838 223.223 123.382 219.857 120.927 215.931C118.937 211.691 117.756 206.926 117.29 201.731C116.886 196.479 116.89 191.296 117.126 186.368C117.027 181.739 117.014 177.532 117.064 173.832C116.67 170.537 116.385 167.701 116.273 165.273C115.646 162.059 115.093 155.789 115.123 151.919C114.821 148.811 114.714 145.221 114.834 141.181C114.708 136.827 114.991 132.223 115.838 127.59C116.886 123.141 118.829 119.055 121.821 115.565C125.392 112.689 129.905 110.63 135.164 109.275C140.735 108.268 146.734 107.632 152.901 107.19C158.91 106.595 164.839 105.946 170.545 105.226C175.837 104.157 180.873 103.066 185.607 102.074C189.935 100.902 194.018 100.051 197.827 99.6822C201.292 99.4042 204.504 99.7845 207.414 100.928C210.012 102.296 212.322 104.465 214.31 107.432C216.091 110.568 217.654 114.407 219.037 118.904Z" stroke="#AFFF89" stroke-width="2" stroke-linecap="round" stroke-dasharray="6 5"/>
<path opacity="0.8" d="M220.605 127.41C221.631 131.712 222.608 136.354 223.623 141.224C224.885 145.955 226.262 150.888 227.752 155.941C229.54 160.808 231.37 165.768 233.136 170.709C235.016 175.358 236.587 179.849 237.657 183.99C238.508 189.118 234.939 194.978 230.257 195.588C226.599 195.485 222.327 195.191 217.733 195.039C213.683 195.547 209.846 196.865 206.414 199.204C203.954 202.744 201.931 207.055 200.115 211.785C198.602 216.922 196.697 221.758 194.185 225.958C191.234 229.663 187.386 232.373 182.731 234.058C177.519 235.048 171.683 235.145 165.511 234.501C159.167 233.408 152.848 231.799 146.867 229.777C141.137 227.497 136.013 224.858 131.689 221.87C127.84 218.631 124.866 214.994 122.821 210.972C121.177 206.716 120.315 202.108 120.174 197.236C120.093 192.325 120.452 187.55 121.088 183.045C121.427 178.747 121.891 174.833 122.429 171.348C122.538 168.144 122.724 165.319 122.994 162.828C122.863 160.456 122.865 158.221 123.012 156.004C122.785 153.635 122.715 151.054 122.806 148.179C122.559 144.954 122.507 141.348 122.707 137.42C122.747 133.265 123.213 128.968 124.241 124.738C125.466 120.717 127.505 117.095 130.485 114.068C133.942 111.632 138.222 109.982 143.151 109.021C148.36 108.427 153.976 108.241 159.776 108.31C165.487 108.309 171.161 108.33 176.655 108.331C181.814 108.053 186.718 107.763 191.295 107.55C195.488 107.145 199.374 106.989 202.913 107.209C206.095 107.44 208.951 108.214 211.459 109.619C213.655 111.158 215.535 113.388 217.097 116.326C218.467 119.372 219.622 123.077 220.605 127.41Z" stroke="#AFFF89" stroke-width="2" stroke-linecap="round" stroke-dasharray="8 10"/>
<path opacity="0.2" d="M221.345 136.16C222.003 140.277 222.591 144.704 223.162 149.344C223.941 153.873 224.762 158.573 225.618 163.34C226.702 167.92 227.748 172.503 228.653 176.959C229.64 181.092 230.297 184.954 230.473 188.372C230.154 192.435 225.334 196.449 220.754 196.507C217.391 196.223 213.558 195.833 209.463 195.618C205.828 196.041 202.285 197.17 198.965 199.18C196.381 202.246 194.079 205.979 191.925 210.088C190.045 214.621 187.897 218.947 185.335 222.769C182.526 226.243 179.083 228.867 175.059 230.568C170.666 231.664 165.796 231.874 160.685 231.304C155.437 230.263 150.213 228.62 145.266 226.488C140.512 224.059 136.265 221.237 132.708 218.078C129.525 214.694 127.106 210.99 125.517 207.007C124.25 202.852 123.71 198.464 123.844 193.925C124.032 189.352 124.657 184.959 125.563 180.834C126.219 176.835 127.015 173.172 127.876 169.864C128.355 166.715 128.875 163.872 129.432 161.276C129.599 158.717 129.824 156.249 130.127 153.773C130.073 151.136 130.123 148.32 130.302 145.271C130.203 141.942 130.296 138.345 130.654 134.538C130.911 130.592 131.582 126.609 132.786 122.77C134.166 119.176 136.272 115.999 139.193 113.416C142.496 111.382 146.49 110.109 151.032 109.502C155.816 109.267 160.965 109.473 166.291 109.977C171.571 110.491 176.85 111.099 181.973 111.745C186.843 112.185 191.469 112.64 195.775 113.157C199.743 113.497 203.371 114.019 206.619 114.824C209.534 115.591 212.083 116.78 214.248 118.47C216.126 120.227 217.666 122.55 218.874 125.47C219.914 128.456 220.721 132.026 221.345 136.16Z" stroke="#AFFF89" stroke-width="2" stroke-linecap="round"/>
<path opacity="0.29" d="M220.921 144.618C221.246 148.499 221.45 152.629 221.582 156.915C221.881 161.113 222.149 165.416 222.375 169.718C222.779 173.841 223.081 177.876 223.201 181.687C223.39 185.197 223.261 188.358 222.712 191.035C221.474 194.104 215.86 196.622 211.495 196.329C208.429 195.971 205.003 195.568 201.362 195.347C198.089 195.721 194.82 196.689 191.64 198.383C189.005 200.985 186.536 204.136 184.171 207.613C182.042 211.503 179.736 215.255 177.177 218.614C174.5 221.767 171.412 224.21 167.949 225.857C164.271 227.015 160.282 227.348 156.146 226.923C151.937 226.056 147.768 224.554 143.852 222.521C140.08 220.188 136.738 217.438 133.972 214.341C131.496 211.047 129.668 207.469 128.549 203.667C127.684 199.74 127.454 195.642 127.822 191.452C128.237 187.232 129.051 183.2 130.129 179.4C131.003 175.677 132.015 172.219 133.089 169.034C133.83 165.933 134.598 163.045 135.365 160.332C135.788 157.599 136.23 154.909 136.702 152.202C136.869 149.332 137.108 146.325 137.454 143.162C137.58 139.78 137.896 136.232 138.459 132.589C138.965 128.882 139.858 125.233 141.224 121.794C142.742 118.609 144.875 115.864 147.69 113.699C150.81 112.037 154.482 111.095 158.593 110.791C162.904 110.849 167.521 111.37 172.287 112.227C177.037 113.15 181.8 114.235 186.427 115.412C190.869 116.452 195.092 117.543 199.007 118.703C202.649 119.703 205.956 120.844 208.867 122.192C211.496 123.474 213.747 125.066 215.59 127.036C217.195 129.025 218.447 131.458 219.352 134.363C220.117 137.301 220.632 140.722 220.921 144.618Z" stroke="#AFFF89" stroke-width="2" stroke-linecap="round" stroke-dasharray="8 6"/>
<path opacity="0.43" d="M219.162 152.199C219.184 155.794 219.036 159.551 218.773 163.383C218.633 167.146 218.398 170.929 218.067 174.636C217.876 178.181 217.537 181.565 217.012 184.672C216.181 188.741 212.84 194.157 210.088 195.297C208.06 195.608 205.594 195.506 202.738 195.083C199.956 194.731 196.9 194.37 193.66 194.179C190.703 194.525 187.693 195.349 184.69 196.745C182.067 198.902 179.546 201.491 177.086 204.339C174.828 207.58 172.463 210.722 169.965 213.57C167.44 216.325 164.675 218.505 161.715 220.026C158.647 221.186 155.421 221.617 152.146 221.355C148.852 220.719 145.643 219.466 142.662 217.68C139.815 215.623 137.321 213.13 135.31 210.289C133.52 207.275 132.264 203.984 131.588 200.492C131.113 196.901 131.169 193.162 131.741 189.342C132.342 185.504 133.293 181.809 134.475 178.306C135.497 174.838 136.642 171.561 137.842 168.478C138.777 165.423 139.732 162.504 140.67 159.693C141.325 156.827 141.98 153.98 142.651 151.107C143.071 148.097 143.549 144.992 144.117 141.788C144.525 138.446 145.103 135.023 145.903 131.601C146.677 128.176 147.781 124.881 149.285 121.852C150.915 119.072 153.049 116.734 155.723 114.959C158.624 113.628 161.952 112.969 165.607 112.915C169.413 113.203 173.455 113.953 177.608 115.059C181.766 116.271 185.922 117.699 189.959 119.266C193.873 120.766 197.586 122.346 201.018 123.999C204.24 125.536 207.143 127.186 209.672 128.98C211.97 130.705 213.902 132.65 215.434 134.86C216.778 137.059 217.762 139.585 218.395 142.454C218.921 145.34 219.169 148.592 219.162 152.199Z" stroke="#AFFF89" stroke-width="2" stroke-linecap="round" stroke-dasharray="6 2"/>
<path opacity="0.8" d="M216.095 158.371C215.855 161.634 215.411 164.955 214.81 168.267C214.311 171.524 213.667 174.721 212.898 177.773C212.233 180.694 211.412 183.404 210.412 185.805C208.893 188.914 204.595 192.712 201.688 193.333C198.497 193.362 190.846 192.409 186.608 192.124C183.933 192.447 181.18 193.134 178.38 194.25C175.837 195.99 173.355 198.047 170.923 200.294C168.643 202.899 166.315 205.434 163.946 207.745C161.598 210.048 159.145 211.905 156.626 213.239C152.792 214.57 145.231 213.814 141.859 211.865C139.798 210.173 138.049 208.062 136.694 205.596C135.515 202.991 134.765 200.107 134.488 197.014C134.356 193.853 134.664 190.53 135.391 187.104C136.147 183.668 137.191 180.324 138.425 177.1C139.544 173.891 140.78 170.798 142.06 167.821C143.141 164.848 144.235 161.94 145.325 159.091C146.192 156.187 147.063 153.269 147.943 150.339C148.63 147.303 149.374 144.212 150.192 141.088C150.898 137.882 151.746 134.672 152.783 131.534C153.811 128.443 155.105 125.536 156.718 122.917C158.423 120.543 160.511 118.591 163.019 117.173C165.683 116.135 168.644 115.714 171.829 115.851C175.125 116.291 178.578 117.181 182.098 118.435C185.628 119.817 189.14 121.449 192.538 123.246C195.854 125.034 198.987 126.934 201.867 128.919C204.6 130.83 207.041 132.836 209.144 134.945C211.072 136.995 212.657 139.194 213.869 141.562C214.938 143.909 215.663 146.474 216.044 149.265C216.346 152.058 216.359 155.099 216.095 158.371Z" stroke="#AFFF89" stroke-width="2" stroke-linecap="round" stroke-dasharray="8 10"/>
<path opacity="0.42" d="M211.928 162.749C211.063 168.517 209.401 174.085 207.187 178.993C205.322 183.527 202.77 186.993 199.511 188.992C196.431 190.417 192.451 190.54 187.684 189.733C183.244 189.531 178.253 189.745 172.964 190.956C168.319 194.135 163.74 197.871 159.319 201.316C155.064 204.961 150.763 207.014 146.816 207.153C143.058 206.525 140.028 204.034 138.249 200.079C136.991 195.704 137.132 190.318 138.763 184.324C140.489 178.302 142.995 172.399 145.783 166.775C148.001 161.103 150.307 155.422 152.603 149.779C154.372 143.887 156.414 137.927 158.924 132.328C161.41 127.03 164.822 122.767 169.332 120.257C174.257 119.028 179.864 119.877 185.623 122.283C191.436 125.254 196.97 129.096 201.669 133.365C205.98 137.52 209.22 142.035 211.101 146.868C212.585 151.641 212.867 156.959 211.928 162.749Z" stroke="#AFFF89" stroke-width="2" stroke-linecap="round" stroke-dasharray="10 10"/>
<path opacity="0.17" d="M207.007 165.175C205.815 170.139 203.838 174.636 201.327 178.36C199.086 181.843 196.254 184.312 192.92 185.567C189.787 186.553 186.033 186.563 181.784 185.905C177.778 185.869 173.35 186.105 168.66 186.978C164.348 189.351 160.149 192.041 156.226 194.492C152.471 197.265 148.942 198.863 145.939 199.005C143.158 198.7 141.134 196.862 140.19 193.722C139.624 190.295 140.212 185.876 141.997 180.75C143.859 175.612 146.377 170.352 149.165 165.176C151.576 159.953 154.127 154.631 156.706 149.366C158.933 143.989 161.4 138.686 164.186 133.878C166.961 129.423 170.368 125.967 174.463 124.082C178.814 123.23 183.475 124.18 188.066 126.502C192.705 129.375 196.998 133.119 200.542 137.31C203.845 141.516 206.218 146.031 207.431 150.686C208.383 155.312 208.258 160.198 207.007 165.175Z" stroke="#AFFF89" stroke-width="2" stroke-linecap="round" stroke-dasharray="10 6"/>
<path opacity="0.07" d="M201.737 165.742C200.348 169.876 198.256 173.397 195.702 176.143C193.336 178.756 190.499 180.487 187.315 181.272C184.306 181.996 180.877 182.015 177.148 181.558C173.58 181.66 169.696 181.894 165.641 182.467C161.775 184.14 158.084 185.94 154.742 187.524C146.941 189.905 143.077 182.358 145.336 176.366C147.224 172.114 149.686 167.595 152.408 163.027C154.906 158.44 157.59 153.724 160.331 149.091C162.857 144.458 165.577 139.983 168.483 136.058C171.378 132.476 174.651 129.799 178.276 128.459C182.041 127.918 185.82 128.867 189.369 130.967C192.939 133.552 196.11 136.944 198.616 140.758C200.982 144.678 202.558 148.864 203.17 153.086C203.633 157.315 203.175 161.605 201.737 165.742Z" stroke="#AFFF89" stroke-width="2" stroke-linecap="round"/>
<path opacity="0.11" d="M196.496 164.782C195.038 168.082 193.007 170.766 190.61 172.755C188.329 174.697 185.69 175.931 182.819 176.466C180.066 177.056 177.035 177.147 173.836 176.896C170.722 177.084 167.407 177.298 164.006 177.626C160.682 178.708 157.591 179.774 154.874 180.65C148.843 181.939 146.794 176.106 149.04 171.384C150.848 168.009 153.157 164.309 155.73 160.509C158.173 156.716 160.836 152.804 163.571 149.007C166.177 145.27 168.936 141.734 171.777 138.728C174.598 136.018 177.6 134.067 180.709 133.19C183.873 132.89 186.852 133.758 189.495 135.539C192.144 137.703 194.371 140.551 196.011 143.776C197.572 147.136 198.48 150.725 198.621 154.305C198.677 157.91 197.984 161.479 196.496 164.782Z" stroke="#AFFF89" stroke-width="2" stroke-linecap="round" stroke-dasharray="10 11"/>
<path opacity="0.6" d="M191.556 162.8C188.822 167.807 184.405 170.71 179.449 171.506C174.744 172.671 169.243 172.863 163.786 172.66C156.216 174.795 149.988 172.772 153.306 166.248C156.533 161.15 161.373 154.964 166.486 149.205C171.324 143.76 176.688 139.424 181.77 138.055C186.884 138.207 190.81 141.573 192.819 146.447C194.657 151.801 194.368 157.787 191.556 162.8Z" stroke="#AFFF89" stroke-width="2" stroke-linecap="round" stroke-dasharray="4 8"/>
<path opacity="0.51" d="M187.038 160.382C184.659 163.915 181.063 165.998 177.138 166.706C173.309 167.723 168.984 168.029 164.924 167.787C159.289 168.626 155.335 166.158 158.203 161.524C160.862 157.947 164.862 153.672 169.113 149.818C173.224 146.22 177.652 143.514 181.548 142.859C185.402 143.082 188.027 145.457 189.099 148.865C190.079 152.615 189.46 156.851 187.038 160.382Z" stroke="#AFFF89" stroke-width="2" stroke-linecap="round" stroke-dasharray="3 11"/>
<path opacity="0.29" d="M182.894 158.093C179.373 162.499 172.613 164.095 167.298 163.19C161.763 164.061 159.907 162.255 163.633 157.815C167.455 153.381 174.882 148.167 180.204 147.424C185.325 148.277 186.506 153.692 182.894 158.093Z" stroke="#AFFF89" stroke-width="2" stroke-linecap="round" stroke-dasharray="7 8"/>
</svg>
