<svg width="303" height="279" viewBox="0 0 303 279" fill="none" xmlns="http://www.w3.org/2000/svg">
<path opacity="0.8" d="M158.329 40.2493C162.23 41.3897 166.177 42.6033 170.157 43.8379C174.138 44.8911 178.137 45.8886 182.126 46.8093C186.087 47.4858 189.992 48.0857 193.795 48.6193C197.503 48.9436 201.029 49.261 204.309 49.6062C207.404 49.8504 210.161 50.2026 212.509 50.6978C215.41 51.5732 218.535 54.6422 218.933 56.9265C219.084 58.6912 219.122 60.7279 219.209 63.0157C219.724 65.45 220.629 68.1109 222.099 70.9707C224.387 73.942 227.439 77.0738 231.287 80.3346C235.908 83.6687 241.105 87.0969 246.634 90.5983C252.229 94.1346 257.501 97.7163 262.053 101.326C265.64 104.949 267.89 108.587 268.587 112.221C267.894 115.862 265.731 119.499 262.356 123.123C258.44 126.746 254.244 130.352 250.32 133.937C247.434 137.523 245.775 141.08 245.635 144.599C247.237 148.118 250.161 151.507 253.975 154.758C258.395 158.001 262.606 161.098 266.068 164.031C268.591 166.943 269.609 169.684 269.019 172.241C267.004 174.769 263.561 177.102 259.012 179.237C253.789 181.347 248.206 183.261 242.654 184.991C237.491 186.717 232.939 188.29 229.151 189.727C225.262 191.942 222.262 196.399 222.224 198.892C222.527 200.849 222.682 202.976 222.546 205.316C222.258 207.977 221.489 210.882 220.213 214.021C218.618 217.449 216.512 221.055 213.941 224.78C211.089 228.613 207.862 232.41 204.351 236.051C200.666 239.518 196.795 242.615 192.81 245.213C188.75 247.351 184.648 248.816 180.55 249.538C176.437 249.653 172.358 249.001 168.343 247.609C164.336 245.747 160.397 243.326 156.537 240.474C152.678 237.551 148.985 234.583 145.44 231.73C141.88 229.247 138.452 227.106 135.138 225.376C131.786 224.229 128.517 223.524 125.313 223.231C122.033 223.458 118.78 223.957 115.53 224.633C112.174 225.575 108.788 226.485 105.364 227.266C101.816 228.02 98.2175 228.47 94.5777 228.553C90.8546 228.407 87.1315 227.81 83.4386 226.757C79.7686 225.404 76.2197 223.601 72.8564 221.39C69.6521 218.91 66.7282 216.082 64.1451 212.968C61.8158 209.675 59.8652 206.171 58.3086 202.519C56.9716 198.777 55.9603 194.948 55.2293 191.077C54.5324 187.185 53.9605 183.289 53.4378 179.418C52.722 175.557 51.9191 171.735 51.0025 167.968C49.7867 164.223 48.4535 160.533 47.0521 156.899C45.4879 153.286 44.0108 149.722 42.7268 146.217C41.5754 142.722 40.8065 139.273 40.5073 135.883C40.53 132.497 41.0565 129.236 42.0299 126.115C43.2078 122.987 44.6736 119.987 46.3136 117.124C47.874 114.258 49.4307 111.52 50.9116 108.918C52.1084 106.303 53.1803 103.816 54.131 101.455C54.8241 99.066 55.502 96.7921 56.2217 94.6194C56.8921 92.3979 57.7632 90.2531 58.8994 88.178C60.1985 86.0157 61.8575 83.8884 63.8876 81.7784C66.1752 79.5499 68.8303 77.3075 71.8034 75.0441C74.9849 72.6342 78.4088 70.1895 82.0108 67.7064C85.6998 65.0873 89.4797 62.4472 93.3051 59.8072C97.0964 57.0869 100.88 54.412 104.63 51.8243C108.292 49.2575 111.917 46.8511 115.504 44.661C118.996 42.6068 122.476 40.8422 125.961 39.4158C129.373 38.2091 132.824 37.3826 136.331 36.9501C139.8 36.7513 143.353 36.9257 147.012 37.4593C150.655 38.1359 154.424 39.081 158.325 40.2458" stroke="#A9FF81" stroke-width="2" stroke-linecap="round" stroke-dasharray="2 4"/>
<path opacity="0.8" d="M167.039 44.8724C170.724 46.2413 174.398 47.6899 178.045 49.1577C181.693 50.4543 185.306 51.7067 188.846 52.8809C192.365 53.8265 195.77 54.6877 199.013 55.4755C202.173 56.0516 205.104 56.5954 207.747 57.1343C211.305 57.7852 216.242 59.4943 217.567 60.7342C218.386 62.2908 219.139 66.78 219.78 69.7619C220.762 72.0039 222.188 74.4986 224.188 77.2298C226.928 80.1245 230.327 83.2334 234.365 86.5237C238.96 89.9272 243.909 93.469 248.966 97.0983C253.882 100.767 258.314 104.468 261.924 108.15C264.545 111.792 265.876 115.375 265.768 118.867C264.439 122.291 261.836 125.632 258.222 128.89C254.218 132.129 250.042 135.336 246.19 138.533C243.32 141.797 241.586 145.096 241.227 148.436C242.455 151.88 244.895 155.265 248.173 158.562C252.057 161.888 255.835 165.056 259.024 168.026C261.448 170.931 262.581 173.585 262.288 175.968C260.697 178.253 257.755 180.271 253.705 182.039C248.895 183.754 243.581 185.272 238.116 186.626C232.818 188.019 227.919 189.322 223.605 190.57C220.029 191.952 217.187 193.351 215.034 194.799C213.608 196.461 212.671 198.228 212.054 200.132C211.796 202.304 211.559 204.652 211.19 207.187C210.807 210.001 210.08 212.999 208.957 216.16C207.616 219.534 205.816 222.997 203.592 226.496C201.127 230.027 198.29 233.444 195.14 236.644C191.839 239.632 188.326 242.225 184.665 244.312C180.951 245.948 177.169 246.947 173.38 247.242C169.598 246.993 165.848 246.039 162.153 244.407C158.487 242.361 154.878 239.805 151.334 236.855C147.795 233.838 144.377 230.777 141.062 227.813C137.711 225.169 134.424 222.822 131.189 220.843C127.877 219.379 124.583 218.319 121.294 217.637C117.899 217.437 114.488 217.505 111.048 217.761C107.502 218.289 103.922 218.828 100.314 219.29C96.6245 219.77 92.9265 220.015 89.24 219.961C85.5475 219.738 81.9262 219.132 78.4186 218.131C75.0137 216.882 71.8064 215.233 68.8555 213.213C66.12 210.958 63.7132 208.379 61.6766 205.526C59.8995 202.509 58.5026 199.285 57.4786 195.904C56.6364 192.43 56.0831 188.853 55.7545 185.216C55.418 181.534 55.1595 177.825 54.9091 174.11C54.4364 170.373 53.86 166.651 53.1525 162.955C52.1495 159.25 51.034 155.576 49.8573 151.958C48.5365 148.337 47.3097 144.779 46.2826 141.289C45.3948 137.816 44.8842 134.423 44.8261 131.122C45.1006 127.84 45.8557 124.728 47.0391 121.774C48.4454 118.834 50.129 116.042 51.9879 113.39C53.7946 110.725 55.5991 108.189 57.33 105.77C58.798 103.313 60.1285 100.966 61.3184 98.7187C62.2428 96.4189 63.1071 94.2096 63.965 92.0838C64.7292 89.8924 65.636 87.7733 66.7473 85.7094C67.9746 83.5691 69.518 81.4669 71.3932 79.3932C73.508 77.2163 75.9831 75.0453 78.7885 72.8748C81.8231 70.5864 85.1356 68.288 88.673 65.9798C92.3473 63.5687 96.1657 61.1599 100.07 58.7742C104.008 56.3417 107.975 53.9776 111.933 51.7213C115.847 49.5005 119.725 47.4592 123.559 45.6353C127.318 43.9534 131.032 42.5587 134.71 41.4903C138.314 40.6339 141.902 40.14 145.484 40.0233C149.019 40.1204 152.572 40.5752 156.16 41.368C159.727 42.2922 163.35 43.4717 167.036 44.8687" stroke="#A9FF81" stroke-width="2" stroke-linecap="round" stroke-dasharray="9 5"/>
<path opacity="0.59" d="M173.822 49.9497C177.252 51.5252 180.602 53.1644 183.87 54.8209C187.15 56.324 190.335 57.7724 193.398 59.1485C196.453 60.3016 199.345 61.3666 202.041 62.339C205.87 63.4594 211.979 65.2971 214.123 66.1797C216.709 68.3635 219.171 73.7296 220.517 76.5122C222.013 78.6451 223.953 81.0543 226.416 83.7329C229.501 86.6019 233.107 89.7151 237.17 93.036C241.584 96.4908 246.14 100.084 250.604 103.76C254.767 107.454 258.326 111.142 261.004 114.764C262.713 118.292 263.202 121.695 262.388 124.939C260.526 128.063 257.582 131.052 253.809 133.916C249.782 136.757 245.68 139.567 241.924 142.391C239.098 145.34 237.306 148.381 236.755 151.532C237.629 154.87 239.607 158.214 242.373 161.513C245.735 164.89 249.072 168.113 251.967 171.122C254.252 174.042 255.454 176.661 255.41 178.959C254.215 181.1 251.762 182.921 248.232 184.453C243.902 185.888 238.966 187.109 233.729 188.179C228.462 189.287 223.392 190.34 218.72 191.391C214.591 192.616 211.065 193.92 208.142 195.338C205.876 197.008 204.11 198.837 202.73 200.837C201.763 203.12 200.939 205.584 200.115 208.22C199.395 211.11 198.476 214.139 197.285 217.276C195.981 220.569 194.323 223.881 192.304 227.154C190.123 230.402 187.607 233.476 184.802 236.283C181.885 238.85 178.758 240.995 175.475 242.637C172.167 243.846 168.785 244.443 165.375 244.381C162.002 243.828 158.641 242.624 155.319 240.802C152.044 238.616 148.805 235.959 145.598 232.937C142.404 229.857 139.276 226.721 136.205 223.664C133.081 220.881 129.962 218.353 126.835 216.134C123.609 214.377 120.348 212.975 117.039 211.908C113.611 211.288 110.133 210.921 106.603 210.745C102.976 210.845 99.3161 210.987 95.6466 211.092C91.9284 211.264 88.2443 211.265 84.6307 211.032C81.0599 210.696 77.6285 210.05 74.3817 209.076C71.2894 207.918 68.4572 206.414 65.9417 204.591C63.6617 202.581 61.7441 200.281 60.2125 197.735C58.9298 195.038 58.01 192.145 57.4356 189.097C57.0062 185.952 56.8205 182.69 56.8157 179.347C56.76 175.937 56.7481 172.466 56.7105 168.963C56.4329 165.404 56.0433 161.827 55.5166 158.247C54.7124 154.63 53.8032 151.024 52.8421 147.456C51.7642 143.878 50.7844 140.357 50.0066 136.916C49.374 133.502 49.1127 130.184 49.2923 126.985C49.7901 123.83 50.7557 120.867 52.1291 118.088C53.7286 115.331 55.6014 112.737 57.6505 110.289C59.6713 107.827 61.6975 105.478 63.6611 103.237C65.3848 100.94 66.9697 98.7241 68.4054 96.5834C69.5731 94.369 70.6471 92.2163 71.6768 90.1282C72.5815 87.9568 73.5694 85.8422 74.7024 83.7782C75.905 81.6352 77.3691 79.5334 79.1186 77.4655C81.0791 75.3195 83.3766 73.1963 85.9917 71.0971C88.8414 68.9158 91.9867 66.7521 95.3741 64.6058C98.9394 62.3983 102.686 60.2287 106.555 58.1102C110.506 55.9813 114.52 53.9416 118.551 52.0346C122.581 50.1872 126.583 48.5229 130.542 47.0854C134.448 45.7926 138.292 44.7838 142.064 44.0863C145.775 43.5887 149.425 43.4353 153.014 43.6331C156.552 44.0288 160.052 44.754 163.518 45.7953C166.959 46.9496 170.393 48.346 173.819 49.9457" stroke="#A9FF81" stroke-width="2" stroke-linecap="round"/>
<path opacity="0.3" d="M178.652 55.1694C181.786 56.9127 184.788 58.7083 187.661 60.5071C190.552 62.1632 193.304 63.7668 195.902 65.2829C198.505 66.5966 200.927 67.8067 203.136 68.9175C206.294 70.2412 211.249 72.366 213.006 73.3198C214.486 74.2475 216.658 76.7314 217.726 78.48C218.742 79.8544 219.953 81.4886 221.453 83.394C223.429 85.5039 225.81 87.901 228.629 90.5807C231.921 93.4575 235.58 96.5853 239.509 99.9232C243.601 103.372 247.652 106.948 251.442 110.576C254.815 114.186 257.503 117.742 259.297 121.182C260.17 124.48 259.922 127.602 258.519 130.513C256.235 133.279 253.046 135.873 249.2 138.33C245.214 140.77 241.224 143.195 237.596 145.663C234.834 148.302 233.006 151.09 232.283 154.043C232.837 157.249 234.382 160.522 236.659 163.798C239.507 167.186 242.401 170.441 244.971 173.488C247.084 176.439 248.298 179.072 248.444 181.352C247.59 183.438 245.594 185.169 242.578 186.573C238.757 187.84 234.263 188.874 229.354 189.741C224.258 190.631 219.179 191.478 214.31 192.341C209.793 193.385 205.723 194.542 202.148 195.854C199.114 197.434 196.547 199.205 194.374 201.18C192.624 203.438 191.092 205.885 189.672 208.501C188.435 211.348 187.128 214.311 185.674 217.341C184.216 220.484 182.517 223.601 180.561 226.624C178.521 229.588 176.219 232.333 173.683 234.77C171.095 236.962 168.323 238.718 165.415 239.973C162.521 240.824 159.553 241.09 156.552 240.739C153.611 239.943 150.671 238.549 147.75 236.587C144.892 234.306 142.046 231.593 139.202 228.526C136.367 225.415 133.557 222.234 130.754 219.105C127.891 216.213 124.985 213.527 122.022 211.097C118.953 209.074 115.799 207.351 112.567 205.928C109.214 204.908 105.783 204.122 102.292 203.525C98.7143 203.203 95.1094 202.946 91.5148 202.696C87.9075 202.55 84.365 202.291 80.9351 201.866C77.5919 201.402 74.4358 200.699 71.5132 199.743C68.782 198.664 66.3476 197.309 64.2612 195.691C62.417 193.931 60.9442 191.925 59.8544 189.704C58.9878 187.357 58.4621 184.828 58.2441 182.141C58.1301 179.358 58.2172 176.443 58.444 173.427C58.5867 170.324 58.7428 167.13 58.8522 163.87C58.7216 160.527 58.4751 157.132 58.0969 153.705C57.4618 150.215 56.7437 146.717 55.9896 143.24C55.14 139.74 54.401 136.298 53.8642 132.935C53.4815 129.61 53.4566 126.395 53.853 123.316C54.5634 120.304 55.7141 117.496 57.2517 114.889C59.0206 112.321 61.052 109.922 63.2624 107.67C65.4678 105.406 67.6917 103.245 69.8674 101.175C71.8302 99.0377 73.6628 96.9602 75.3491 94.9288C76.7738 92.8063 78.0821 90.7179 79.3192 88.669C80.4041 86.5257 81.5195 84.417 82.7302 82.3485C83.9592 80.2016 85.3926 78.0916 87.0668 76.0292C88.9039 73.8991 91.0376 71.8099 93.4706 69.7655C96.1198 67.6748 99.0574 65.6267 102.245 63.6353C105.624 61.6211 109.2 59.6744 112.931 57.8152C116.772 55.978 120.698 54.2609 124.669 52.6956C128.664 51.2133 132.656 49.9267 136.598 48.8692C140.517 47.964 144.363 47.3334 148.118 46.9986C151.82 46.8532 155.432 47.0288 158.942 47.5267C162.402 48.2037 165.776 49.1848 169.065 50.4486C172.326 51.8139 175.519 53.4014 178.648 55.1686" stroke="#A9FF81" stroke-width="2" stroke-linecap="round" stroke-dasharray="4 10"/>
<path opacity="0.9" d="M181.734 60.2677C184.543 62.1428 187.188 64.0504 189.673 65.9517C192.184 67.7218 194.533 69.4305 196.713 71.0471C199.927 73.1392 205.409 76.5081 207.628 77.8408C211.24 79.9702 215.727 83.6547 217.408 85.4684C218.874 86.8871 220.558 88.5672 222.525 90.5228C224.893 92.6723 227.595 95.1142 230.617 97.8269C233.965 100.721 237.524 103.849 241.178 107.159C244.829 110.544 248.29 114.02 251.36 117.508C253.945 120.924 255.809 124.247 256.795 127.404C256.936 130.379 256.067 133.139 254.198 135.668C251.607 138.027 248.277 140.214 244.433 142.264C240.547 144.313 236.713 146.373 233.239 148.503C230.557 150.848 228.711 153.391 227.841 156.144C228.098 159.201 229.241 162.371 231.05 165.595C233.406 168.961 235.853 172.224 238.082 175.303C239.98 178.293 241.142 180.967 241.415 183.283C240.829 185.382 239.231 187.101 236.688 188.478C233.369 189.677 229.35 190.619 224.834 191.375C220.015 192.115 215.063 192.802 210.153 193.504C205.42 194.361 200.974 195.343 196.889 196.482C193.214 197.887 189.938 199.5 187.023 201.319C184.501 203.42 182.237 205.713 180.147 208.169C178.29 210.84 176.471 213.612 174.619 216.425C172.85 219.33 170.959 222.18 168.915 224.903C166.875 227.55 164.665 229.949 162.299 232.03C159.943 233.867 157.454 235.272 154.872 236.185C152.346 236.731 149.761 236.724 147.156 236.141C144.636 235.167 142.112 233.637 139.595 231.586C137.155 229.253 134.703 226.519 132.231 223.448C129.775 220.338 127.306 217.145 124.805 213.976C122.242 211.008 119.601 208.198 116.874 205.597C114.034 203.343 111.086 201.347 108.037 199.608C104.87 198.232 101.615 197.07 98.3007 196.088C94.9115 195.379 91.5033 194.757 88.1255 194.175C84.7535 193.726 81.4774 193.222 78.3469 192.619C75.3188 192.029 72.5125 191.273 69.9717 190.337C67.6211 189.336 65.5934 188.123 63.9166 186.71C61.929 184.342 60.01 178.511 59.9365 175.111C60.0322 172.689 60.297 170.131 60.6679 167.449C60.9227 164.659 61.1739 161.756 61.3728 158.755C61.3324 155.651 61.1888 152.461 60.9273 149.207C60.4409 145.878 59.8885 142.521 59.3252 139.161C58.6892 135.782 58.1762 132.449 57.8705 129.198C57.7202 125.992 57.9154 122.903 58.5163 119.966C59.4165 117.105 60.7279 114.467 62.4088 112.033C64.3164 109.655 66.4818 107.448 68.8298 105.387C71.1929 103.316 73.5879 101.345 75.9513 99.4483C78.1377 97.4754 80.2047 95.5434 82.1338 93.6362C83.8208 91.6209 85.3861 89.6167 86.8561 87.627C88.1502 85.5323 89.4437 83.452 90.7803 81.3976C92.0953 79.2613 93.5569 77.1604 95.2015 75.1047C96.9613 72.9963 98.9726 70.9405 101.24 68.9492C103.69 66.938 106.41 64.9986 109.371 63.1453C112.507 61.3022 115.851 59.5585 119.355 57.9371C122.975 56.3687 126.703 54.9487 130.492 53.6976C134.322 52.552 138.158 51.6148 141.96 50.9117C145.748 50.3647 149.47 50.0796 153.086 50.0787C156.666 50.2568 160.129 50.7305 163.468 51.498C166.764 52.4282 169.938 53.631 172.986 55.0834C176.009 56.6306 178.928 58.3682 181.73 60.2667" stroke="#A9FF81" stroke-width="2" stroke-linecap="round" stroke-dasharray="6 9"/>
<path opacity="0.75" d="M183.459 65.0843C185.933 67.0523 188.227 69.0373 190.352 71.002C192.51 72.8518 194.506 74.6352 196.333 76.3244C199.065 78.5579 203.772 82.241 205.762 83.744C207.702 85.0183 211.193 87.505 212.934 88.9127C214.294 89.9454 215.734 91.147 217.313 92.5589C219.182 94.1026 221.26 95.9026 223.58 97.9634C226.214 100.201 229.082 102.707 232.146 105.462C235.401 108.356 238.712 111.443 241.97 114.673C245.101 117.926 247.92 121.222 250.271 124.479C252.102 127.615 253.211 130.614 253.486 133.412C253.013 135.999 251.654 138.351 249.438 140.462C246.652 142.405 243.276 144.178 239.509 145.838C235.77 147.518 232.123 149.233 228.824 151.055C226.244 153.128 224.398 155.427 223.401 157.98C223.392 160.872 224.164 163.92 225.531 167.063C227.411 170.379 229.415 173.626 231.281 176.722C232.922 179.745 233.98 182.471 234.304 184.851C233.914 187.008 232.64 188.784 230.511 190.203C227.66 191.419 224.116 192.351 220.029 193.073C215.559 193.736 210.839 194.319 206.027 194.888C201.236 195.577 196.586 196.365 192.161 197.3C188.009 198.468 184.166 199.834 180.627 201.4C177.415 203.226 174.465 205.236 171.723 207.402C169.228 209.768 166.849 212.217 164.531 214.706C162.354 217.264 160.161 219.754 157.925 222.107C155.765 224.382 153.534 226.409 151.234 228.116C149 229.596 146.709 230.663 144.377 231.267C142.137 231.541 139.884 231.302 137.627 230.526C135.48 229.416 133.335 227.794 131.204 225.693C129.153 223.352 127.092 220.632 124.996 217.596C122.919 214.521 120.807 211.353 118.644 208.183C116.421 205.181 114.099 202.295 111.678 199.568C109.142 197.148 106.491 194.935 103.732 192.941C100.859 191.273 97.906 189.797 94.8952 188.494C91.8156 187.455 88.7372 186.523 85.7023 185.655C82.6787 184.95 79.7693 184.232 77.0242 183.477C74.3872 182.784 71.9813 181.987 69.8477 181.075C67.0757 179.619 63.4769 175.87 62.6554 173.562C62.3441 170.978 62.9188 164.904 63.5205 161.429C63.8193 158.944 64.1035 156.324 64.3332 153.577C64.3369 150.71 64.2543 147.735 64.0812 144.674C63.7097 141.523 63.3051 138.324 62.9115 135.117C62.4721 131.884 62.1704 128.69 62.078 125.578C62.1421 122.519 62.5376 119.58 63.3185 116.797C64.3851 114.108 65.8385 111.642 67.6395 109.387C69.6586 107.203 71.9333 105.186 74.3877 103.316C76.8757 101.443 79.4158 99.661 81.943 97.9419C84.33 96.1494 86.617 94.375 88.7826 92.6114C90.7244 90.7312 92.5492 88.8411 94.2639 86.9434C95.8027 84.9304 97.3057 82.9164 98.8131 80.9113C100.259 78.8184 101.798 76.7535 103.47 74.7299C105.204 72.664 107.136 70.6577 109.278 68.7302C111.555 66.7999 114.064 64.9634 116.788 63.2367C119.663 61.5463 122.729 59.9837 125.949 58.5701C129.283 57.2359 132.723 56.0712 136.232 55.0972C139.789 54.2437 143.36 53.6102 146.906 53.2099C150.444 52.9704 153.921 52.9852 157.295 53.2664C160.633 53.7208 163.855 54.4444 166.941 55.4378C169.981 56.5756 172.889 57.9546 175.65 59.5589C178.383 61.2429 180.988 63.0955 183.455 65.0831" stroke="#A9FF81" stroke-width="2" stroke-linecap="round" stroke-dasharray="9 3"/>
<path opacity="0.54" d="M184.327 69.5975C186.466 71.6201 188.434 73.6523 190.241 75.6561C192.087 77.5648 193.783 79.4041 195.339 81.1582C197.705 83.5236 201.934 87.5566 203.846 89.2786C205.841 90.8134 209.838 93.8779 212.009 95.5965C213.679 96.8359 215.462 98.2444 217.382 99.8475C219.555 101.571 221.899 103.529 224.419 105.725C227.16 108.062 230.029 110.629 232.979 113.397C235.992 116.257 238.941 119.254 241.713 122.335C244.272 125.392 246.44 128.425 248.096 131.376C249.236 134.166 249.682 136.78 249.36 139.171C248.403 141.333 246.677 143.256 244.238 144.941C241.362 146.472 238.023 147.857 234.391 149.151C230.846 150.488 227.412 151.895 224.307 153.438C221.844 155.255 220.013 157.326 218.909 159.687C218.662 162.4 219.089 165.307 220.041 168.345C221.469 171.576 223.036 174.785 224.53 177.871C225.881 180.909 226.78 183.684 227.083 186.139C226.807 188.377 225.774 190.243 223.988 191.755C221.552 193.041 218.451 194.031 214.799 194.781C210.722 195.431 206.317 195.961 201.712 196.442C197.014 196.988 192.323 197.594 187.731 198.31C183.296 199.21 179.06 200.277 175.055 201.519C171.307 202.983 167.785 204.613 164.48 206.387C161.411 208.331 158.499 210.352 155.715 212.402C153.107 214.515 150.57 216.561 148.082 218.471C145.728 220.314 143.391 221.915 141.074 223.222C137.78 224.691 131.492 225.14 128.522 223.977C126.68 222.758 124.866 221.073 123.081 218.956C121.383 216.634 119.679 213.962 117.954 210.99C116.242 207.986 114.496 204.879 112.695 201.749C110.832 198.763 108.878 195.853 106.821 193.069C104.655 190.541 102.376 188.185 100 186.011C97.5138 184.131 94.955 182.423 92.3542 180.878C89.6867 179.589 87.0309 178.411 84.4335 177.327C81.844 176.421 79.3727 175.546 77.0764 174.678C73.8746 173.496 68.9539 170.894 67.3513 169.38C66.2775 167.711 65.6879 163.642 66.0026 161.206C66.2565 159.43 66.6155 157.498 67.0306 155.417C67.3095 153.207 67.5696 150.841 67.7862 148.333C67.802 145.693 67.7512 142.926 67.6367 140.06C67.3604 137.1 67.0813 134.077 66.8404 131.036C66.5766 127.974 66.4633 124.944 66.5603 121.993C66.8194 119.102 67.3942 116.338 68.3367 113.722C69.5436 111.22 71.1127 108.937 73.008 106.862C75.1155 104.871 77.4678 103.051 80.001 101.37C82.5887 99.6968 85.2429 98.1084 87.9063 96.5774C90.4598 94.9741 92.9375 93.3814 95.3183 91.783C97.5025 90.0686 99.5737 88.3303 101.542 86.5646C103.332 84.6792 105.062 82.7726 106.766 80.867C108.385 78.8646 110.047 76.8841 111.792 74.9379C113.547 72.9461 115.447 71.0222 117.502 69.1815C119.643 67.3423 121.971 65.6147 124.477 64.0147C127.087 62.4655 129.865 61.066 132.781 59.8347C135.785 58.6937 138.892 57.7441 142.056 56.9983C145.263 56.3851 148.491 55.9944 151.696 55.8433C154.894 55.8455 158.036 56.0964 161.086 56.6037C164.099 57.2715 166.999 58.187 169.763 59.3481C172.484 60.6371 175.068 62.1483 177.507 63.8553C179.916 65.6306 182.191 67.5529 184.324 69.5961" stroke="#A9FF81" stroke-width="2" stroke-linecap="round" stroke-dasharray="6 3"/>
<path opacity="0.25" d="M184.851 73.9234C186.672 75.9739 188.343 78.025 189.873 80.0582C191.45 82.0038 192.909 83.8946 194.259 85.7122C196.359 88.2214 200.318 92.6699 202.253 94.6659C204.358 96.5246 208.871 100.321 211.397 102.423C213.306 103.911 215.32 105.559 217.457 107.385C219.792 109.307 222.243 111.428 224.796 113.749C227.479 116.164 230.193 118.756 232.885 121.495C235.547 124.263 238.042 127.111 240.278 129.981C242.245 132.769 243.783 135.488 244.796 138.076C245.328 140.47 245.219 142.666 244.423 144.624C243.103 146.354 241.133 147.849 238.578 149.13C235.704 150.272 232.473 151.297 229.032 152.262C225.711 153.302 222.517 154.432 219.609 155.728C217.27 157.31 215.47 159.17 214.277 161.336C213.819 163.865 213.931 166.618 214.502 169.526C215.501 172.646 216.643 175.778 217.755 178.828C218.799 181.856 219.492 184.659 219.71 187.179C219.474 189.497 218.602 191.469 217.079 193.095C214.994 194.485 212.295 195.572 209.055 196.398C205.389 197.085 201.347 197.614 197.038 198.049C192.55 198.487 187.97 198.935 183.385 199.443C178.845 200.073 174.414 200.825 170.134 201.71C166.029 202.766 162.107 203.959 158.382 205.27C154.861 206.718 151.517 208.237 148.335 209.774C145.344 211.361 142.484 212.891 139.742 214.301C137.167 215.647 134.691 216.785 132.306 217.658C129.01 218.544 123.065 218.141 120.411 216.728C118.805 215.406 117.265 213.676 115.777 211.557C114.382 209.278 113.001 206.673 111.62 203.795C110.256 200.89 108.869 197.882 107.439 194.837C105.953 191.911 104.384 189.039 102.733 186.257C100.974 183.694 99.1212 181.272 97.1918 179.009C95.1542 176.998 93.0538 175.145 90.9315 173.448C88.7405 171.987 86.5708 170.651 84.4619 169.424C81.3515 167.887 75.973 165.226 73.8698 163.983C71.2046 161.419 69.9737 156.643 70.3174 154.568C70.6982 152.186 71.5242 146.43 71.7999 143.057C71.7977 140.625 71.7559 138.054 71.682 135.376C71.4857 132.605 71.3101 129.77 71.2 126.904C71.0919 124.026 71.1454 121.182 71.417 118.406C71.8387 115.704 72.5698 113.128 73.6452 110.698C74.9707 108.393 76.6283 106.299 78.5961 104.411C80.7607 102.62 83.1657 100.991 85.7509 99.5039C88.4015 98.0369 91.136 96.6471 93.8992 95.3112C96.5847 93.9169 99.2209 92.526 101.783 91.1221C104.179 89.6044 106.479 88.0544 108.679 86.4673C110.71 84.757 112.673 83.0167 114.589 81.2611C116.392 79.4055 118.206 77.5597 120.058 75.7446C121.874 73.8801 123.788 72.0761 125.799 70.3558C127.846 68.6412 130.032 67.0428 132.342 65.5774C134.719 64.1653 137.226 62.9159 139.838 61.8457C142.508 60.8754 145.258 60.0993 148.057 59.5414C150.886 59.1091 153.722 58.9065 156.541 58.9405C159.35 59.124 162.1 59.5478 164.772 60.2144C167.403 61.0266 169.931 62.073 172.337 63.344C174.696 64.7306 176.931 66.3167 179.024 68.0783C181.095 69.9002 183.039 71.8574 184.848 73.9217" stroke="#A9FF81" stroke-width="2" stroke-linecap="round" stroke-dasharray="2 5"/>
<path opacity="0.22" d="M185.464 78.2879C186.988 80.3355 188.395 82.3973 189.691 84.4441C191.037 86.425 192.304 88.3641 193.502 90.2544C195.401 92.9168 199.2 97.8373 201.179 100.15C202.637 101.622 204.127 103.113 205.668 104.647C207.368 106.165 209.137 107.765 210.993 109.473C213.013 111.216 215.124 113.102 217.32 115.136C219.655 117.231 222.05 119.485 224.472 121.89C226.95 124.336 229.377 126.897 231.695 129.544C233.914 132.165 235.903 134.802 237.584 137.398C238.978 139.87 239.934 142.23 240.378 144.42C240.125 147.281 236.082 151.553 232.448 153.006C229.659 153.804 226.591 154.513 223.373 155.197C220.305 155.977 217.354 156.874 214.653 157.954C212.45 159.328 210.684 160.991 209.422 162.971C208.778 165.311 208.612 167.889 208.831 170.649C209.427 173.629 210.165 176.651 210.9 179.633C211.617 182.614 212.073 185.414 212.154 187.97C211.894 190.352 211.108 192.416 209.773 194.156C207.967 195.662 205.609 196.864 202.75 197.79C199.492 198.545 195.838 199.108 191.878 199.537C187.7 199.909 183.35 200.239 178.92 200.568C174.455 200.954 170.017 201.406 165.656 201.941C161.395 202.591 157.269 203.332 153.304 204.158C149.5 205.083 145.871 206.06 142.416 207.051C139.141 208.073 136.036 209.05 133.1 209.919C130.337 210.736 127.73 211.38 125.279 211.797C121.934 212.073 116.205 210.79 113.792 209.129C112.363 207.706 111.036 205.939 109.799 203.832C108.654 201.592 107.555 199.074 106.491 196.312C105.439 193.525 104.389 190.643 103.322 187.727C102.203 184.908 101.025 182.122 99.7913 179.41C98.4542 176.881 97.0517 174.467 95.5846 172.193C94.0171 170.136 92.4133 168.224 90.7914 166.462C88.2644 164.198 83.4367 160.539 81.3017 159.048C76.582 154.854 75.0866 150.116 75.3777 148.297C75.6525 146.174 76.2217 140.943 76.4025 137.829C76.3702 135.574 76.3258 133.179 76.2882 130.677C76.1506 128.092 76.0681 125.44 76.0772 122.758C76.1001 120.077 76.3002 117.424 76.7207 114.842C77.284 112.34 78.1437 109.96 79.333 107.727C80.7431 105.622 82.4675 103.726 84.4798 102.03C86.6713 100.438 89.0972 99.0081 91.702 97.7152C94.3802 96.4526 97.1551 95.2711 99.9766 94.1456C102.751 92.9718 105.506 91.7995 108.206 90.6157C110.773 89.3256 113.26 88.0014 115.661 86.6346C117.907 85.1455 120.083 83.623 122.197 82.0729C124.188 80.4268 126.162 78.7744 128.136 77.147C130.041 75.4632 131.995 73.8324 133.999 72.2799C135.997 70.7285 138.074 69.2847 140.236 67.9773C142.413 66.7199 144.679 65.6261 147.013 64.7078C149.373 63.8827 151.785 63.2617 154.229 62.8489C156.673 62.56 159.121 62.5002 161.544 62.6655C163.943 62.9697 166.295 63.5062 168.57 64.2785C170.801 65.1737 172.943 66.2895 174.973 67.6206C176.96 69.0465 178.837 70.6597 180.595 72.439C182.323 74.2673 183.946 76.2237 185.46 78.286" stroke="#A9FF81" stroke-width="2" stroke-linecap="round" stroke-dasharray="10 1"/>
<path opacity="0.38" d="M186.437 82.9665C187.693 84.9958 188.861 87.0523 189.959 89.1087C191.106 91.1158 192.209 93.1066 193.281 95.0718C194.435 96.9582 195.581 98.8182 196.735 100.657C197.998 102.419 199.29 104.173 200.621 105.933C202.087 107.641 203.603 109.379 205.186 111.171C206.909 112.945 208.702 114.802 210.568 116.751C212.566 118.716 214.619 120.796 216.72 122.987C218.903 125.203 221.088 127.529 223.24 129.949C225.388 132.357 227.426 134.826 229.296 137.311C231.029 139.72 232.493 142.089 233.628 144.37C234.709 147.476 234.065 152.487 232.233 154.285C230.52 155.216 228.377 155.955 225.855 156.532C223.203 157.038 220.34 157.483 217.376 157.938C214.565 158.501 211.863 159.203 209.367 160.101C207.3 161.293 205.58 162.774 204.259 164.572C203.46 166.719 203.045 169.115 202.946 171.698C203.177 174.509 203.536 177.39 203.907 180.261C204.3 183.157 204.495 185.913 204.405 188.468C204.065 190.875 203.303 193.004 202.088 194.835C200.491 196.446 198.421 197.758 195.899 198.794C193.02 199.636 189.759 200.262 186.187 200.712C182.374 201.063 178.358 201.316 174.202 201.513C169.964 201.702 165.684 201.897 161.424 202.119C157.203 202.393 153.065 202.715 149.054 203.079C145.153 203.505 141.413 203.953 137.841 204.403C134.426 204.869 131.196 205.291 128.155 205.624C125.287 205.91 122.613 206.055 120.13 206.013C116.767 205.673 111.209 203.512 108.984 201.601C107.692 200.076 106.54 198.264 105.513 196.178C104.576 193.984 103.718 191.557 102.926 188.925C102.15 186.272 101.41 183.544 100.681 180.785C99.8996 178.103 99.096 175.45 98.2627 172.862C97.3315 170.421 96.3605 168.082 95.3558 165.868C93.6855 162.887 90.1858 157.882 88.4669 155.837C85.3115 152.754 81.9038 149.11 81.3576 148.017C80.9283 145.53 81.221 140.541 81.4513 138.276C81.4873 136.59 81.543 134.744 81.6048 132.754C81.5435 130.643 81.4991 128.404 81.4863 126.061C81.4107 123.65 81.4096 121.18 81.5233 118.685C81.6652 116.196 81.9922 113.746 82.5366 111.365C83.2166 109.067 84.1796 106.892 85.4508 104.861C86.9233 102.966 88.6834 101.271 90.7081 99.7676C92.9029 98.3755 95.3166 97.1448 97.9066 96.0466C100.572 94.9952 103.349 94.028 106.188 93.1119C109.002 92.1695 111.816 91.232 114.607 90.2877C117.289 89.2515 119.916 88.183 122.469 87.0725C124.884 85.8516 127.233 84.59 129.516 83.3004C131.675 81.9107 133.796 80.5115 135.886 79.1265C137.893 77.6809 139.899 76.2777 141.922 74.9421C143.897 73.5958 145.904 72.3496 147.949 71.2328C149.973 70.149 152.041 69.2211 154.14 68.4659C157.283 67.5473 163.595 66.8762 166.69 67.164C169.685 67.8475 175.291 70.4828 177.847 72.3975C179.478 73.8231 181.013 75.4267 182.449 77.1888C183.858 78.9922 185.187 80.9239 186.434 82.9644" stroke="#A9FF81" stroke-width="2" stroke-linecap="round" stroke-dasharray="8 3"/>
<path opacity="0.36" d="M187.836 88.2038C188.854 90.2016 189.814 92.2408 190.731 94.3055C191.697 96.3269 192.649 98.3593 193.598 100.394C195.737 104.273 197.991 108.174 200.426 112.125C203.333 115.905 206.49 119.899 209.863 124.155C213.61 128.382 217.387 132.927 220.953 137.667C224.353 142.2 226.992 146.636 228.475 150.665C229.002 153.991 227.909 156.578 225.104 158.3C221.392 159.366 216.505 159.951 211.014 160.42C208.469 160.816 206.007 161.36 203.711 162.111C201.773 163.143 200.106 164.456 198.746 166.079C197.81 168.033 197.182 170.23 196.806 172.623C196.709 175.24 196.72 177.946 196.753 180.665C196.879 186.19 196.133 191.087 194.091 195.028C190.884 198.18 186.088 200.233 179.978 201.375C172.973 201.981 165.246 202.135 157.27 202.09C149.275 202.039 141.56 201.997 134.401 201.919C127.757 201.833 121.858 201.478 116.805 200.628C112.42 199.426 108.856 197.444 106.11 194.56C104.942 192.934 103.937 191.084 103.087 189.022C102.319 186.872 101.667 184.537 101.113 182.043C100.576 179.529 100.1 176.967 99.6699 174.386C99.1891 171.866 98.7162 169.375 98.2436 166.949C97.0182 162.457 95.73 158.384 94.4412 154.828C92.7916 151.878 91.3065 149.395 90.1435 147.339C88.3693 144.899 87.0491 140.307 87.2795 137.286C87.1691 134.731 87.2168 131.618 87.3696 127.955C87.1343 123.878 87.1395 119.417 87.5503 114.802C87.7987 112.51 88.2305 110.256 88.8812 108.078C89.653 105.995 90.6955 104.027 92.0245 102.202C93.5294 100.515 95.2985 99.0203 97.3118 97.7084C99.4755 96.5189 101.843 95.4801 104.387 94.5791C109.67 92.926 115.294 91.5172 120.983 90.1828C126.361 88.5672 131.546 86.8051 136.469 84.9163C140.92 82.6569 145.206 80.3873 149.364 78.2782C153.235 76.0865 157.115 74.3047 160.98 73.098C164.668 72.1321 168.325 71.9107 171.835 72.5091C175.13 73.4797 178.205 75.2756 180.96 77.8647C182.875 80.0434 186.296 85.2526 187.833 88.2015" stroke="#A9FF81" stroke-width="2" stroke-linecap="round" stroke-dasharray="7 8"/>
<path opacity="0.94" d="M189.54 94.1578C191.167 98.0446 192.708 102.137 194.26 106.342C196.105 110.353 198.104 114.478 200.295 118.703C202.888 122.773 205.681 127.039 208.594 131.487C211.76 135.811 214.823 140.291 217.536 144.768C220.011 148.903 221.689 152.758 222.257 156.079C222.036 158.688 220.432 160.552 217.425 161.627C213.813 162.185 209.289 162.379 204.306 162.559C199.919 163.287 195.99 164.804 192.868 167.387C191.116 171.208 190.118 175.807 189.455 180.757C189.037 185.967 187.962 190.697 185.896 194.62C182.965 197.859 178.727 200.06 173.355 201.325C167.191 201.977 160.297 202.019 153.081 201.667C145.742 201.137 138.56 200.434 131.828 199.582C125.497 198.643 119.866 197.441 115.076 195.842C110.88 193.953 107.541 191.48 105.078 188.333C103.083 184.832 101.765 180.696 101.019 176.017C100.334 171.281 99.9296 166.525 99.6615 161.96C99.0677 157.741 98.4914 153.913 97.9523 150.559C97.0271 147.677 96.2352 145.238 95.6725 143.196C94.5849 140.646 93.7246 135.805 93.8204 132.712C93.595 130.149 93.5331 127.094 93.6323 123.569C93.4331 119.697 93.5442 115.523 94.1256 111.256C94.8716 107.104 96.4456 103.235 99.0238 99.8677C102.2 97.0401 106.296 94.9218 111.112 93.4135C116.225 92.1739 121.708 91.2096 127.308 90.3651C132.682 89.313 137.941 88.1608 142.963 86.9072C147.563 85.3121 151.957 83.6967 156.136 82.1992C159.975 80.5764 163.693 79.2975 167.268 78.5156C170.585 77.8865 173.767 77.922 176.74 78.6918C179.462 79.7475 181.953 81.5623 184.15 84.1123C186.161 86.8662 187.948 90.2386 189.538 94.1553" stroke="#A9FF81" stroke-width="2" stroke-linecap="round" stroke-dasharray="9 10"/>
<path opacity="0.24" d="M191.263 100.833C192.506 104.609 193.706 108.656 194.946 112.871C196.443 116.938 198.088 121.163 199.888 125.508C202.016 129.699 204.267 134.04 206.546 138.461C208.982 142.689 211.211 146.918 213.02 150.972C214.589 154.602 215.377 157.826 215.169 160.436C214.365 162.382 212.418 163.625 209.352 164.177C205.922 164.35 201.791 164.267 197.308 164.256C193.368 164.804 189.737 166.105 186.665 168.381C184.685 171.793 183.255 175.931 182.08 180.438C181.172 185.254 179.782 189.717 177.654 193.507C174.929 196.749 171.163 199.036 166.477 200.401C161.142 201.14 155.149 201.168 148.822 200.653C142.332 199.832 135.908 198.692 129.851 197.29C124.095 195.728 118.955 193.886 114.604 191.713C110.755 189.299 107.737 186.444 105.593 183.115C103.856 179.519 102.824 175.479 102.417 171.073C102.065 166.619 102.068 162.224 102.274 158.045C102.187 154.119 102.176 150.551 102.22 147.414C101.876 144.62 101.627 142.214 101.529 140.156C100.982 137.43 100.499 132.113 100.525 128.831C100.262 126.195 100.168 123.151 100.273 119.725C100.163 116.033 100.41 112.128 101.15 108.2C102.064 104.426 103.761 100.961 106.374 98.0021C109.492 95.5628 113.433 93.8169 118.025 92.6682C122.889 91.814 128.127 91.2747 133.513 90.8994C138.76 90.3952 143.937 89.8451 148.92 89.2347C153.541 88.3273 157.938 87.4025 162.072 86.5617C165.851 85.5677 169.416 84.8458 172.742 84.533C175.768 84.2972 178.572 84.6198 181.113 85.5897C183.382 86.7494 185.399 88.5893 187.135 91.1053C188.69 93.7642 190.055 97.0203 191.263 100.833Z" stroke="#A9FF81" stroke-width="2" stroke-linecap="round" stroke-dasharray="6 5"/>
<path opacity="0.8" d="M192.632 108.046C193.527 111.695 194.381 115.632 195.267 119.762C196.369 123.773 197.571 127.957 198.872 132.241C200.434 136.369 202.032 140.575 203.574 144.765C205.216 148.708 206.588 152.517 207.521 156.028C208.265 160.377 205.148 165.346 201.06 165.864C197.866 165.776 194.136 165.527 190.124 165.398C186.588 165.828 183.237 166.946 180.241 168.93C178.092 171.932 176.325 175.588 174.74 179.599C173.419 183.956 171.755 188.057 169.562 191.618C166.985 194.76 163.625 197.058 159.56 198.487C155.009 199.326 149.913 199.408 144.524 198.863C138.984 197.936 133.466 196.571 128.244 194.857C123.24 192.923 118.766 190.685 114.991 188.151C111.63 185.405 109.033 182.321 107.247 178.91C105.812 175.3 105.059 171.393 104.935 167.261C104.865 163.096 105.178 159.047 105.734 155.227C106.03 151.582 106.435 148.263 106.905 145.308C107 142.59 107.162 140.195 107.398 138.082C107.284 136.071 107.285 134.175 107.414 132.296C107.216 130.287 107.154 128.098 107.234 125.66C107.018 122.925 106.973 119.867 107.148 116.535C107.183 113.012 107.589 109.368 108.487 105.781C109.557 102.371 111.337 99.2991 113.939 96.7325C116.958 94.6667 120.695 93.2678 124.999 92.4527C129.547 91.9485 134.451 91.7909 139.516 91.8493C144.503 91.8486 149.458 91.8662 154.255 91.8673C158.76 91.6313 163.042 91.3857 167.039 91.2049C170.7 90.8614 174.093 90.729 177.183 90.9157C179.962 91.1116 182.456 91.768 184.646 92.9595C186.563 94.2647 188.205 96.1556 189.568 98.6471C190.765 101.23 191.773 104.373 192.632 108.046Z" stroke="#A9FF81" stroke-width="2" stroke-linecap="round" stroke-dasharray="8 10"/>
<path opacity="0.2" d="M193.278 115.467C193.852 118.958 194.366 122.712 194.864 126.647C195.545 130.488 196.261 134.474 197.009 138.516C197.956 142.4 198.869 146.287 199.659 150.066C200.521 153.571 201.095 156.845 201.249 159.744C200.97 163.19 196.761 166.593 192.762 166.643C189.825 166.402 186.479 166.071 182.903 165.889C179.728 166.247 176.634 167.205 173.736 168.909C171.479 171.51 169.47 174.675 167.588 178.16C165.947 182.004 164.072 185.673 161.834 188.914C159.381 191.86 156.375 194.085 152.861 195.528C149.025 196.456 144.773 196.635 140.31 196.151C135.727 195.268 131.165 193.875 126.846 192.068C122.695 190.007 118.987 187.615 115.88 184.935C113.101 182.066 110.988 178.925 109.601 175.547C108.495 172.024 108.023 168.303 108.14 164.453C108.304 160.575 108.85 156.85 109.641 153.351C110.214 149.96 110.909 146.854 111.661 144.049C112.079 141.379 112.533 138.967 113.019 136.766C113.165 134.596 113.362 132.503 113.626 130.403C113.579 128.167 113.623 125.779 113.779 123.193C113.693 120.37 113.774 117.32 114.087 114.091C114.311 110.746 114.897 107.367 115.948 104.112C117.153 101.064 118.993 98.3698 121.543 96.1795C124.427 94.4549 127.915 93.3749 131.881 92.8608C136.058 92.6609 140.554 92.8357 145.205 93.2635C149.816 93.6989 154.425 94.2146 158.898 94.7627C163.151 95.1357 167.19 95.5214 170.95 95.9602C174.415 96.2479 177.583 96.691 180.419 97.3737C182.965 98.0243 185.19 99.0324 187.081 100.466C188.721 101.955 190.065 103.925 191.12 106.402C192.028 108.934 192.733 111.961 193.278 115.467Z" stroke="#A9FF81" stroke-width="2" stroke-linecap="round"/>
<path opacity="0.29" d="M192.907 122.64C193.191 125.931 193.369 129.433 193.485 133.068C193.746 136.627 193.98 140.277 194.178 143.925C194.53 147.421 194.794 150.843 194.898 154.075C195.063 157.052 194.951 159.732 194.471 162.003C193.39 164.605 188.489 166.74 184.677 166.492C181.999 166.188 179.008 165.846 175.828 165.659C172.971 165.976 170.117 166.797 167.34 168.234C165.038 170.44 162.883 173.112 160.818 176.061C158.958 179.359 156.945 182.542 154.711 185.39C152.373 188.064 149.676 190.136 146.653 191.532C143.441 192.514 139.958 192.796 136.346 192.436C132.671 191.701 129.031 190.428 125.611 188.703C122.318 186.725 119.399 184.393 116.984 181.767C114.822 178.973 113.226 175.939 112.249 172.715C111.493 169.384 111.293 165.909 111.614 162.356C111.976 158.778 112.687 155.358 113.628 152.136C114.391 148.978 115.275 146.046 116.213 143.345C116.86 140.716 117.531 138.266 118.201 135.965C118.57 133.648 118.956 131.366 119.368 129.071C119.514 126.637 119.723 124.087 120.024 121.405C120.135 118.537 120.41 115.528 120.902 112.439C121.344 109.295 122.124 106.201 123.317 103.284C124.642 100.583 126.504 98.2557 128.963 96.4196C131.687 95.0102 134.893 94.2113 138.483 93.9539C142.247 94.0024 146.279 94.4448 150.44 95.1717C154.588 95.9538 158.747 96.8745 162.788 97.8724C166.666 98.7543 170.354 99.6792 173.773 100.663C176.952 101.511 179.84 102.479 182.383 103.622C184.678 104.709 186.643 106.059 188.253 107.73C189.654 109.416 190.747 111.479 191.538 113.943C192.206 116.435 192.655 119.336 192.907 122.64Z" stroke="#A9FF81" stroke-width="2" stroke-linecap="round" stroke-dasharray="8 6"/>
<path opacity="0.43" d="M191.372 129.068C191.391 132.117 191.262 135.303 191.032 138.553C190.91 141.744 190.704 144.952 190.416 148.096C190.249 151.102 189.953 153.971 189.494 156.607C188.768 160.057 185.851 164.65 183.449 165.617C181.677 165.881 179.524 165.794 177.03 165.435C174.601 165.137 171.933 164.831 169.104 164.668C166.522 164.962 163.893 165.661 161.271 166.844C158.981 168.673 156.779 170.869 154.632 173.285C152.659 176.033 150.594 178.698 148.413 181.113C146.208 183.449 143.794 185.298 141.209 186.587C138.53 187.571 135.713 187.937 132.853 187.714C129.977 187.175 127.175 186.113 124.572 184.598C122.086 182.854 119.908 180.74 118.152 178.33C116.589 175.774 115.492 172.984 114.903 170.022C114.488 166.977 114.536 163.807 115.036 160.567C115.561 157.312 116.391 154.178 117.423 151.208C118.315 148.267 119.316 145.488 120.363 142.873C121.18 140.282 122.014 137.807 122.832 135.424C123.405 132.994 123.976 130.579 124.562 128.142C124.929 125.59 125.347 122.957 125.842 120.239C126.199 117.405 126.704 114.503 127.402 111.601C128.078 108.697 129.042 105.903 130.356 103.334C131.779 100.976 133.642 98.9934 135.977 97.488C138.51 96.3593 141.416 95.8009 144.608 95.7551C147.931 95.9989 151.461 96.6351 155.087 97.5727C158.718 98.6009 162.346 99.8115 165.872 101.14C169.289 102.412 172.532 103.753 175.529 105.154C178.342 106.458 180.877 107.857 183.085 109.378C185.091 110.841 186.778 112.49 188.116 114.365C189.29 116.23 190.149 118.371 190.702 120.805C191.161 123.252 191.378 126.009 191.372 129.068Z" stroke="#A9FF81" stroke-width="2" stroke-linecap="round" stroke-dasharray="6 2"/>
<path opacity="0.8" d="M188.694 134.302C188.484 137.069 188.096 139.885 187.571 142.695C187.136 145.457 186.573 148.167 185.902 150.756C185.322 153.233 184.604 155.531 183.731 157.567C182.405 160.204 178.652 163.425 176.114 163.951C173.327 163.975 166.646 163.168 162.945 162.925C160.61 163.199 158.206 163.783 155.761 164.729C153.541 166.204 151.373 167.949 149.249 169.854C147.258 172.063 145.226 174.213 143.158 176.173C141.107 178.126 138.965 179.701 136.765 180.832C133.418 181.96 126.816 181.319 123.871 179.667C122.072 178.232 120.544 176.441 119.361 174.351C118.331 172.141 117.677 169.696 117.435 167.072C117.319 164.392 117.588 161.574 118.223 158.669C118.883 155.755 119.795 152.919 120.872 150.185C121.849 147.464 122.929 144.841 124.046 142.317C124.99 139.795 125.945 137.329 126.897 134.913C127.655 132.451 128.415 129.976 129.183 127.491C129.783 124.917 130.433 122.295 131.148 119.646C131.764 116.927 132.505 114.205 133.41 111.544C134.307 108.923 135.437 106.458 136.846 104.237C138.334 102.223 140.158 100.568 142.348 99.3659C144.674 98.4849 147.259 98.1287 150.041 98.2447C152.919 98.618 155.934 99.3725 159.007 100.436C162.09 101.608 165.156 102.992 168.124 104.516C171.019 106.032 173.755 107.643 176.27 109.327C178.656 110.947 180.788 112.648 182.624 114.437C184.308 116.175 185.692 118.04 186.75 120.048C187.683 122.038 188.317 124.214 188.649 126.58C188.913 128.949 188.924 131.528 188.694 134.302Z" stroke="#A9FF81" stroke-width="2" stroke-linecap="round" stroke-dasharray="8 10"/>
<path opacity="0.42" d="M185.055 138.015C184.3 142.906 182.849 147.628 180.915 151.79C179.287 155.635 177.059 158.574 174.212 160.27C171.523 161.479 168.048 161.583 163.885 160.898C160.008 160.727 155.65 160.908 151.031 161.935C146.976 164.631 142.977 167.8 139.117 170.721C135.402 173.812 131.646 175.553 128.2 175.671C124.918 175.139 122.272 173.026 120.719 169.672C119.62 165.962 119.743 161.394 121.167 156.311C122.675 151.205 124.863 146.199 127.297 141.429C129.234 136.619 131.248 131.802 133.253 127.017C134.797 122.02 136.58 116.965 138.772 112.218C140.943 107.724 143.923 104.11 147.86 101.981C152.161 100.939 157.057 101.659 162.085 103.699C167.161 106.219 171.994 109.477 176.097 113.097C179.862 116.621 182.69 120.449 184.333 124.547C185.629 128.595 185.875 133.105 185.055 138.015Z" stroke="#A9FF81" stroke-width="2" stroke-linecap="round" stroke-dasharray="10 10"/>
<path opacity="0.17" d="M180.758 140.072C179.717 144.282 177.991 148.095 175.798 151.254C173.841 154.207 171.368 156.301 168.458 157.366C165.722 158.202 162.444 158.21 158.733 157.652C155.236 157.622 151.368 157.822 147.274 158.562C143.508 160.575 139.842 162.856 136.416 164.934C133.138 167.285 130.056 168.641 127.433 168.761C125.005 168.503 123.237 166.944 122.413 164.281C121.919 161.375 122.433 157.628 123.991 153.281C125.617 148.923 127.815 144.463 130.25 140.073C132.356 135.644 134.584 131.131 136.836 126.666C138.779 122.107 140.934 117.609 143.366 113.532C145.79 109.754 148.765 106.823 152.341 105.225C156.14 104.502 160.21 105.308 164.219 107.277C168.269 109.713 172.018 112.888 175.113 116.442C177.997 120.009 180.069 123.838 181.128 127.786C181.959 131.708 181.851 135.852 180.758 140.072Z" stroke="#A9FF81" stroke-width="2" stroke-linecap="round" stroke-dasharray="10 6"/>
<path opacity="0.07" d="M176.157 140.553C174.943 144.059 173.116 147.045 170.886 149.373C168.82 151.589 166.343 153.058 163.563 153.723C160.935 154.337 157.942 154.353 154.685 153.966C151.569 154.052 148.178 154.251 144.638 154.736C141.261 156.155 138.038 157.681 135.121 159.025C128.309 161.044 124.934 154.644 126.907 149.562C128.555 145.957 130.705 142.124 133.082 138.251C135.264 134.361 137.607 130.362 140.001 126.433C142.206 122.504 144.581 118.709 147.119 115.38C149.647 112.343 152.505 110.073 155.67 108.936C158.958 108.478 162.257 109.282 165.356 111.064C168.474 113.256 171.243 116.132 173.431 119.367C175.497 122.69 176.873 126.241 177.407 129.821C177.812 133.407 177.412 137.045 176.157 140.553Z" stroke="#A9FF81" stroke-width="2" stroke-linecap="round"/>
<path opacity="0.11" d="M171.58 139.739C170.307 142.538 168.533 144.814 166.44 146.501C164.449 148.148 162.144 149.194 159.637 149.647C157.233 150.148 154.586 150.225 151.793 150.012C149.074 150.172 146.179 150.353 143.21 150.631C140.307 151.549 137.608 152.452 135.236 153.196C129.969 154.289 128.18 149.342 130.141 145.338C131.72 142.475 133.736 139.338 135.983 136.116C138.117 132.899 140.442 129.582 142.83 126.361C145.105 123.192 147.515 120.194 149.995 117.645C152.459 115.346 155.08 113.693 157.795 112.949C160.557 112.694 163.159 113.431 165.467 114.94C167.78 116.776 169.724 119.191 171.156 121.926C172.52 124.775 173.312 127.819 173.435 130.855C173.484 133.911 172.88 136.938 171.58 139.739Z" stroke="#A9FF81" stroke-width="2" stroke-linecap="round" stroke-dasharray="10 11"/>
<path opacity="0.6" d="M167.266 138.058C164.879 142.304 161.022 144.767 156.695 145.441C152.586 146.429 147.783 146.592 143.017 146.42C136.407 148.231 130.969 146.515 133.867 140.983C136.684 136.659 140.911 131.413 145.375 126.53C149.6 121.912 154.283 118.235 158.721 117.074C163.187 117.203 166.615 120.057 168.37 124.19C169.974 128.731 169.722 133.807 167.266 138.058Z" stroke="#A9FF81" stroke-width="2" stroke-linecap="round" stroke-dasharray="4 8"/>
<path opacity="0.51" d="M163.321 136.008C161.244 139.004 158.104 140.771 154.677 141.371C151.333 142.233 147.557 142.493 144.011 142.288C139.091 142.999 135.638 140.906 138.143 136.976C140.465 133.943 143.957 130.318 147.669 127.049C151.259 123.998 155.125 121.704 158.528 121.148C161.892 121.337 164.185 123.352 165.121 126.241C165.977 129.421 165.436 133.013 163.321 136.008Z" stroke="#A9FF81" stroke-width="2" stroke-linecap="round" stroke-dasharray="3 11"/>
<path opacity="0.29" d="M159.703 134.066C156.628 137.803 150.725 139.156 146.084 138.389C141.251 139.128 139.63 137.597 142.884 133.831C146.222 130.071 152.707 125.649 157.354 125.019C161.825 125.743 162.857 130.335 159.703 134.066Z" stroke="#A9FF81" stroke-width="2" stroke-linecap="round" stroke-dasharray="7 8"/>
</svg>
