<svg width="50" height="46" viewBox="0 0 50 46" fill="none" xmlns="http://www.w3.org/2000/svg">
<path d="M43.7489 36.7739V31.5803C43.7719 30.7313 43.4542 29.904 42.856 29.256C41.1698 27.4286 35.3864 26.2599 33.0939 26.7087C31.3071 27.0587 30.0567 28.7094 28.8344 29.8318C24.1139 27.3671 20.2055 23.7785 17.5214 19.4442C18.7437 18.322 20.5415 17.174 20.9227 15.5332C21.4108 13.4316 20.1421 8.14485 18.1695 6.58727C17.4757 6.03941 16.5886 5.74189 15.6735 5.75017H10.017C7.86174 5.75203 6.06861 7.53048 6.26484 9.52428C6.25011 26.7087 20.8335 40.25 39.6385 40.2364C41.8173 40.4173 43.7577 38.7594 43.7489 36.7739Z" stroke="black" stroke-width="1.5" stroke-linecap="round" stroke-linejoin="round"/>
<path d="M30.2084 12.4583C31.7442 12.7339 33.2686 13.357 34.375 14.3749C35.4815 15.3928 36.1588 16.7954 36.4584 18.2083" stroke="black" stroke-width="1.5" stroke-linecap="round" stroke-linejoin="round"/>
<path d="M31.25 5.75C34.4406 6.0761 37.3119 7.49622 39.5833 9.58333C41.8548 11.6704 43.3915 14.315 43.75 17.25" stroke="black" stroke-width="1.5" stroke-linecap="round" stroke-linejoin="round"/>
</svg>
