<svg width="148" height="58" viewBox="0 0 148 58" fill="none" xmlns="http://www.w3.org/2000/svg">
<g clip-path="url(#clip0_14_2946)">
<path d="M44.0303 47.4227C43.5215 50.9194 41.6505 54.1186 39.6545 57.2004C39.5885 57.3053 39.5206 57.4086 39.4511 57.5136H18.706C18.2865 57.418 17.8723 57.3131 17.4599 57.2004C15.1168 56.5746 12.9048 55.6201 10.9097 54.3739C3.27764 49.5508 0.340815 40.4371 1.66731 32.2708C2.49214 27.1972 5.03076 22.0171 9.9742 19.2845C12.5843 17.8392 15.937 17.3694 18.9417 17.9065C19.0203 17.9191 19.0989 17.9347 19.1791 17.9488C21.7642 18.4593 24.0672 19.7277 25.3777 21.7712C27.7342 25.4433 26.331 29.9924 25.1724 34.0794C24.0173 38.1665 23.3906 43.0585 26.7434 46.0729C25.6365 43.2151 26.7291 39.806 29.3731 37.8737C31.3708 36.4158 34.1523 35.8693 36.6892 36.3218C36.932 36.3673 37.1713 36.4189 37.4069 36.4816C37.9764 36.6279 38.5255 36.8296 39.044 37.0829C42.9984 39.0199 44.5998 43.4813 44.0303 47.4227Z" fill="#F2F2F2"/>
<path d="M31.73 57.2003C32.3048 57.3177 32.8814 57.4211 33.4616 57.5135H30.3249C29.9142 57.4164 29.5054 57.313 29.1002 57.2003C28.2093 56.956 27.3321 56.6757 26.4687 56.3594C23.0052 55.0847 19.8149 53.1712 17.4012 50.625C16.2208 49.3914 15.2568 48.0101 14.5412 46.5269C13.7652 44.8505 13.2721 43.0839 13.0773 41.2826C12.6399 37.5871 13.0862 33.7897 13.9199 30.1598C14.7803 26.3977 16.1692 22.7437 18.0547 19.2813C18.2814 18.8664 18.5159 18.454 18.7581 18.0443C18.7747 18.0105 18.7999 17.9806 18.8318 17.9567C18.8637 17.9328 18.9013 17.9156 18.9419 17.9065C19.0243 17.8924 19.1097 17.9076 19.1794 17.9487C19.263 17.9908 19.325 18.0594 19.3525 18.1405C19.3801 18.2215 19.3712 18.3087 19.3276 18.3841C17.3835 21.7094 15.9098 25.2307 14.9393 28.8695C13.9896 32.4195 13.4504 36.1339 13.6343 39.784C13.8092 43.1946 14.8251 46.5489 17.1299 49.3378C19.2347 51.884 22.1411 53.8915 25.3565 55.2585C27.3916 56.1126 29.5294 56.7639 31.73 57.2003Z" fill="white"/>
<path d="M38.614 57.5135H37.6892C37.5856 57.4101 37.4856 57.3052 37.3875 57.2003C35.281 54.9554 33.854 52.2808 33.2384 49.4239C32.4909 45.8587 33.0724 42.177 34.897 38.9244C35.406 38.0123 36.0058 37.1414 36.6894 36.3218C36.9322 36.3672 37.1715 36.4189 37.4071 36.4815C35.609 38.5711 34.3997 41.0039 33.8776 43.5814C33.4118 45.9967 33.5667 48.4727 34.3308 50.8288C35.0949 53.1849 36.4491 55.3617 38.2944 57.2003C38.3979 57.3052 38.505 57.4101 38.614 57.5135Z" fill="white"/>
<path d="M121.922 54.8503C122.057 55.7732 122.55 56.6175 123.077 57.4308C123.095 57.4585 123.112 57.4858 123.131 57.5135H128.606C128.717 57.4883 128.826 57.4606 128.935 57.4308C129.553 57.2657 130.137 57.0138 130.663 56.6849C132.678 55.412 133.453 53.0067 133.103 50.8515C132.885 49.5124 132.215 48.1453 130.91 47.4241C130.202 47.0457 129.357 46.9158 128.544 47.0605C128.523 47.0638 128.502 47.0679 128.481 47.0716C128.143 47.129 127.822 47.2486 127.54 47.4224C127.258 47.5963 127.021 47.8206 126.845 48.0804C126.223 49.0496 126.593 50.2501 126.899 51.3288C127.204 52.4075 127.369 53.6985 126.485 54.4941C126.614 54.1614 126.641 53.8044 126.561 53.4598C126.481 53.1152 126.298 52.7955 126.031 52.5334C125.764 52.2714 125.422 52.0765 125.04 51.9688C124.659 51.8611 124.251 51.8444 123.86 51.9206C123.796 51.9326 123.733 51.9462 123.67 51.9628C123.52 52.0014 123.375 52.0546 123.238 52.1215C122.195 52.6327 121.772 53.8101 121.922 54.8503Z" fill="#F2F2F2"/>
<path d="M125.169 57.4309C125.017 57.4619 124.865 57.4892 124.712 57.5136H125.539C125.648 57.4879 125.756 57.4607 125.863 57.4309C126.098 57.3664 126.329 57.2925 126.557 57.209C127.482 56.8798 128.302 56.3608 128.95 55.6956C129.262 55.37 129.516 55.0055 129.705 54.614C129.91 54.1716 130.04 53.7053 130.091 53.2299C130.185 52.2472 130.11 51.2576 129.869 50.2944C129.642 49.3015 129.275 48.3372 128.778 47.4234C128.718 47.3139 128.656 47.2051 128.592 47.0969C128.588 47.088 128.581 47.0801 128.573 47.0738C128.564 47.0675 128.554 47.063 128.544 47.0605C128.522 47.0569 128.499 47.0609 128.481 47.0717C128.459 47.0828 128.443 47.1009 128.435 47.1223C128.428 47.1437 128.43 47.1667 128.442 47.1866C128.955 48.0642 129.344 48.9935 129.6 49.9539C129.864 50.8958 129.98 51.865 129.944 52.8345C129.926 53.7361 129.605 54.613 129.022 55.3559C128.455 56.0249 127.71 56.5615 126.851 56.9185C126.314 57.1439 125.749 57.3158 125.169 57.4309Z" fill="white"/>
<path d="M123.352 57.5135H123.596C123.623 57.4863 123.65 57.4586 123.675 57.4309C124.231 56.8384 124.608 56.1325 124.771 55.3785C124.968 54.4376 124.814 53.466 124.333 52.6075C124.198 52.3668 124.04 52.137 123.86 51.9207C123.796 51.9326 123.733 51.9463 123.67 51.9628C124.145 52.5143 124.464 53.1563 124.602 53.8366C124.725 54.474 124.684 55.1275 124.482 55.7493C124.281 56.3711 123.923 56.9456 123.436 57.4309C123.409 57.4586 123.381 57.4863 123.352 57.5135Z" fill="white"/>
<path d="M72.5735 33.6612H55.4382L55.2566 29.04C55.2487 28.8397 55.2904 28.6403 55.3788 28.4555C55.4673 28.2706 55.6003 28.1048 55.7688 27.9694C55.9373 27.834 56.1373 27.7322 56.3549 27.6711C56.5725 27.6099 56.8027 27.5909 57.0295 27.6153L67.0011 28.6863H67.0023C68.4807 28.6897 69.8971 29.2071 70.9414 30.1249C71.9857 31.0427 72.5726 32.2862 72.5735 33.5829V33.6612Z" fill="#5DB5B0"/>
<path d="M64.9362 17.2692H52.9851C52.8262 17.2691 52.6688 17.2966 52.522 17.3499C52.3751 17.4032 52.2417 17.4814 52.1293 17.58C52.0169 17.6786 51.9277 17.7956 51.8669 17.9244C51.8061 18.0532 51.7749 18.1913 51.7749 18.3307V28.8134C51.7749 28.9528 51.8061 29.0908 51.8669 29.2196C51.9277 29.3484 52.0169 29.4655 52.1293 29.5641C52.2417 29.6626 52.3751 29.7408 52.522 29.7942C52.6688 29.8475 52.8262 29.8749 52.9851 29.8749H64.9362C65.0951 29.8749 65.2525 29.8475 65.3994 29.7942C65.5462 29.7408 65.6797 29.6626 65.7921 29.5641C65.9045 29.4655 65.9936 29.3484 66.0544 29.2196C66.1152 29.0908 66.1465 28.9528 66.1464 28.8134V18.3307C66.1465 18.1913 66.1152 18.0532 66.0544 17.9244C65.9936 17.7956 65.9045 17.6786 65.7921 17.58C65.6797 17.4814 65.5462 17.4032 65.3994 17.3499C65.2525 17.2966 65.0951 17.2691 64.9362 17.2692Z" fill="#CCCCCC"/>
<path d="M62.2448 25.1077L56.6021 26.0716C56.2674 26.1284 55.9207 26.0664 55.638 25.8993C55.3553 25.7322 55.1597 25.4735 55.0942 25.1801L54.6604 23.2264C54.5956 22.9328 54.6663 22.6287 54.8568 22.3807C55.0473 22.1327 55.3422 21.9612 55.6768 21.9037L61.3194 20.9399C61.6541 20.8831 62.0009 20.945 62.2836 21.1121C62.5663 21.2793 62.7618 21.5379 62.8274 21.8314L63.2611 23.7851C63.3259 24.0786 63.2553 24.3828 63.0648 24.6307C62.8742 24.8787 62.5793 25.0503 62.2448 25.1077Z" fill="#3F3D56"/>
<path d="M61.1158 22.7996L56.8096 23.5351C56.7309 23.5486 56.6492 23.534 56.5827 23.4947C56.5161 23.4553 56.4701 23.3944 56.4548 23.3253C56.4395 23.2563 56.456 23.1846 56.5009 23.1263C56.5457 23.0679 56.6152 23.0276 56.6939 23.0141L61.0002 22.2786C61.0789 22.2651 61.1606 22.2797 61.2271 22.319C61.2936 22.3583 61.3396 22.4193 61.355 22.4883C61.3703 22.5574 61.3537 22.629 61.3089 22.6874C61.264 22.7458 61.1946 22.7861 61.1158 22.7996Z" fill="white"/>
<path d="M60.2787 23.8889L58.0513 24.2694C57.9726 24.2828 57.8909 24.2683 57.8244 24.2289C57.7578 24.1896 57.7118 24.1287 57.6965 24.0596C57.6812 23.9905 57.6977 23.9189 57.7426 23.8605C57.7874 23.8022 57.8569 23.7618 57.9356 23.7484L60.163 23.3679C60.202 23.3613 60.2421 23.3614 60.281 23.3683C60.32 23.3753 60.357 23.3889 60.3899 23.4084C60.4229 23.4278 60.4511 23.4528 60.4731 23.4819C60.495 23.5109 60.5102 23.5435 60.5178 23.5777C60.5254 23.6119 60.5252 23.6471 60.5173 23.6812C60.5094 23.7154 60.4939 23.7478 60.4717 23.7767C60.4495 23.8056 60.421 23.8304 60.3879 23.8497C60.3548 23.8689 60.3177 23.8823 60.2787 23.8889Z" fill="white"/>
<path d="M66.1464 18.3307V19.724H51.7749V18.3307C51.7749 18.1913 51.8061 18.0532 51.8669 17.9244C51.9277 17.7956 52.0169 17.6786 52.1293 17.58C52.2417 17.4814 52.3751 17.4032 52.522 17.3499C52.6688 17.2966 52.8262 17.2691 52.9851 17.2692H64.9362C65.0951 17.2691 65.2525 17.2966 65.3994 17.3499C65.5462 17.4032 65.6797 17.4814 65.7921 17.58C65.9044 17.6786 65.9936 17.7956 66.0544 17.9244C66.1152 18.0532 66.1465 18.1913 66.1464 18.3307Z" fill="#B3B3B3"/>
<path d="M94.845 20.1603C94.762 19.9254 94.6214 19.7093 94.4329 19.5272C94.2444 19.3452 94.0127 19.2016 93.7541 19.1065C93.4955 19.0115 93.2163 18.9674 92.9361 18.9772C92.6559 18.9871 92.3817 19.0507 92.1326 19.1636L75.6907 13.9894L74.9666 17.5922L91.3561 21.5454C91.6 21.8999 91.9838 22.1635 92.4346 22.2864C92.8854 22.4093 93.3719 22.3829 93.8019 22.2121C94.232 22.0414 94.5757 21.7382 94.7679 21.3601C94.9602 20.9819 94.9876 20.555 94.845 20.1603Z" fill="#FFB8B8"/>
<path opacity="0.2" d="M94.845 20.1603C94.762 19.9254 94.6214 19.7093 94.4329 19.5272C94.2444 19.3452 94.0127 19.2016 93.7541 19.1065C93.4955 19.0115 93.2163 18.9674 92.9361 18.9772C92.6559 18.9871 92.3817 19.0507 92.1326 19.1636L75.6907 13.9894L74.9666 17.5922L91.3561 21.5454C91.6 21.8999 91.9838 22.1635 92.4346 22.2864C92.8854 22.4093 93.3719 22.3829 93.8019 22.2121C94.232 22.0414 94.5757 21.7382 94.7679 21.3601C94.9602 20.9819 94.9876 20.555 94.845 20.1603Z" fill="black"/>
<path d="M78.6092 14.6458L77.0565 18.2036C77.0124 18.3049 76.9438 18.3966 76.8556 18.4725C76.7674 18.5484 76.6615 18.6067 76.5453 18.6435C76.4291 18.6803 76.3052 18.6947 76.182 18.6857C76.0589 18.6767 75.9394 18.6445 75.8317 18.5913L72.0583 16.7285C71.4691 16.5272 70.995 16.1293 70.7398 15.622C70.4846 15.1146 70.4692 14.5392 70.6969 14.0219C70.9247 13.5045 71.377 13.0875 71.9547 12.8623C72.5324 12.637 73.1884 12.6218 73.7788 12.8201L77.9925 13.6398C78.1131 13.6633 78.2266 13.7094 78.3251 13.7748C78.4236 13.8402 78.5049 13.9235 78.5634 14.019C78.622 14.1144 78.6563 14.2199 78.6642 14.328C78.6721 14.4362 78.6533 14.5446 78.6092 14.6458Z" fill="#5DB5B0"/>
<path d="M96.1392 23.4546L90.2478 25.8035L91.0213 28.3577C92.515 33.29 92.9114 38.4285 92.1888 43.4923L96.4963 44.2814L100.067 36.2952L98.8172 27.2128L96.1392 23.4546Z" fill="#5DB5B0"/>
<path d="M107.699 35.2773C103.828 35.2773 100.674 37.7456 100.521 40.8364H114.877C114.724 37.7456 111.57 35.2773 107.699 35.2773Z" fill="#3F3D56"/>
<path d="M104.686 35.81C104.484 21.8578 95.4251 23.1413 95.4251 23.1413C95.4251 23.1413 95.5946 27.4842 95.676 27.6193C101.449 37.1995 91.9215 48.431 79.7941 46.3648C79.5654 46.3258 79.3458 46.2863 79.1351 46.2462C77.5985 45.9648 76.2417 45.1806 75.3409 44.053C74.44 42.9254 74.0627 41.5392 74.2857 40.1763C75.4803 31.7616 69.5385 31.9106 69.5385 31.9106H60.8501L56.3381 28.3487C56.1789 28.223 55.9869 28.1334 55.7791 28.0878C55.5712 28.0422 55.3538 28.0419 55.1458 28.087C54.9378 28.1322 54.7455 28.2213 54.5859 28.3467C54.4262 28.472 54.304 28.6298 54.23 28.8061L53.6495 30.188C53.6495 30.188 45.0801 30.971 45.7942 38.3309H48.4436C48.4372 38.54 48.4467 38.7492 48.4722 38.9572L68.2443 38.8162C69.4033 38.808 70.4263 39.6317 70.4311 40.6483C70.4323 40.8958 70.3766 41.141 70.2672 41.3692C70.1579 41.5973 69.9972 41.8038 69.7948 41.9763C69.5924 42.1487 69.3524 42.2836 69.0892 42.3728C68.826 42.462 68.545 42.5037 68.263 42.4955L65.0753 42.4023C64.0934 46.2388 66.5035 48.8226 69.1591 50.4472C71.6594 51.9547 74.6263 52.754 77.6602 52.7374H86.3202C97.5674 52.7374 99.5313 44.438 99.5313 44.438C105.423 42.2457 104.686 35.81 104.686 35.81Z" fill="#3F3D56"/>
<path d="M107.163 57.2787C112.709 57.2787 117.206 53.3351 117.206 48.4703C117.206 43.6056 112.709 39.662 107.163 39.662C101.617 39.662 97.1211 43.6056 97.1211 48.4703C97.1211 53.3351 101.617 57.2787 107.163 57.2787Z" fill="#3F3D56"/>
<path d="M107.163 50.6292C108.523 50.6292 109.625 49.6626 109.625 48.4703C109.625 47.278 108.523 46.3114 107.163 46.3114C105.804 46.3114 104.702 47.278 104.702 48.4703C104.702 49.6626 105.804 50.6292 107.163 50.6292Z" fill="white"/>
<path d="M56.4613 57.2787C62.8456 57.2787 68.021 52.7391 68.021 47.1393C68.021 41.5394 62.8456 36.9999 56.4613 36.9999C50.0771 36.9999 44.9016 41.5394 44.9016 47.1393C44.9016 52.7391 50.0771 57.2787 56.4613 57.2787Z" fill="#3F3D56"/>
<path d="M56.4614 49.6243C58.0262 49.6243 59.2947 48.5117 59.2947 47.1392C59.2947 45.7667 58.0262 44.6541 56.4614 44.6541C54.8967 44.6541 53.6282 45.7667 53.6282 47.1392C53.6282 48.5117 54.8967 49.6243 56.4614 49.6243Z" fill="white"/>
<path d="M90.2646 26.4975L88.1448 21.4475C88.0343 21.1843 87.984 20.9046 87.9968 20.6243C88.0096 20.3441 88.0852 20.0688 88.2192 19.8141C88.3533 19.5595 88.5432 19.3306 88.7782 19.1403C89.0131 18.9501 89.2885 18.8023 89.5886 18.7054L95.6657 16.7431C96.1936 16.5726 96.7547 16.4949 97.3169 16.5146C97.8791 16.5343 98.4313 16.6509 98.9421 16.8577C99.4529 17.0646 99.9123 17.3577 100.294 17.7203C100.676 18.0829 100.972 18.5079 101.166 18.9709C101.342 19.3866 101.431 19.8263 101.431 20.2695C101.429 20.8322 101.283 21.3874 101.006 21.8948C100.728 22.4021 100.325 22.8488 99.8263 23.2025C99.4658 23.4561 99.0606 23.6565 98.6266 23.7958L90.2646 26.4975Z" fill="#3F3D56"/>
<path d="M101.342 20.2695C101.341 20.8208 101.2 21.3649 100.928 21.8619C100.656 22.359 100.26 22.7962 99.7705 23.1414C99.0188 22.9675 98.3193 22.6521 97.7206 22.2171C97.122 21.7821 96.6385 21.238 96.3038 20.6225C95.9691 20.007 95.7912 19.335 95.7826 18.6532C95.7739 17.9713 95.9346 17.296 96.2536 16.6742C96.8659 16.5573 97.5003 16.5623 98.1102 16.6887C98.72 16.8151 99.2899 17.0597 99.7779 17.4045C100.266 17.7494 100.66 18.1857 100.93 18.6814C101.201 19.1772 101.341 19.7199 101.342 20.2695Z" fill="#5DB5B0"/>
<path d="M47.3117 39.3488C48.692 39.3488 49.811 38.157 49.811 36.6867C49.811 35.2165 48.692 34.0247 47.3117 34.0247C45.9313 34.0247 44.8123 35.2165 44.8123 36.6867C44.8123 38.157 45.9313 39.3488 47.3117 39.3488Z" fill="#5DB5B0"/>
<path d="M80.3505 46.1098H82.5392L83.5806 41.1306L80.3501 41.1308L80.3505 46.1098Z" fill="#FFB8B8"/>
<path d="M79.792 45.4831L84.1023 45.4829H84.1025C84.4633 45.4829 84.8205 45.5452 85.1537 45.6663C85.487 45.7874 85.7898 45.9648 86.0449 46.1886C86.3 46.4123 86.5023 46.6779 86.6404 46.9702C86.7784 47.2626 86.8495 47.5759 86.8495 47.8923V47.9706L79.7921 47.9708L79.792 45.4831Z" fill="#2F2E41"/>
<path d="M82.891 44.0662C82.8655 44.0662 82.8399 44.0651 82.8142 44.0629L79.7852 43.8695C79.6627 43.8595 79.5445 43.825 79.4396 43.7686C79.3347 43.7122 79.246 43.6355 79.1803 43.5442C79.1146 43.453 79.0736 43.3498 79.0606 43.2425C79.0476 43.1352 79.0628 43.0267 79.1052 42.9254L83.1589 34.9368C83.1879 34.8656 83.1997 34.7899 83.1937 34.7145C83.1877 34.639 83.1639 34.5655 83.1239 34.4985C83.084 34.4308 83.0282 34.3712 82.9601 34.3237C82.8921 34.2762 82.8134 34.2419 82.7291 34.223C80.8229 33.7859 75.9322 32.6222 71.6985 31.2606C69.8847 30.6772 68.7423 29.8341 68.3031 28.7548C67.7241 27.3318 68.5807 26.0341 68.6174 25.9797L68.6461 25.937L72.6299 26.2546L76.9488 26.5768L86.4132 31.0284C87.2062 31.4046 87.8086 32.029 88.1003 32.7772C88.3921 33.5255 88.3518 34.3427 87.9875 35.066L83.6241 43.6485C83.561 43.7728 83.4582 43.8784 83.3281 43.9525C83.198 44.0266 83.0462 44.0661 82.891 44.0662Z" fill="#2F2E41"/>
<path d="M73.3226 10.4499C75.7443 10.4499 77.7074 8.7279 77.7074 6.60377C77.7074 4.47964 75.7443 2.75769 73.3226 2.75769C70.9009 2.75769 68.9377 4.47964 68.9377 6.60377C68.9377 8.7279 70.9009 10.4499 73.3226 10.4499Z" fill="#FFB8B8"/>
<path d="M79.1007 46.5796H81.2895L82.3308 41.6005L79.1003 41.6006L79.1007 46.5796Z" fill="#FFB8B8"/>
<path d="M78.5425 45.9528L82.8528 45.9526H82.853C83.2137 45.9526 83.5709 46.015 83.9042 46.136C84.2375 46.2571 84.5403 46.4346 84.7954 46.6583C85.0505 46.882 85.2528 47.1476 85.3908 47.44C85.5289 47.7323 85.5999 48.0456 85.5999 48.362V48.4403L78.5426 48.4405L78.5425 45.9528Z" fill="#2F2E41"/>
<path d="M81.6413 44.536C81.6158 44.536 81.5902 44.5349 81.5645 44.5328L78.5355 44.3393C78.413 44.3294 78.2947 44.2949 78.1899 44.2385C78.085 44.1821 77.9962 44.1053 77.9305 44.0141C77.8648 43.9229 77.8239 43.8196 77.8109 43.7123C77.7978 43.605 77.8131 43.4965 77.8554 43.3952L81.9092 35.4067C81.9381 35.3355 81.95 35.2597 81.9439 35.1843C81.9379 35.1089 81.9141 35.0354 81.8741 34.9684C81.8342 34.9006 81.7784 34.841 81.7104 34.7935C81.6423 34.746 81.5636 34.7117 81.4794 34.6928C79.5732 34.2558 74.6824 33.092 70.4487 31.7304C68.6349 31.147 67.4925 30.3039 67.0534 29.2246C66.4744 27.8017 67.3309 26.504 67.3677 26.4495L67.3964 26.4069L71.3802 26.7245L75.699 27.0467L85.1634 31.4983C85.9564 31.8744 86.5588 32.4988 86.8506 33.2471C87.1424 33.9953 87.1021 34.8125 86.7378 35.5359L82.3744 44.1184C82.3112 44.2427 82.2084 44.3483 82.0783 44.4224C81.9482 44.4965 81.7964 44.536 81.6413 44.536Z" fill="#2F2E41"/>
<path d="M74.675 12.6308L70.0332 11.2214C70.0332 11.2214 67.1193 13.1851 68.5191 18.0565C69.2499 20.5703 69.0371 23.2238 67.9121 25.6231C67.7767 25.9199 67.6205 26.2092 67.4446 26.4892C67.4446 26.4892 72.6219 31.97 77.4422 27.8986L75.5676 19.9906C75.5676 19.9906 78.5133 14.7448 74.675 12.6308Z" fill="#5DB5B0"/>
<path d="M73.867 10.5807C73.243 9.76136 72.7504 8.62523 73.4375 7.84566C74.1158 7.07614 75.4535 7.18951 76.4923 6.849C77.9391 6.37473 78.7781 4.88387 78.5164 3.5487C78.2548 2.21354 77.0328 1.10673 75.5772 0.653858C74.1215 0.200987 72.48 0.348271 71.0545 0.86978C69.2997 1.51176 67.7943 2.75364 67.1631 4.32677C66.5319 5.89989 66.8693 7.78873 68.1788 8.99787C69.5827 10.2942 71.7861 10.6397 73.8244 10.6187" fill="#2F2E41"/>
<path d="M69.7882 3.5916C69.0018 4.15312 67.8021 3.90372 66.9579 3.41091C66.1138 2.91811 65.4288 2.21638 64.5155 1.83C62.9053 1.14883 60.9585 1.60165 59.3914 2.35617C57.8243 3.11069 56.4351 4.15307 54.7798 4.74518C53.1245 5.33728 51.0121 5.36655 49.7587 4.24852C49.4503 5.0324 49.425 5.88066 49.6865 6.67757C49.948 7.47448 50.4834 8.18123 51.2197 8.70138C51.956 9.22153 52.8573 9.52976 53.8007 9.584C54.7441 9.63825 55.6836 9.43587 56.491 9.00447C58.3048 8.03542 59.3066 6.00358 61.3409 5.46872C62.4666 5.17274 63.6754 5.41112 64.8131 5.66932C65.9509 5.92751 67.1372 6.2065 68.2854 5.98669C69.4335 5.76689 70.5075 4.86187 70.3614 3.83906L69.7882 3.5916Z" fill="#2F2E41"/>
<path d="M94.6269 20.0036C94.5115 19.7795 94.3415 19.5802 94.1288 19.42C93.9162 19.2597 93.666 19.1423 93.396 19.076C93.126 19.0096 92.8428 18.9961 92.5661 19.0362C92.2895 19.0763 92.0263 19.1691 91.795 19.3081L74.7509 15.9528L74.5391 19.6064L91.3594 21.7557C91.6514 22.0811 92.0693 22.3012 92.5339 22.3743C92.9985 22.4475 93.4776 22.3686 93.8804 22.1526C94.2831 21.9367 94.5816 21.5986 94.7192 21.2025C94.8568 20.8065 94.8239 20.3799 94.6269 20.0036Z" fill="#FFB8B8"/>
<path d="M77.7392 16.2884L76.6989 19.987C76.6693 20.0923 76.6142 20.1907 76.5373 20.2756C76.4605 20.3604 76.3637 20.4298 76.2535 20.4789C76.1433 20.5279 76.0224 20.5556 75.8989 20.56C75.7754 20.5644 75.6523 20.5454 75.5379 20.5043L71.5313 19.0641C70.918 18.9285 70.391 18.585 70.0661 18.109C69.7411 17.633 69.6447 17.0634 69.798 16.5251C69.9513 15.9868 70.3418 15.5239 70.8838 15.2378C71.4258 14.9518 72.075 14.8661 72.689 14.9994L76.9857 15.3568C77.1088 15.3671 77.2278 15.4005 77.3348 15.4547C77.4418 15.509 77.5342 15.5829 77.6057 15.6713C77.6772 15.7597 77.7261 15.8605 77.7491 15.967C77.7722 16.0735 77.7688 16.1831 77.7392 16.2884V16.2884Z" fill="#5DB5B0"/>
<path d="M92.6579 22.9065C93.3481 22.9065 93.9076 22.4158 93.9076 21.8104C93.9076 21.205 93.3481 20.7142 92.6579 20.7142C91.9677 20.7142 91.4082 21.205 91.4082 21.8104C91.4082 22.4158 91.9677 22.9065 92.6579 22.9065Z" fill="#5DB5B0"/>
</g>
<defs>
<clipPath id="clip0_14_2946">
<rect width="148" height="57.1564" fill="white" transform="translate(0 0.383911)"/>
</clipPath>
</defs>
</svg>
