<svg width="52" height="50" viewBox="0 0 52 50" fill="none" xmlns="http://www.w3.org/2000/svg">
<path d="M43.1033 17.1123L31.3167 4.68393C31.1141 4.46935 30.8668 4.29768 30.5907 4.17995C30.3145 4.06223 30.0157 4.00106 29.7133 4.00037H14.5467C13.8268 3.99216 13.1123 4.1196 12.4439 4.37541C11.7756 4.63122 11.1665 5.01039 10.6514 5.49127C10.1363 5.97215 9.72539 6.54531 9.44204 7.17803C9.15869 7.81076 9.00849 8.49064 9 9.17887V40.2498C9.00849 40.938 9.15869 41.6179 9.44204 42.2507C9.72539 42.8834 10.1363 43.4565 10.6514 43.9374C11.1665 44.4183 11.7756 44.7975 12.4439 45.0533C13.1123 45.3091 13.8268 45.4365 14.5467 45.4283H38.12C38.8399 45.4365 39.5544 45.3091 40.2228 45.0533C40.8911 44.7975 41.5002 44.4183 42.0153 43.9374C42.5303 43.4565 42.9413 42.8834 43.2246 42.2507C43.508 41.6179 43.6582 40.938 43.6667 40.2498V18.5002C43.6653 17.9868 43.4645 17.4922 43.1033 17.1123ZM30.6667 10.2146L36.6033 16.4288H32.27C32.0431 16.4157 31.8212 16.3595 31.6173 16.2635C31.4133 16.1676 31.2314 16.0337 31.0822 15.8698C30.9329 15.7059 30.8193 15.5152 30.748 15.3089C30.6766 15.1026 30.649 14.8847 30.6667 14.6681V10.2146ZM38.12 41.2855H14.5467C14.3958 41.2939 14.2447 41.2738 14.102 41.2262C13.9593 41.1787 13.8278 41.1047 13.7151 41.0085C13.6024 40.9122 13.5107 40.7957 13.4451 40.6655C13.3796 40.5353 13.3416 40.3941 13.3333 40.2498V9.17887C13.3416 9.03462 13.3796 8.89335 13.4451 8.76317C13.5107 8.63299 13.6024 8.51645 13.7151 8.42023C13.8278 8.32402 13.9593 8.25001 14.102 8.20247C14.2447 8.15492 14.3958 8.13477 14.5467 8.14317H26.3333V14.6681C26.2984 16.1939 26.8961 17.671 27.9962 18.777C29.0962 19.883 30.6092 20.5282 32.205 20.5716H39.3333V40.2498C39.325 40.3941 39.287 40.5353 39.2215 40.6655C39.156 40.7957 39.0643 40.9122 38.9515 41.0085C38.8388 41.1047 38.7074 41.1787 38.5647 41.2262C38.422 41.2738 38.2709 41.2939 38.12 41.2855Z" fill="#FBF6F7" fill-opacity="0.47"/>
<path d="M30.6666 26.7859H28.4999V24.7145C28.4999 24.1651 28.2716 23.6382 27.8653 23.2498C27.459 22.8613 26.9079 22.6431 26.3333 22.6431C25.7586 22.6431 25.2075 22.8613 24.8012 23.2498C24.3949 23.6382 24.1666 24.1651 24.1666 24.7145V26.7859H21.9999C21.4253 26.7859 20.8742 27.0041 20.4679 27.3926C20.0615 27.781 19.8333 28.3079 19.8333 28.8573C19.8333 29.4066 20.0615 29.9335 20.4679 30.322C20.8742 30.7104 21.4253 30.9287 21.9999 30.9287H24.1666V33.0001C24.1666 33.5494 24.3949 34.0763 24.8012 34.4648C25.2075 34.8532 25.7586 35.0714 26.3333 35.0714C26.9079 35.0714 27.459 34.8532 27.8653 34.4648C28.2716 34.0763 28.4999 33.5494 28.4999 33.0001V30.9287H30.6666C31.2412 30.9287 31.7923 30.7104 32.1987 30.322C32.605 29.9335 32.8333 29.4066 32.8333 28.8573C32.8333 28.3079 32.605 27.781 32.1987 27.3926C31.7923 27.0041 31.2412 26.7859 30.6666 26.7859Z" fill="#FBF6F7" fill-opacity="0.47"/>
</svg>
